<?xml version="1.0" encoding="utf-8"?>
<!-- Generator: Adobe Illustrator 26.3.1, SVG Export Plug-In . SVG Version: 6.00 Build 0)  -->
<svg version="1.1" id="Layer_1" xmlns="http://www.w3.org/2000/svg" xmlns:xlink="http://www.w3.org/1999/xlink" x="0px" y="0px"
	 viewBox="0 0 300 300" style="enable-background:new 0 0 300 300;" xml:space="preserve">
<path d="M2.8,48.3L2.8,48.3l129.1,223.6c0,0,0,0,0,0l0.3,0.5h0c3.6,6.2,10.2,10.3,17.9,10.3c7.6,0,14.3-4.2,17.9-10.3h0L297,48.8
	l0,0l0.3-0.5l0,0c3.6-6.2,3.8-14,0-20.6c-3.8-6.6-10.7-10.3-17.9-10.3L150,58.6L20.6,17.3c-7.1,0-14,3.7-17.9,10.3
	C-1.1,34.2-0.8,42.1,2.8,48.3z"/>
</svg>
