<?xml version="1.0" encoding="utf-8"?>
<!-- Generator: Adobe Illustrator 26.3.1, SVG Export Plug-In . SVG Version: 6.00 Build 0)  -->
<svg version="1.1" id="Layer_1" xmlns="http://www.w3.org/2000/svg" xmlns:xlink="http://www.w3.org/1999/xlink" x="0px" y="0px"
	 viewBox="0 0 300 300" style="enable-background:new 0 0 300 300;" xml:space="preserve">
<path d="M297.2,251.7L297.2,251.7L168.2,28.1c0,0,0,0,0,0l-0.3-0.5h0c-3.6-6.2-10.2-10.3-17.9-10.3c-7.6,0-14.3,4.2-17.9,10.3h0
	L3,251.2l0,0l-0.3,0.5l0,0c-3.6,6.2-3.8,14,0,20.6c3.8,6.6,10.7,10.3,17.9,10.3L150,241.4l129.4,41.3c7.1,0,14-3.7,17.9-10.3
	C301.1,265.8,300.8,257.9,297.2,251.7z"/>
</svg>
