<?xml version="1.0" encoding="utf-8"?>
<!-- Generator: Adobe Illustrator 24.0.2, SVG Export Plug-In . SVG Version: 6.00 Build 0)  -->
<svg version="1.1" id="레이어_1" xmlns="http://www.w3.org/2000/svg" xmlns:xlink="http://www.w3.org/1999/xlink" x="0px"
	 y="0px" viewBox="0 0 800 1000" style="enable-background:new 0 0 800 1000;" xml:space="preserve">
<style type="text/css">
	.st0{display:none;}
	.st1{display:inline;fill:none;stroke:#575757;stroke-miterlimit:10;}
	.st2{fill:#FFFFFF;}
	.st3{fill:#FFFFFF;stroke:#999999;stroke-width:0.5;stroke-miterlimit:10;}
	.st4{fill:#079CFF;}
	.st5{fill:none;stroke:#575757;stroke-miterlimit:10;}
	.st6{fill:none;stroke:#FFFFFF;stroke-miterlimit:10;}
	.st7{fill:none;stroke:#575757;stroke-linecap:square;stroke-miterlimit:10;}
	.st8{fill:#529CFF;}
	.st9{fill:none;stroke:#529CFF;stroke-miterlimit:10;}
	.st10{fill:none;stroke:#AFAFAF;stroke-miterlimit:10;}
	.st11{fill:#E8E8E8;}
	.st12{fill:none;stroke:#A5A5A5;stroke-miterlimit:10;}
	.st13{fill:none;stroke:#000000;stroke-width:1.5;stroke-miterlimit:10;}
	.st14{fill:none;stroke:#7C7C7C;stroke-width:1.3;stroke-miterlimit:10;}
	.st15{fill:#FFFFFF;stroke:#A5A5A5;stroke-miterlimit:10;}
	.st16{fill:none;stroke:#777777;stroke-miterlimit:10;}
	.st17{fill:#FFFFFF;stroke:#777777;stroke-miterlimit:10;}
	.st18{fill:#C7C7C7;}
	.st19{fill:none;stroke:#000000;stroke-miterlimit:10;}
	.st20{fill:none;stroke:#777777;stroke-width:1.5;stroke-miterlimit:10;}
	.st21{fill:none;stroke:#B2B2B2;stroke-miterlimit:10;}
	.st22{fill:none;stroke:#A8A8A8;stroke-width:1.5;stroke-miterlimit:10;}
	.st23{fill:none;stroke:#000000;stroke-width:1.5;stroke-linecap:round;stroke-miterlimit:10;}
	.st24{fill:none;stroke:#DCDCDC;stroke-width:4;stroke-miterlimit:10;}
	.st25{fill:none;stroke:#DCDCDC;stroke-width:4;stroke-linecap:round;stroke-miterlimit:10;}
	.st26{fill:none;stroke:#000000;stroke-width:1.8;stroke-miterlimit:10;}
	.st27{fill:none;stroke:#000000;stroke-width:1.8;stroke-linecap:round;stroke-miterlimit:10;}
	.st28{fill:#A8A8A8;}
	.st29{fill:#DCDCDC;}
	.st30{fill:none;stroke:#FD7E14;stroke-width:1.5;stroke-miterlimit:10;}
	.st31{fill:url(#SVGID_1_);}
	.st32{fill:url(#SVGID_2_);}
	.st33{opacity:0.2;fill:none;stroke:#FFFFFF;stroke-miterlimit:10;enable-background:new    ;}
	.st34{fill:url(#SVGID_3_);}
	.st35{fill:none;stroke:#000000;stroke-width:2;stroke-miterlimit:10;}
	.st36{fill:#050101;}
	.st37{fill:#040000;}
	.st38{fill:#2D2D2D;}
	.st39{fill:none;stroke:#D7D7D7;stroke-miterlimit:10;}
	.st40{fill:#888888;}
	.st41{fill:#FF893A;}
	.st42{font-family:'NotoSansKR-Medium-KSCpc-EUC-H';}
	.st43{font-size:12.5px;}
	.st44{fill:none;stroke:#E8EBF0;stroke-width:2;stroke-miterlimit:10;}
	.st45{fill:none;stroke:#D8DDE3;stroke-miterlimit:10;}
	.st46{fill:none;stroke:#FFFFFF;stroke-width:2;stroke-miterlimit:10;}
	.st47{font-family:'NotoSansKR-Bold-KSCpc-EUC-H';}
	.st48{font-size:14.0402px;}
	.st49{fill:#D8DDE3;}
	.st50{fill:#CFF09E;}
	.st51{fill:none;stroke:#2D2D2D;stroke-linecap:round;stroke-miterlimit:10;}
	.st52{fill:none;stroke:#2D2D2D;stroke-linecap:round;stroke-linejoin:round;stroke-miterlimit:10;}
	.st53{fill:none;stroke:#000000;stroke-linecap:round;stroke-miterlimit:10;}
	.st54{fill:none;stroke:#507C5C;stroke-miterlimit:10;}
	.st55{fill:none;stroke:#999999;stroke-linecap:square;stroke-miterlimit:10;}
	.st56{fill:#060302;}
	.st57{fill:none;}
	.st58{fill:url(#SVGID_4_);}
	.st59{font-family:'AllianceNo.2-Medium';}
	.st60{font-size:16.5px;}
	.st61{fill:url(#SVGID_5_);}
	.st62{fill:url(#SVGID_6_);}
	.st63{fill:url(#SVGID_7_);}
	.st64{fill:url(#XMLID_3_);}
	.st65{fill:url(#XMLID_4_);}
	.st66{fill:url(#XMLID_9_);}
	.st67{fill:url(#XMLID_10_);}
	.st68{opacity:0.25;fill:#FFFFFF;enable-background:new    ;}
	.st69{fill:url(#SVGID_8_);}
	.st70{fill:url(#SVGID_9_);}
	.st71{fill:url(#SVGID_10_);}
	.st72{fill:#FFFFFF;stroke:#FF893A;stroke-miterlimit:10;}
	.st73{font-family:'SDGyeokdongG205Bd-KSCpc-EUC-H';}
	.st74{font-size:12px;}
	.st75{fill:#FFE248;}
	.st76{fill:#262626;}
	.st77{fill:#FFCC01;}
	.st78{fill:#724C0E;}
	.st79{fill:none;stroke:#4AAB20;stroke-width:1.1;stroke-miterlimit:10;}
	.st80{fill:none;stroke:#545454;stroke-linejoin:round;stroke-miterlimit:10;}
	.st81{fill:none;stroke:#545454;stroke-linecap:round;stroke-linejoin:round;stroke-miterlimit:10;}
	.st82{fill:#FFFFFF;stroke:#545454;stroke-linejoin:round;stroke-miterlimit:10;}
	.st83{fill:#FFFFFF;stroke:#545454;stroke-linecap:round;stroke-linejoin:round;stroke-miterlimit:10;}
	.st84{fill:none;stroke:#FFFFFF;stroke-linejoin:round;stroke-miterlimit:10;}
	.st85{fill:none;stroke:#333333;stroke-width:1.1;stroke-miterlimit:10;}
	.st86{fill:none;stroke:#333333;stroke-width:1.2;stroke-miterlimit:10;}
	.st87{fill:#545454;}
	.st88{fill:#C4C4C4;}
	.st89{fill:#474747;}
	.st90{fill:#383838;}
	.st91{font-family:'AllianceNo.2-Bold';}
	.st92{font-size:9.8343px;}
	.st93{font-size:18.1465px;}
	.st94{display:inline;}
	.st95{display:inline;fill:none;stroke:#000000;stroke-linecap:round;stroke-linejoin:round;stroke-miterlimit:10;}
	.st96{display:inline;fill:#FFE248;stroke:#000000;stroke-linejoin:round;stroke-miterlimit:10;}
	.st97{display:inline;fill:#FFE248;}
	.st98{display:inline;fill:#FFFFFF;}
	.st99{display:inline;fill:#FF3B3B;}
	.st100{display:inline;fill:none;stroke:#000000;stroke-linejoin:round;stroke-miterlimit:10;}
	.st101{display:inline;fill:none;stroke:#FFFFFF;stroke-linecap:round;stroke-linejoin:round;stroke-miterlimit:10;}
	.st102{display:inline;fill:#FF0000;}
	.st103{font-family:'SDGothicNeob-dMd-KSCpc-EUC-H';}
	.st104{clip-path:url(#SVGID_12_);}
	.st105{stroke:#000000;stroke-miterlimit:10;}
	.st106{fill:#F73723;stroke:#282828;stroke-linejoin:round;stroke-miterlimit:10;}
	.st107{fill:#FFFFFF;stroke:#000000;stroke-linejoin:round;stroke-miterlimit:10;}
	.st108{fill:#EFD2A3;stroke:#282828;stroke-linejoin:round;stroke-miterlimit:10;}
	.st109{fill:none;stroke:#FFFFFF;stroke-linecap:round;stroke-linejoin:round;stroke-miterlimit:10;}
	.st110{opacity:0.8;fill:#FFFFFF;enable-background:new    ;}
	.st111{opacity:0.5;fill:#FFFFFF;enable-background:new    ;}
	.st112{fill:#FF0000;}
	.st113{font-family:'SDGothicNeob-eSm-KSCpc-EUC-H';}
	.st114{clip-path:url(#SVGID_14_);}
	.st115{fill:#23B40B;stroke:#282828;stroke-linejoin:round;stroke-miterlimit:10;}
	.st116{fill:#A4EAB9;stroke:#282828;stroke-linejoin:round;stroke-miterlimit:10;}
	.st117{fill:#A6E555;}
	.st118{clip-path:url(#SVGID_16_);}
	.st119{display:inline;fill:#68F94E;}
	.st120{clip-path:url(#SVGID_18_);}
	
		.st121{display:inline;fill:none;stroke:#020202;stroke-width:1.5;stroke-linecap:round;stroke-linejoin:round;stroke-miterlimit:10;}
	.st122{display:inline;fill:none;stroke:#020202;stroke-width:1.5;stroke-linecap:round;stroke-miterlimit:10;}
</style>
<g id="bg_1_">
</g>
<g id="area" class="st0">
	
		<image style="display:inline;overflow:visible;opacity:0.4;enable-background:new    ;" width="20" height="20" xlink:href="FF143F13.jpg"  transform="matrix(1.25 0 0 1.25 0 35)">
	</image>
	
		<image style="display:inline;overflow:visible;opacity:0.4;enable-background:new    ;" width="20" height="20" xlink:href="FF143F10.jpg"  transform="matrix(1.25 0 0 1.25 50 35)">
	</image>
	
		<image style="display:inline;overflow:visible;opacity:0.4;enable-background:new    ;" width="20" height="20" xlink:href="FF143F11.jpg"  transform="matrix(6 0 0 6 40 60)">
	</image>
	
		<image style="display:inline;overflow:visible;opacity:0.2;enable-background:new    ;" width="19" height="21" xlink:href="FF143F12.jpg"  transform="matrix(4.6442 0 0 4.9438 194.3801 82.5898)">
	</image>
	
		<image style="display:inline;overflow:visible;opacity:0.3;enable-background:new    ;" width="20" height="20" xlink:href="FF143EEB.jpg"  transform="matrix(1.6 0 0 1.6 160 85)">
	</image>
	
		<image style="display:inline;overflow:visible;opacity:0.3;enable-background:new    ;" width="20" height="20" xlink:href="FF143EEC.jpg"  transform="matrix(1.5 0 0 1.5 160 200)">
	</image>
	
		<image style="display:inline;overflow:visible;opacity:0.3;enable-background:new    ;" width="20" height="20" xlink:href="FF143EED.jpg"  transform="matrix(1.5 0 0 1.5 200 200)">
	</image>
	
		<image style="display:inline;overflow:visible;opacity:0.3;enable-background:new    ;" width="20" height="20" xlink:href="FF143EEE.jpg"  transform="matrix(1.5 0 0 1.5 241 200)">
	</image>
	
		<image style="display:inline;overflow:visible;opacity:0.3;enable-background:new    ;" width="20" height="20" xlink:href="FF143EEF.jpg"  transform="matrix(2 0 0 2 40 260)">
	</image>
	
		<image style="display:inline;overflow:visible;opacity:0.3;enable-background:new    ;" width="20" height="20" xlink:href="DDED3493.jpg"  transform="matrix(1.5 0 0 1.5 280 200)">
	</image>
	
		<image style="display:inline;overflow:visible;opacity:0.4;enable-background:new    ;" width="20" height="20" xlink:href="DDED3494.jpg"  transform="matrix(1.25 0 0 1.25 100 35)">
	</image>
	
		<image style="display:inline;overflow:visible;opacity:0.5;enable-background:new    ;" width="20" height="20" xlink:href="DDED3495.jpg"  transform="matrix(1.25 0 0 1.25 25 35)">
	</image>
	
		<image style="display:inline;overflow:visible;opacity:0.5;enable-background:new    ;" width="20" height="20" xlink:href="DDED3496.jpg"  transform="matrix(2 0 0 2 0 60)">
	</image>
	
		<image style="display:inline;overflow:visible;opacity:0.4;enable-background:new    ;" width="20" height="20" xlink:href="DDED3497.jpg"  transform="matrix(1.25 0 0 1.25 360 35)">
	</image>
	
		<image style="display:inline;overflow:visible;opacity:0.4;enable-background:new    ;" width="20" height="20" xlink:href="DDED3498.jpg"  transform="matrix(1.25 0 0 1.25 260 35)">
	</image>
	
		<image style="display:inline;overflow:visible;opacity:0.4;enable-background:new    ;" width="20" height="20" xlink:href="DDED3499.jpg"  transform="matrix(1.25 0 0 1.25 160 35)">
	</image>
	
		<image style="display:inline;overflow:visible;opacity:0.4;enable-background:new    ;" width="20" height="20" xlink:href="DDED349A.jpg"  transform="matrix(1.25 0 0 1.25 185 60)">
	</image>
	
		<image style="display:inline;overflow:visible;opacity:0.4;enable-background:new    ;" width="20" height="20" xlink:href="DDED349B.jpg"  transform="matrix(1.25 0 0 1.25 235 60)">
	</image>
	
		<image style="display:inline;overflow:visible;opacity:0.4;enable-background:new    ;" width="20" height="20" xlink:href="DDED349C.jpg"  transform="matrix(1.25 0 0 1.25 310 35)">
	</image>
	
		<image style="display:inline;overflow:visible;opacity:0.4;enable-background:new    ;" width="20" height="20" xlink:href="DDED34B8.jpg"  transform="matrix(1.25 0 0 1.25 285 60)">
	</image>
	
		<image style="display:inline;overflow:visible;opacity:0.4;enable-background:new    ;" width="20" height="20" xlink:href="DDED34B9.jpg"  transform="matrix(1.25 0 0 1.25 410 35)">
	</image>
	
		<image style="display:inline;overflow:visible;opacity:0.4;enable-background:new    ;" width="20" height="21" xlink:href="DDED34BA.jpg"  transform="matrix(1.7068 0 0 1.7068 385.4319 64.5785)">
	</image>
	
		<image style="display:inline;overflow:visible;opacity:0.4;enable-background:new    ;" width="20" height="20" xlink:href="DDED34BB.jpg"  transform="matrix(0.9 0 0 0.9 472 140)">
	</image>
	
		<image style="display:inline;overflow:visible;opacity:0.4;enable-background:new    ;" width="20" height="7" xlink:href="DDED34BC.jpg"  transform="matrix(3.337 0 0 1.2013 601.6296 144.7953)">
	</image>
	
		<image style="display:inline;overflow:visible;opacity:0.4;enable-background:new    ;" width="20" height="7" xlink:href="DDED34BD.jpg"  transform="matrix(3.337 0 0 1.2013 601.6296 174.7953)">
	</image>
	
		<image style="display:inline;overflow:visible;opacity:0.4;enable-background:new    ;" width="20" height="20" xlink:href="DDED34BE.jpg"  transform="matrix(0.9 0 0 0.9 472 160)">
	</image>
	
		<image style="display:inline;overflow:visible;opacity:0.4;enable-background:new    ;" width="20" height="20" xlink:href="DDED34BF.jpg"  transform="matrix(0.9 0 0 0.9 472 180)">
	</image>
	
		<image style="display:inline;overflow:visible;opacity:0.4;enable-background:new    ;" width="20" height="19" xlink:href="DDED34C0.jpg"  transform="matrix(1.743 0 0 1.6405 455.5698 226.4154)">
	</image>
	
		<image style="display:inline;overflow:visible;opacity:0.4;enable-background:new    ;" width="20" height="20" xlink:href="DDED34C1.jpg"  transform="matrix(0.9 0 0 0.9 442 180)">
	</image>
	
		<image style="display:inline;overflow:visible;opacity:0.4;enable-background:new    ;" width="20" height="20" xlink:href="DDED34DD.jpg"  transform="matrix(3 0 0 3 430 70)">
	</image>
	
		<image style="display:inline;overflow:visible;opacity:0.4;enable-background:new    ;" width="20" height="20" xlink:href="DDED34DE.jpg"  transform="matrix(2.3 0 0 2.3 500 70)">
	</image>
	
		<image style="display:inline;overflow:visible;opacity:0.4;enable-background:new    ;" width="20" height="20" xlink:href="DDED34DF.jpg"  transform="matrix(2.3 0 0 2.3 556 70)">
	</image>
	
		<image style="display:inline;overflow:visible;opacity:0.4;enable-background:new    ;" width="20" height="20" xlink:href="DDED34E0.jpg"  transform="matrix(2.3 0 0 2.3 556 170)">
	</image>
	
		<image style="display:inline;overflow:visible;opacity:0.4;enable-background:new    ;" width="20" height="5" xlink:href="DDED34E1.jpg"  transform="matrix(5.488 0 0 1.372 545.1204 266.57)">
	</image>
	
		<image style="display:inline;overflow:visible;opacity:0.4;enable-background:new    ;" width="20" height="5" xlink:href="DDED34E2.jpg"  transform="matrix(5.488 0 0 1.372 545.1204 299.57)">
	</image>
	
		<image style="display:inline;overflow:visible;opacity:0.4;enable-background:new    ;" width="20" height="20" xlink:href="DDED34E3.jpg"  transform="matrix(1 0 0 1 660 260)">
	</image>
	
		<image style="display:inline;overflow:visible;opacity:0.4;enable-background:new    ;" width="20" height="20" xlink:href="DDED34E4.jpg"  transform="matrix(2.3 0 0 2.3 504 170)">
	</image>
	
		<image style="display:inline;overflow:visible;opacity:0.4;enable-background:new    ;" width="21" height="20" xlink:href="DDED34E5.jpg"  transform="matrix(1.9506 0 0 1.9506 -0.4817 260.4936)">
	</image>
	
		<image style="display:inline;overflow:visible;opacity:0.3;enable-background:new    ;" width="20" height="20" xlink:href="DDED34E6.jpg"  transform="matrix(2 0 0 2 120 260)">
	</image>
	
		<image style="display:inline;overflow:visible;opacity:0.3;enable-background:new    ;" width="20" height="20" xlink:href="DDED3502.jpg"  transform="matrix(2 0 0 2 200 260)">
	</image>
	
		<image style="display:inline;overflow:visible;opacity:0.4;enable-background:new    ;" width="21" height="20" xlink:href="DDED3503.jpg"  transform="matrix(1.9506 0 0 1.9506 79.5183 260.4936)">
	</image>
	
		<image style="display:inline;overflow:visible;opacity:0.4;enable-background:new    ;" width="21" height="20" xlink:href="DDED3504.jpg"  transform="matrix(1.9506 0 0 1.9506 159.5183 260.4936)">
	</image>
	
		<image style="display:inline;overflow:visible;opacity:0.4;enable-background:new    ;" width="21" height="20" xlink:href="DDED3505.jpg"  transform="matrix(1.9506 0 0 1.9506 239.5183 260.4936)">
	</image>
	
		<image style="display:inline;overflow:visible;opacity:0.4;enable-background:new    ;" width="21" height="20" xlink:href="DDED3506.jpg"  transform="matrix(1.9506 0 0 1.9506 239.5183 340.4936)">
	</image>
	
		<image style="display:inline;overflow:visible;opacity:0.4;enable-background:new    ;" width="20" height="20" xlink:href="DDED3507.jpg"  transform="matrix(2 0 0 2 40 300)">
	</image>
	
		<image style="display:inline;overflow:visible;opacity:0.3;enable-background:new    ;" width="21" height="20" xlink:href="DDED3508.jpg"  transform="matrix(1.9506 0 0 1.9506 -0.4817 300.4936)">
	</image>
	
		<image style="display:inline;overflow:visible;opacity:0.4;enable-background:new    ;" width="20" height="20" xlink:href="DDED3509.jpg"  transform="matrix(2 0 0 2 120 300)">
	</image>
	
		<image style="display:inline;overflow:visible;opacity:0.3;enable-background:new    ;" width="20" height="20" xlink:href="DDED350A.jpg"  transform="matrix(2 0 0 2 120 340)">
	</image>
	
		<image style="display:inline;overflow:visible;opacity:0.4;enable-background:new    ;" width="20" height="20" xlink:href="DDED350B.jpg"  transform="matrix(2 0 0 2 200 300)">
	</image>
	
		<image style="display:inline;overflow:visible;opacity:0.3;enable-background:new    ;" width="21" height="20" xlink:href="DDED3527.jpg"  transform="matrix(1.9506 0 0 1.9506 79.5183 300.4936)">
	</image>
	
		<image style="display:inline;overflow:visible;opacity:0.3;enable-background:new    ;" width="21" height="20" xlink:href="DDED3528.jpg"  transform="matrix(1.9506 0 0 1.9506 159.5183 300.4936)">
	</image>
	
		<image style="display:inline;overflow:visible;opacity:0.3;enable-background:new    ;" width="21" height="20" xlink:href="DDED3529.jpg"  transform="matrix(1.9506 0 0 1.9506 239.5183 300.4936)">
	</image>
	
		<image style="display:inline;overflow:visible;opacity:0.4;enable-background:new    ;" width="20" height="20" xlink:href="DDED352A.jpg"  transform="matrix(2.5 0 0 2.5 610 70)">
	</image>
	
		<image style="display:inline;overflow:visible;opacity:0.5;enable-background:new    ;" width="20" height="20" xlink:href="DDED352B.jpg"  transform="matrix(1.25 0 0 1.25 235 35)">
	</image>
	
		<image style="display:inline;overflow:visible;opacity:0.4;enable-background:new    ;" width="20" height="20" xlink:href="DDED352C.jpg"  transform="matrix(1.25 0 0 1.25 210 35)">
	</image>
	
		<image style="display:inline;overflow:visible;opacity:0.5;enable-background:new    ;" width="20" height="20" xlink:href="DDED352D.jpg"  transform="matrix(1.25 0 0 1.25 185 35)">
	</image>
	
		<image style="display:inline;overflow:visible;opacity:0.5;enable-background:new    ;" width="20" height="20" xlink:href="DDED3526.jpg"  transform="matrix(1.25 0 0 1.25 488 35)">
	</image>
	
		<image style="display:inline;overflow:visible;opacity:0.5;enable-background:new    ;" width="20" height="20" xlink:href="DDED3525.jpg"  transform="matrix(1.25 0 0 1.25 160 60)">
	</image>
	
		<image style="display:inline;overflow:visible;opacity:0.5;enable-background:new    ;" width="20" height="20" xlink:href="DDED3531.jpg"  transform="matrix(1.25 0 0 1.25 285 35)">
	</image>
	
		<image style="display:inline;overflow:visible;opacity:0.5;enable-background:new    ;" width="20" height="17" xlink:href="DDED3548.jpg"  transform="matrix(1.6163 0 0 1.3469 283.8368 86.0511)">
	</image>
	
		<image style="display:inline;overflow:visible;opacity:0.5;enable-background:new    ;" width="20" height="17" xlink:href="DDED3549.jpg"  transform="matrix(1.6163 0 0 1.3469 283.8368 241.0511)">
	</image>
	
		<image style="display:inline;overflow:visible;opacity:0.4;enable-background:new    ;" width="20" height="17" xlink:href="DDED354A.jpg"  transform="matrix(1.6163 0 0 1.3469 313.8368 86.0511)">
	</image>
	
		<image style="display:inline;overflow:visible;opacity:0.5;enable-background:new    ;" width="20" height="17" xlink:href="DDED354B.jpg"  transform="matrix(1.6163 0 0 1.3469 283.8368 115.0511)">
	</image>
	
		<image style="display:inline;overflow:visible;opacity:0.4;enable-background:new    ;" width="20" height="17" xlink:href="DDED3556.jpg"  transform="matrix(1.6163 0 0 1.3469 313.8368 115.0511)">
	</image>
	
		<image style="display:inline;overflow:visible;opacity:0.5;enable-background:new    ;" width="20" height="29" xlink:href="DDED3557.jpg"  transform="matrix(1.2043 0 0 1.7664 322.9566 246.3876)">
	</image>
	
		<image style="display:inline;overflow:visible;opacity:0.4;enable-background:new    ;" width="20" height="29" xlink:href="DDED355A.jpg"  transform="matrix(1.2043 0 0 1.7664 372.9566 246.3876)">
	</image>
	
		<image style="display:inline;overflow:visible;opacity:0.5;enable-background:new    ;" width="20" height="17" xlink:href="DDED355B.jpg"  transform="matrix(1.6163 0 0 1.3469 318.8368 311.0511)">
	</image>
	
		<image style="display:inline;overflow:visible;opacity:0.4;enable-background:new    ;" width="20" height="17" xlink:href="DDED355C.jpg"  transform="matrix(1.6163 0 0 1.3469 368.8368 311.0511)">
	</image>
	
		<image style="display:inline;overflow:visible;opacity:0.5;enable-background:new    ;" width="20" height="17" xlink:href="DDED355D.jpg"  transform="matrix(1.6163 0 0 1.3469 283.8368 151.0511)">
	</image>
	
		<image style="display:inline;overflow:visible;opacity:0.4;enable-background:new    ;" width="20" height="17" xlink:href="DDED3570.jpg"  transform="matrix(1.6163 0 0 1.3469 313.8368 151.0511)">
	</image>
	
		<image style="display:inline;overflow:visible;opacity:0.4;enable-background:new    ;" width="20" height="17" xlink:href="DDED357B.jpg"  transform="matrix(1.6163 0 0 1.3469 283.8368 176.0511)">
	</image>
	
		<image style="display:inline;overflow:visible;opacity:0.5;enable-background:new    ;" width="20" height="17" xlink:href="DDED357F.jpg"  transform="matrix(1.6163 0 0 1.3469 313.8368 176.0511)">
	</image>
	
		<image style="display:inline;overflow:visible;opacity:0.4;enable-background:new    ;" width="20" height="17" xlink:href="DDED357C.jpg"  transform="matrix(1.6163 0 0 1.3469 373.8368 151.0511)">
	</image>
	
		<image style="display:inline;overflow:visible;opacity:0.5;enable-background:new    ;" width="20" height="17" xlink:href="DDED357D.jpg"  transform="matrix(1.6163 0 0 1.3469 343.8368 151.0511)">
	</image>
	
		<image style="display:inline;overflow:visible;opacity:0.5;enable-background:new    ;" width="20" height="20" xlink:href="DDED357E.jpg"  transform="matrix(1.25 0 0 1.25 310 60)">
	</image>
	
		<image style="display:inline;overflow:visible;opacity:0.5;enable-background:new    ;" width="20" height="20" xlink:href="DDED3567.jpg"  transform="matrix(1.25 0 0 1.25 335 35)">
	</image>
	
		<image style="display:inline;overflow:visible;opacity:0.5;enable-background:new    ;" width="20" height="20" xlink:href="DDED3568.jpg"  transform="matrix(1.25 0 0 1.25 385 35)">
	</image>
	
		<image style="display:inline;overflow:visible;opacity:0.5;enable-background:new    ;" width="20" height="20" xlink:href="DDED3569.jpg"  transform="matrix(1.25 0 0 1.25 385 100)">
	</image>
	
		<image style="display:inline;overflow:visible;opacity:0.5;enable-background:new    ;" width="20" height="20" xlink:href="DDED356A.jpg"  transform="matrix(1.25 0 0 1.25 435 35)">
	</image>
	
		<image style="display:inline;overflow:visible;opacity:0.5;enable-background:new    ;" width="20" height="20" xlink:href="DDED3594.jpg"  transform="matrix(1.25 0 0 1.25 75 35)">
	</image>
	<path class="st1" d="M89.5,44.5"/>
	
		<image style="display:inline;overflow:visible;opacity:0.4;enable-background:new    ;" width="21" height="20" xlink:href="DDED3595.jpg"  transform="matrix(2.7309 0 0 2.7309 59.3256 200.691)">
	</image>
	
		<image style="display:inline;overflow:visible;opacity:0.5;enable-background:new    ;" width="21" height="20" xlink:href="DDED359D.jpg"  transform="matrix(2.7309 0 0 2.7309 -0.6744 200.691)">
	</image>
</g>
<g id="artwork">
	<rect x="610" y="70" class="st2" width="50" height="50"/>
	<circle class="st3" cx="460.5" cy="100.5" r="21.5"/>
	<g id="레이어_1_1_">
	</g>
	<g id="bg" class="st0">
		<path class="st1" d="M89.5,44.5"/>
		<path class="st1" d="M89.5,69.5"/>
	</g>
	<g>
		<g>
			<rect x="291" y="67" class="st4" width="4" height="1"/>
			<rect x="298" y="67" class="st4" width="5" height="1"/>
			<rect x="291" y="71" class="st4" width="7" height="1"/>
			<rect x="301" y="71" class="st4" width="2" height="1"/>
			<rect x="291" y="75" class="st4" width="2" height="1"/>
			<rect x="296" y="75" class="st4" width="7" height="1"/>
			<polygon class="st4" points="297.5,68.5 295.5,68.5 295.5,68 295,68 295,69 298,69 298,68 297.5,68 			"/>
			<polygon class="st4" points="295.5,66.5 297.5,66.5 297.5,67 298,67 298,66 295,66 295,67 295.5,67 			"/>
			<rect x="297.5" y="67" class="st4" width="0.5" height="1"/>
			<rect x="295" y="67" class="st4" width="0.5" height="1"/>
			<polygon class="st4" points="296,68 295.5,68 295.5,68.5 297.5,68.5 297.5,68 297,68 			"/>
			<polygon class="st4" points="295.5,66.5 295.5,67 296,67 297,67 297.5,67 297.5,66.5 			"/>
			<rect x="295.5" y="67" class="st4" width="0.5" height="1"/>
			<rect x="297" y="67" class="st4" width="0.5" height="1"/>
			<polygon class="st4" points="300.5,72.5 298.5,72.5 298.5,72 298,72 298,73 301,73 301,72 300.5,72 			"/>
			<polygon class="st4" points="298.5,70.5 300.5,70.5 300.5,71 301,71 301,70 298,70 298,71 298.5,71 			"/>
			<rect x="298" y="71" class="st4" width="0.5" height="1"/>
			<rect x="300.5" y="71" class="st4" width="0.5" height="1"/>
			<polygon class="st4" points="298.5,70.5 298.5,71 299,71 300,71 300.5,71 300.5,70.5 			"/>
			<polygon class="st4" points="299,72 298.5,72 298.5,72.5 300.5,72.5 300.5,72 300,72 			"/>
			<rect x="298.5" y="71" class="st4" width="0.5" height="1"/>
			<rect x="300" y="71" class="st4" width="0.5" height="1"/>
			<polygon class="st4" points="293.5,74.5 295.5,74.5 295.5,75 296,75 296,74 293,74 293,75 293.5,75 			"/>
			<polygon class="st4" points="295.5,76.5 293.5,76.5 293.5,76 293,76 293,77 296,77 296,76 295.5,76 			"/>
			<rect x="295.5" y="75" class="st4" width="0.5" height="1"/>
			<rect x="293" y="75" class="st4" width="0.5" height="1"/>
			<polygon class="st4" points="293.5,74.5 293.5,75 294,75 295,75 295.5,75 295.5,74.5 			"/>
			<polygon class="st4" points="294,76 293.5,76 293.5,76.5 295.5,76.5 295.5,76 295,76 			"/>
			<rect x="295" y="75" class="st4" width="0.5" height="1"/>
			<rect x="293.5" y="75" class="st4" width="0.5" height="1"/>
		</g>
	</g>
	<g>
		<line class="st5" x1="38.5" y1="44.5" x2="43" y2="40"/>
		<polyline class="st5" points="41,39.5 43.5,39.5 43.5,42 		"/>
	</g>
	<line class="st6" x1="8" y1="44.5" x2="15" y2="44.5"/>
	<line class="st6" x1="8" y1="47.5" x2="15" y2="47.5"/>
	<line class="st6" x1="8" y1="50.5" x2="11.5" y2="50.5"/>
	<polyline class="st6" points="13.5,52.5 16.5,55.5 19.5,51.5 	"/>
	<polyline class="st6" points="12,54.5 5.5,54.5 5.5,40.5 17.5,40.5 17.5,49 	"/>
	<polyline class="st7" points="37.5,41.5 30.5,41.5 30.5,53.5 42.5,53.5 42.5,45.5 	"/>
	<rect x="56.5" y="48.5" class="st6" width="2" height="5"/>
	<rect x="60.5" y="44.5" class="st6" width="2" height="9"/>
	<rect x="64.5" y="40.5" class="st6" width="2" height="13"/>
	<g>
		<path class="st2" d="M93,45v8H82v-8H93 M94,44H81v10h13V44L94,44z"/>
	</g>
	<g>
		<path class="st2" d="M88,48v2h-1v-2H88 M89,47h-3v4h3V47L89,47z"/>
	</g>
	<g>
		<path class="st8" d="M118,45v8h-11v-8H118 M119,44h-13v10h13V44L119,44z"/>
	</g>
	<g>
		<path class="st8" d="M113,48v2h-1v-2H113 M114,47h-3v4h3V47L114,47z"/>
	</g>
	<polyline class="st9" points="115.5,44.5 115.5,40.5 109.5,40.5 109.5,42 	"/>
	<polyline class="st6" points="84.5,44 84.5,40.5 90.5,40.5 90.5,44.5 	"/>
	<polyline class="st10" points="252.5,42 252.5,53.5 242.5,53.5 242.5,42 	"/>
	<rect x="240" y="65" class="st11" width="15" height="15"/>
	<line class="st12" x1="303" y1="42.5" x2="291" y2="42.5"/>
	<line class="st12" x1="303" y1="46.5" x2="291" y2="46.5"/>
	<line class="st12" x1="303" y1="50.5" x2="291" y2="50.5"/>
	<rect x="265" y="39" class="st4" width="17" height="17"/>
	<polyline class="st13" points="202.2,39 194,47.2 202.2,56 	"/>
	<polyline class="st14" points="498.5,53 503.8,47.7 498.5,42 	"/>
	<rect x="295.5" y="41.5" class="st15" width="2" height="2"/>
	<rect x="298.5" y="45.5" class="st15" width="2" height="2"/>
	<rect x="293.5" y="49.5" class="st15" width="2" height="2"/>
	<line class="st16" x1="328" y1="42.5" x2="316" y2="42.5"/>
	<line class="st16" x1="328" y1="46.5" x2="316" y2="46.5"/>
	<line class="st16" x1="328" y1="50.5" x2="316" y2="50.5"/>
	<rect x="320.5" y="41.5" class="st17" width="2" height="2"/>
	<rect x="323.5" y="45.5" class="st17" width="2" height="2"/>
	<rect x="318.5" y="49.5" class="st17" width="2" height="2"/>
	<g>
		<rect x="316" y="67" class="st2" width="4" height="1"/>
		<rect x="323" y="67" class="st2" width="5" height="1"/>
		<rect x="316" y="71" class="st2" width="7" height="1"/>
		<rect x="326" y="71" class="st2" width="2" height="1"/>
		<rect x="316" y="75" class="st2" width="2" height="1"/>
		<rect x="321" y="75" class="st2" width="7" height="1"/>
		<polygon class="st2" points="322.5,68.5 320.5,68.5 320.5,68 320,68 320,69 323,69 323,68 322.5,68 		"/>
		<polygon class="st2" points="320.5,66.5 322.5,66.5 322.5,67 323,67 323,66 320,66 320,67 320.5,67 		"/>
		<rect x="322.5" y="67" class="st2" width="0.5" height="1"/>
		<rect x="320" y="67" class="st2" width="0.5" height="1"/>
		<polygon class="st2" points="321,68 320.5,68 320.5,68.5 322.5,68.5 322.5,68 322,68 		"/>
		<polygon class="st2" points="320.5,66.5 320.5,67 321,67 322,67 322.5,67 322.5,66.5 		"/>
		<rect x="320.5" y="67" class="st2" width="0.5" height="1"/>
		<rect x="322" y="67" class="st2" width="0.5" height="1"/>
		<polygon class="st2" points="325.5,72.5 323.5,72.5 323.5,72 323,72 323,73 326,73 326,72 325.5,72 		"/>
		<polygon class="st2" points="323.5,70.5 325.5,70.5 325.5,71 326,71 326,70 323,70 323,71 323.5,71 		"/>
		<rect x="323" y="71" class="st2" width="0.5" height="1"/>
		<rect x="325.5" y="71" class="st2" width="0.5" height="1"/>
		<polygon class="st2" points="323.5,70.5 323.5,71 324,71 325,71 325.5,71 325.5,70.5 		"/>
		<polygon class="st2" points="324,72 323.5,72 323.5,72.5 325.5,72.5 325.5,72 325,72 		"/>
		<rect x="323.5" y="71" class="st2" width="0.5" height="1"/>
		<rect x="325" y="71" class="st2" width="0.5" height="1"/>
		<polygon class="st2" points="318.5,74.5 320.5,74.5 320.5,75 321,75 321,74 318,74 318,75 318.5,75 		"/>
		<polygon class="st2" points="320.5,76.5 318.5,76.5 318.5,76 318,76 318,77 321,77 321,76 320.5,76 		"/>
		<rect x="320.5" y="75" class="st2" width="0.5" height="1"/>
		<rect x="318" y="75" class="st2" width="0.5" height="1"/>
		<polygon class="st2" points="318.5,74.5 318.5,75 319,75 320,75 320.5,75 320.5,74.5 		"/>
		<polygon class="st2" points="319,76 318.5,76 318.5,76.5 320.5,76.5 320.5,76 320,76 		"/>
		<rect x="320" y="75" class="st2" width="0.5" height="1"/>
		<rect x="318.5" y="75" class="st2" width="0.5" height="1"/>
	</g>
	<circle class="st18" cx="348" cy="47" r="8"/>
	<g>
		<line class="st6" x1="344.8" y1="50.2" x2="351.2" y2="43.8"/>
	</g>
	<g>
		<line class="st6" x1="344.8" y1="43.8" x2="351.2" y2="50.2"/>
	</g>
	<g>
		<line class="st19" x1="217" y1="52" x2="227" y2="42"/>
	</g>
	<g>
		<line class="st19" x1="217" y1="42" x2="227" y2="52"/>
	</g>
	<g>
		<line class="st16" x1="441.5" y1="53.5" x2="454.5" y2="40.5"/>
	</g>
	<g>
		<line class="st16" x1="441.5" y1="40.5" x2="454.5" y2="53.5"/>
	</g>
	<path class="st19" d="M178.6,69.9c0.2,0.7,0.4,1.4,0.4,2.1c0,3.3-2.7,6-6,6c-1.7,0-3.2-0.7-4.3-1.8"/>
	<path class="st19" d="M167.2,73.6c-0.1-0.5-0.2-1-0.2-1.6c0-3.3,2.7-6,6-6c1.1,0,2.1,0.3,3,0.8c0.5,0.3,1,0.7,1.4,1.2"/>
	<polygon points="167.8,75 167.8,78 170.8,75 	"/>
	<polygon points="178.2,69 178.2,66 175.2,69 	"/>
	<rect x="472" y="44" class="st2" width="1" height="6.2"/>
	
		<rect x="471.7" y="48.5" transform="matrix(0.7071 -0.7071 0.7071 0.7071 104.2155 349.5334)" class="st2" width="4.7" height="1"/>
	
		<rect x="470.5" y="46.7" transform="matrix(0.7071 -0.7071 0.7071 0.7071 103.2868 347.4327)" class="st2" width="1" height="4.7"/>
	<circle class="st6" cx="472.5" cy="47.5" r="6.5"/>
	<polyline class="st20" points="295,95 300,100 305,95 	"/>
	<circle class="st21" cx="173.5" cy="47.5" r="6.5"/>
	<circle class="st22" cx="20" cy="80" r="16"/>
	<circle class="st13" cx="396.5" cy="45.5" r="5.5"/>
	<polyline class="st21" points="173.5,44 173.5,48 176.5,50 	"/>
	<line class="st23" x1="401" y1="50" x2="406" y2="55"/>
	<circle class="st24" cx="96.2" cy="112.2" r="31.2"/>
	<line class="st25" x1="119.8" y1="135.8" x2="142" y2="158"/>
	<circle class="st26" cx="421.5" cy="45.5" r="5.5"/>
	<line class="st27" x1="426" y1="50" x2="430" y2="54"/>
	<line class="st22" x1="20" y1="76.7" x2="20" y2="87"/>
	<circle class="st28" cx="20" cy="73.5" r="1.3"/>
	<circle class="st29" cx="85" cy="112" r="3"/>
	<circle class="st29" cx="96" cy="112" r="3"/>
	<circle class="st29" cx="107" cy="112" r="3"/>
	<line class="st10" x1="241" y1="42.5" x2="254" y2="42.5"/>
	<polyline class="st10" points="244.5,42.5 244.5,40.5 250.5,40.5 250.5,42.5 	"/>
	<line class="st10" x1="245.5" y1="46" x2="245.5" y2="50.5"/>
	<line class="st10" x1="247.5" y1="44.5" x2="247.5" y2="51.5"/>
	<line class="st10" x1="249.5" y1="46" x2="249.5" y2="50.5"/>
	<polyline class="st6" points="203.5,70.5 203.5,78.5 191.5,78.5 191.5,71 	"/>
	<rect x="190.5" y="67.5" class="st6" width="14" height="3"/>
	<polygon class="st6" points="196.5,78.5 196.5,67.6 198.4,67.6 198.5,78.5 	"/>
	<rect x="289.5" y="87.5" class="st12" width="21" height="20"/>
	<polyline class="st20" points="297,252 300,255 305,250 	"/>
	<polyline class="st30" points="325,95 330,100 335,95 	"/>
	<rect x="319.5" y="87.5" class="st12" width="21" height="20"/>
	<polyline class="st20" points="305,129 300,124 295,129 	"/>
	<rect x="289.5" y="116.5" class="st12" width="21" height="20"/>
	<polyline class="st30" points="335,129 330,124 325,129 	"/>
	<rect x="319.5" y="116.5" class="st12" width="21" height="20"/>
	<path class="st6" d="M197.5,67.3c0,0-5-1.9-3-2.9S197.5,67.3,197.5,67.3z"/>
	<path class="st6" d="M197.6,67.3c0,0,5-1.9,3-2.9S197.6,67.3,197.6,67.3z"/>
	<g>
		<g>
			<g>
				<path d="M183.2,90.5l2.8,2.3c0.2,0.2,0.4,0.2,0.7,0.2s0.6-0.1,0.8-0.4c0.4-0.4,0.3-1.1-0.1-1.4l-2.8-2.3
					c-0.4-0.4-1.1-0.3-1.4,0.1C182.7,89.5,182.8,90.1,183.2,90.5z"/>
				<path d="M166,93c0.2,0,0.5-0.1,0.7-0.2l2.8-2.3c0.4-0.4,0.5-1,0.1-1.4s-1-0.5-1.4-0.1l-2.8,2.3c-0.4,0.4-0.5,1-0.1,1.4
					C165.4,92.9,165.7,93,166,93z"/>
				<path d="M184.8,93.5c-2-2-4.6-3.2-7.5-3.5v-1c0-0.6-0.5-1-1-1s-1,0.5-1,1v1.1c-2.8,0.2-5.4,1.4-7.5,3.5
					c-2.3,2.3-3.5,5.3-3.5,8.5s1.2,6.2,3.5,8.5s5.3,3.5,8.5,3.5c2.6,0,5-0.8,7.1-2.3c0.5-0.3,0.5-1,0.2-1.4c-0.3-0.5-1-0.5-1.4-0.2
					c-1.7,1.3-3.8,1.9-5.9,1.9c-5.5,0-10-4.5-10-10s4.5-10,10-10s10,4.5,10,10c0,1.7-0.4,3.3-1.2,4.8c-0.3,0.5-0.1,1.1,0.4,1.4
					s1.1,0.1,1.4-0.4c1-1.8,1.5-3.8,1.5-5.8C188.3,98.8,187,95.8,184.8,93.5z"/>
				<path d="M181.3,95.9c-0.4-0.4-1.1-0.3-1.4,0.2l-3.2,4c-0.1,0-0.2,0-0.3,0c-1.1,0-2,0.9-2,2s0.9,2,2,2s2-0.9,2-2
					c0-0.3,0-0.5-0.1-0.7l3.2-4C181.8,96.9,181.7,96.3,181.3,95.9z"/>
			</g>
		</g>
	</g>
	
		<linearGradient id="SVGID_1_" gradientUnits="userSpaceOnUse" x1="240" y1="863.89" x2="240" y2="909.5786" gradientTransform="matrix(1 0 0 -1 0 997.89)">
		<stop  offset="0" style="stop-color:#333333"/>
		<stop  offset="1" style="stop-color:#020202"/>
	</linearGradient>
	<rect x="200" y="90" class="st31" width="80" height="44"/>
	
		<linearGradient id="SVGID_2_" gradientUnits="userSpaceOnUse" x1="240" y1="819.89" x2="240" y2="863.89" gradientTransform="matrix(1 0 0 -1 0 997.89)">
		<stop  offset="0" style="stop-color:#232323"/>
		<stop  offset="1" style="stop-color:#454545"/>
	</linearGradient>
	<rect x="200" y="134" class="st32" width="80" height="44"/>
	<line class="st33" x1="200" y1="134.5" x2="280" y2="134.5"/>
	<line class="st19" x1="200" y1="133.5" x2="280" y2="133.5"/>
	<g>
		<g>
			
				<radialGradient id="SVGID_3_" cx="392.4129" cy="901.2845" r="35.3773" gradientTransform="matrix(1 0 0 -1 0 997.89)" gradientUnits="userSpaceOnUse">
				<stop  offset="0" style="stop-color:#FEC053"/>
				<stop  offset="0.3273" style="stop-color:#F2203E"/>
				<stop  offset="0.6485" style="stop-color:#B729A8"/>
				<stop  offset="1" style="stop-color:#5342D6"/>
			</radialGradient>
			<path class="st34" d="M417,92.2c0,2.6-2.1,4.8-4.8,4.8h-19.8c-2.6,0-4.8-2.1-4.8-4.8V72.5c0-2.6,2.1-4.8,4.8-4.8h19.8
				c2.6,0,4.8,2.9,4.8,5.5V92.2z"/>
		</g>
		<g>
			<g>
				<path class="st2" d="M407.2,93.7h-9.8c-3.6,0-6.5-2.9-6.5-6.5v-9.8c0-3.6,2.9-6.5,6.5-6.5h9.8c3.6,0,6.5,2.9,6.5,6.5v9.8
					C413.7,90.8,410.8,93.7,407.2,93.7z M397.4,72.9c-2.5,0-4.5,2-4.5,4.5v9.8c0,2.5,2,4.5,4.5,4.5h9.8c2.5,0,4.5-2,4.5-4.5v-9.8
					c0-2.5-2-4.5-4.5-4.5H397.4z"/>
			</g>
			<g>
				<path class="st2" d="M402.3,88.2c-3.2,0-5.8-2.6-5.8-5.8c0-3.2,2.6-5.8,5.8-5.8s5.8,2.6,5.8,5.8
					C408.2,85.6,405.6,88.2,402.3,88.2z M402.3,78.5c-2.1,0-3.9,1.7-3.9,3.9c0,2.1,1.7,3.9,3.9,3.9c2.1,0,3.9-1.7,3.9-3.9
					C406.2,80.2,404.5,78.5,402.3,78.5z"/>
			</g>
			<g>
				<path class="st2" d="M409.8,76.2c0,0.8-0.6,1.4-1.4,1.4S407,77,407,76.2s0.6-1.4,1.4-1.4S409.8,75.4,409.8,76.2z"/>
			</g>
		</g>
	</g>
	<polyline class="st35" points="394,109 394,116 403,116 	"/>
	<g>
		<path class="st36" d="M480.9,406.2v-2.6h14v2.6H480.9z M488.1,414.7c-3.1,0-5.6-1.5-5.6-3.9s2.5-4,5.6-4s5.5,1.5,5.5,4
			C493.6,413.2,491.2,414.7,488.1,414.7z M484.7,402.7v-2.6h6.7v2.6H484.7z M488.1,409.3c-1.5,0-2.4,0.7-2.4,1.6
			c0,0.8,0.9,1.5,2.4,1.5s2.4-0.7,2.4-1.5C490.5,410,489.6,409.3,488.1,409.3z M486,425.8v-6.4h10.7v-1.2H486v-2.6h14v6.4h-10.8v1.2
			h11.2v2.6H486z M500,409.1v5.2h-3.3v-14.2h3.3v6.2h3.9v2.7L500,409.1L500,409.1z"/>
		<path class="st36" d="M511.7,401.4c3.8,0,6.6,2.7,6.6,6.2s-2.7,6.1-6.6,6.1c-3.7,0-6.4-2.6-6.4-6.1S507.9,401.4,511.7,401.4z
			 M511.7,410.9c1.9,0,3.3-1.4,3.3-3.3s-1.5-3.3-3.3-3.3s-3.2,1.4-3.2,3.3S509.9,410.9,511.7,410.9z M510.7,424.7v-8.9h3.2v6h11.8
			v2.8h-15V424.7z M522,417.7v-17.5h3.2v17.5H522z"/>
	</g>
	<g>
		<path class="st37" d="M496.2,442.3h-32c-12.7,8.8-28.2,9.7-28.5,9.7l-6.1,0.3l2.8-5.4c0.8-1.6,1.6-3.2,2.3-4.6h-88.5
			c-21.7,0-39.3,17.3-39.8,38.9c-0.4,22.3,18.3,40.5,40.6,40.5h150c21.7,0,39.3-17.3,39.8-38.9C537.3,460.5,518.6,442.3,496.2,442.3
			z M375.3,486.5c0,2.4-0.4,4.6-1.2,6.6c-0.8,2-2,3.7-3.5,5.1s-3.3,2.5-5.4,3.3s-4.5,1.2-7.1,1.2s-5-0.4-7.1-1.2
			c-2.1-0.8-3.9-1.9-5.3-3.3c-1.5-1.4-2.6-3.1-3.4-5.1s-1.2-4.2-1.2-6.6v-24.8h10.2V486c0,1,0.1,2,0.4,2.9s0.7,1.7,1.2,2.4
			c0.5,0.7,1.2,1.3,2.1,1.7c0.9,0.4,1.9,0.6,3.2,0.6s2.3-0.2,3.2-0.6c0.9-0.4,1.6-1,2.2-1.7s1-1.5,1.2-2.4s0.4-1.9,0.4-2.9v-24.2
			h10.2v24.7H375.3z M416.1,486.5c0,2.4-0.4,4.6-1.2,6.6c-0.8,2-2,3.7-3.5,5.1s-3.3,2.5-5.4,3.3s-4.5,1.2-7.1,1.2s-5-0.4-7.1-1.2
			c-2.1-0.8-3.9-1.9-5.3-3.3c-1.5-1.4-2.6-3.1-3.4-5.1s-1.2-4.2-1.2-6.6v-24.8h10.2V486c0,1,0.1,2,0.4,2.9s0.7,1.7,1.2,2.4
			c0.5,0.7,1.2,1.3,2.1,1.7c0.9,0.4,1.9,0.6,3.2,0.6c1.2,0,2.3-0.2,3.2-0.6c0.9-0.4,1.6-1,2.2-1.7s1-1.5,1.2-2.4s0.4-1.9,0.4-2.9
			v-24.2h10.2v24.7H416.1z M457,486.5c0,2.4-0.4,4.6-1.2,6.6c-0.8,2-2,3.7-3.5,5.1s-3.3,2.5-5.4,3.3s-4.5,1.2-7.1,1.2
			s-5-0.4-7.1-1.2c-2.1-0.8-3.9-1.9-5.3-3.3c-1.5-1.4-2.6-3.1-3.4-5.1s-1.2-4.2-1.2-6.6v-24.8H433V486c0,1,0.1,2,0.4,2.9
			s0.7,1.7,1.2,2.4c0.5,0.7,1.2,1.3,2.1,1.7c0.9,0.4,1.9,0.6,3.2,0.6c1.2,0,2.3-0.2,3.2-0.6c0.9-0.4,1.6-1,2.2-1.7s1-1.5,1.2-2.4
			s0.4-1.9,0.4-2.9v-24.2H457V486.5z M498,503.2h-27.5v-11.4h20.7v-2.3h-20.7v-4.7h26.4v11.5h-20.7v2.3H498V503.2z M503.4,482.4
			h-39.2v-4.9h16.7v-3.3h-10.2v-15.3h26.2v15.3h-10.2v3.3h16.7V482.4z"/>
		<rect x="476.4" y="463.6" class="st37" width="14.7" height="5.9"/>
	</g>
	<path class="st36" d="M447,380.9c-16.5,0-29.8,13.3-29.8,29.8c0,14,9.7,25.8,22.7,29c0.2,0.1-4.3,8.8-4.3,8.8s41.2-2,41.2-37.8
		C476.8,394.2,463.5,380.9,447,380.9z"/>
	<g>
		<path class="st36" d="M323.4,401.5c1.9,0,3.6,0.7,4.8,1.9h5.9v-3.2h3.2v17.2h-3.2v-5.7h-5.6c-1.2,1.4-3,2.2-5.1,2.2
			c-3.8,0-6.5-2.7-6.5-6.2C316.9,404.2,319.6,401.5,323.4,401.5z M323.4,411.1c1.8,0,3.2-1.5,3.2-3.4c0-2-1.4-3.4-3.2-3.4
			c-1.9,0-3.3,1.4-3.3,3.4C320.2,409.7,321.5,411.1,323.4,411.1z M322.8,424.8v-8.9h3.2v6h11.6v2.8h-14.8V424.8z M334.1,408.9v-2.6
			h-4.4c0.1,0.5,0.2,1,0.2,1.5c0,0.4,0,0.8-0.1,1.1H334.1z"/>
		<path class="st36" d="M356.2,418.3c-1.8,0.2-5.3,0.6-7.8,0.7c-2.2,0.1-5.5,0.2-7.8,0.2l-0.3-3c1.5,0.1,4.1,0.1,6.3,0v-1.5
			c-2.7-0.5-4.2-2.4-4.2-4.7c0-1.3,0.6-2.4,1.5-3.2h-3.3v-2.6h14.8v2.6h-3c1,0.8,1.5,2,1.5,3.3c0,2.3-1.4,4.1-4.2,4.6v1.4
			c2.4-0.1,4.9-0.4,6.1-0.5L356.2,418.3z M344.7,403v-2.8h6.6v2.8H344.7z M345.4,410.1c0,1.2,1,2.2,2.7,2.2s2.7-1,2.7-2.2
			s-1-2.3-2.7-2.3C346.4,407.9,345.4,409,345.4,410.1z M357.4,400.2h3.3v22.4h-3.3V400.2z"/>
		<path class="st36" d="M369.9,417.2V414c-1.9,0.1-4.1,0.2-5.8,0.2l-0.4-3c1.9,0.1,5.3,0.1,7.6,0c2.8-0.1,6.4-0.4,8-0.6l0.2,2.7
			c-1.5,0.2-4.1,0.4-6.4,0.6v3.3H369.9z M371.6,410.4c-3.5,0-5.9-2.1-5.9-5c0-3,2.4-5,5.9-5c3.7,0,5.9,2.1,5.9,5.1
			C377.6,408.3,375.4,410.4,371.6,410.4z M368.9,405.4c0,1.2,1.1,2.2,2.8,2.2c1.7,0,2.8-1,2.8-2.2c0-1.3-1.1-2.3-2.8-2.3
			S368.9,404.1,368.9,405.4z M370.2,425v-6.6h3.2v3.8h11.7v2.8L370.2,425L370.2,425z M381.4,417.2h-5v-2.7h5v-14.4h3.3v19.3h-3.3
			V417.2z"/>
		<path class="st36" d="M387.5,415.7v-2.8h22.2v2.8H387.5z M394.5,417.1v5.2h12v2.8h-15.2v-8H394.5z M398.6,411.9
			c-3.6,0-7-1.9-7-5.9c0-3.6,3.2-5.9,7-5.9c3.9,0,7,2.3,7,5.9C405.6,409.9,402.1,411.9,398.6,411.9z M398.6,402.9
			c-2.3,0-3.8,1.3-3.8,3.1c0,1.8,1.5,3.1,3.8,3.1c2.2,0,3.8-1.3,3.8-3.1C402.4,404.2,400.8,402.9,398.6,402.9z"/>
	</g>
	<g>
		<path class="st2" d="M425.8,416.1v-14.8h3.2v4.8h5.2v-4.8h3.2v14.8H425.8z M434.2,408.9H429v4.4h5.2V408.9z M441.7,400.2h3.2v22.4
			h-3.2V400.2z"/>
		<path class="st2" d="M449.2,411.8V401h11.6v10.9h-11.6V411.8z M457.5,403.7h-5.1v5.3h5.1V403.7z M454.3,425.7v-7.1h11.4v-1.7
			h-11.4v-2.8h14.6v7.3h-11.4v1.6h11.8v2.8L454.3,425.7L454.3,425.7z M465.6,412.8v-12.7h3.3v12.7H465.6z"/>
	</g>
	<g>
		<path class="st38" d="M573.4,95.9L573.4,95.9L573.4,95.9h13c0.3,0,0.6-0.2,0.7-0.5l2.9-10.1c0.1-0.2,0-0.4-0.1-0.6
			s-0.3-0.3-0.6-0.3h-17.6l-0.5-2.3c-0.1-0.3-0.4-0.6-0.7-0.6h-4.3c-0.4,0-0.7,0.3-0.7,0.7c0,0.4,0.3,0.7,0.7,0.7h3.7
			c0.1,0.4,2.5,11.1,2.6,11.7c-0.8,0.3-1.3,1.1-1.3,2c0,1.2,1,2.2,2.2,2.2h13c0.4,0,0.7-0.3,0.7-0.7c0-0.4-0.3-0.7-0.7-0.7h-13
			c-0.4,0-0.7-0.3-0.7-0.7C572.7,96.2,573,95.9,573.4,95.9z M588.3,85.8l-2.5,8.6H574l-1.9-8.6H588.3z"/>
		<path class="st38" d="M572.7,100.9c0,1.2,1,2.2,2.2,2.2s2.2-1,2.2-2.2s-1-2.2-2.2-2.2S572.7,99.7,572.7,100.9z M574.8,100.2
			c0.4,0,0.7,0.3,0.7,0.7s-0.3,0.7-0.7,0.7s-0.7-0.3-0.7-0.7S574.4,100.2,574.8,100.2z"/>
		<path class="st38" d="M582.8,100.9c0,1.2,1,2.2,2.2,2.2s2.2-1,2.2-2.2s-1-2.2-2.2-2.2S582.8,99.7,582.8,100.9z M585,100.2
			c0.4,0,0.7,0.3,0.7,0.7s-0.3,0.7-0.7,0.7s-0.7-0.3-0.7-0.7S584.6,100.2,585,100.2z"/>
	</g>
	<g>
		<path d="M573.6,153.7L573.6,153.7L573.6,153.7H586c0.3,0,0.6-0.2,0.7-0.5l2.7-9.6c0.1-0.2,0-0.4-0.1-0.6c-0.1-0.2-0.3-0.3-0.5-0.3
			H572l-0.5-2.2c-0.1-0.3-0.3-0.5-0.7-0.5h-4.1c-0.4,0-0.7,0.3-0.7,0.7s0.3,0.7,0.7,0.7h3.6c0.1,0.4,2.3,10.6,2.5,11.1
			c-0.7,0.3-1.2,1-1.2,1.9c0,1.1,0.9,2.1,2.1,2.1H586c0.4,0,0.7-0.3,0.7-0.7s-0.3-0.7-0.7-0.7h-12.4c-0.4,0-0.7-0.3-0.7-0.7
			C572.9,154,573.2,153.7,573.6,153.7z M587.9,144.1l-2.4,8.2h-11.4l-1.8-8.2H587.9z"/>
		<path d="M572.9,158.5c0,1.1,0.9,2.1,2.1,2.1s2.1-0.9,2.1-2.1s-0.9-2.1-2.1-2.1S572.9,157.4,572.9,158.5z M574.9,157.8
			c0.4,0,0.7,0.3,0.7,0.7s-0.3,0.7-0.7,0.7s-0.7-0.3-0.7-0.7C574.3,158.1,574.6,157.8,574.9,157.8z"/>
		<path d="M582.6,158.5c0,1.1,0.9,2.1,2.1,2.1s2.1-0.9,2.1-2.1s-0.9-2.1-2.1-2.1S582.6,157.4,582.6,158.5z M584.6,157.8
			c0.4,0,0.7,0.3,0.7,0.7s-0.3,0.7-0.7,0.7s-0.7-0.3-0.7-0.7C584,158.1,584.3,157.8,584.6,157.8z"/>
	</g>
	<polyline class="st19" points="626.5,85 626.5,80.5 631,80.5 	"/>
	<line class="st19" x1="626.8" y1="80.8" x2="632.8" y2="86.8"/>
	<polyline class="st19" points="643.5,85 643.5,80.5 639,80.5 	"/>
	<line class="st19" x1="643.2" y1="80.8" x2="637.2" y2="86.8"/>
	<polyline class="st19" points="626.5,93 626.5,97.5 631,97.5 	"/>
	<line class="st19" x1="626.8" y1="97.2" x2="632.8" y2="91.2"/>
	<polyline class="st19" points="643.5,93 643.5,97.5 639,97.5 	"/>
	<line class="st19" x1="643.2" y1="97.2" x2="637.2" y2="91.2"/>
	<rect x="611.5" y="71.5" class="st39" width="47" height="47"/>
	<g>
		<path class="st40" d="M621.8,110.7c-1.9,0.3-4,0.3-5.6,0.4l-0.1-0.8c0.7,0,1.5,0,2.3,0v-0.6c-1-0.1-1.6-0.6-1.6-1.3
			c0-0.8,0.8-1.3,2.1-1.3s2.1,0.5,2.1,1.3c0,0.7-0.6,1.2-1.6,1.3v0.6c0.8,0,1.6-0.1,2.3-0.2L621.8,110.7z M621.5,106.7h-5.2V106h2.1
			v-0.8h1v0.8h2v0.7H621.5z M617.2,111.7h6v2.5h-1v-1.7h-5V111.7z M618.9,109c0.7,0,1.2-0.2,1.2-0.6s-0.5-0.7-1.2-0.7
			s-1.2,0.3-1.2,0.7C617.8,108.7,618.2,109,618.9,109z M624.5,108.7h-1.2v2.6h-1v-6.1h1v2.7h1.2V108.7z"/>
		<path class="st40" d="M626.7,111.2c1,0,1.9-0.1,2.8-0.2l0.1,0.8c-1.1,0.2-2,0.2-3.3,0.2h-0.6v-5.8h3.3v0.8h-2.3V111.2z
			 M633.1,105.2v9h-1v-4.6H631v4.2h-1v-8.4h1v3.4h1.1v-3.6H633.1z"/>
		<path class="st40" d="M645,112.3v0.8h-8.2v-0.8h3.6v-1.8h-2.6v-4.7h1v1.5h4.3v-1.5h1v4.7h-2.6v1.8H645z M638.8,109.6h4.3v-1.5
			h-4.3V109.6z"/>
		<path class="st40" d="M650.8,106.2c0,2.7-1.1,5-4.2,6.5l-0.5-0.8c2.4-1.1,3.5-2.7,3.7-4.8h-3.2v-0.8L650.8,106.2L650.8,106.2z
			 M653.5,105.2v9h-1v-9H653.5z"/>
	</g>
	<text transform="matrix(1 0 0 1 611.288 152.8569)" class="st41 st42 st43">모두 보기</text>
	<text transform="matrix(1 0 0 1 624.1943 182.8569)" class="st41 st42 st43">닫기</text>
	<polyline class="st44" points="303,183 297,188.9 293,185 	"/>
	<path class="st45" d="M303,194.5h-10c-1.9,0-3.5-1.6-3.5-3.5v-10c0-1.9,1.6-3.5,3.5-3.5h10c1.9,0,3.5,1.6,3.5,3.5v10
		C306.5,192.9,304.9,194.5,303,194.5z"/>
	<path class="st41" d="M333,195h-10c-1.9,0-4-2.1-4-4v-10c0-1.9,2.1-4,4-4h10c1.9,0,4,2.1,4,4v10C337,192.9,334.9,195,333,195z"/>
	<polyline class="st46" points="333.5,183 327.5,188.9 323.5,185 	"/>
	<path class="st41" d="M358,170L358,170c-5,0-9-4.1-9-9l0,0c0-4.9,4-9,9-9l0,0c5,0,9,4.1,9,9l0,0C367,165.9,363,170,358,170z"/>
	<g>
		<path class="st2" d="M359,158.3c0-0.7-0.5-1.2-1.2-1.2c-0.6,0-1.1,0.3-1.6,0.8l-1.1-1c0.7-0.8,1.7-1.4,2.9-1.4
			c1.7,0,2.9,0.9,2.9,2.7c0,2-2.4,2.7-2.2,4.6H357C356.6,160.6,359,159.7,359,158.3z M356.6,165.2c0-0.8,0.5-1.3,1.3-1.3
			c0.7,0,1.3,0.6,1.3,1.3c0,0.8-0.5,1.3-1.3,1.3C357.1,166.6,356.6,166,356.6,165.2z"/>
	</g>
	<text transform="matrix(1 0 0 1 354.4961 189.3555)" class="st47 st48">?</text>
	<circle cx="390" cy="161" r="3"/>
	<circle cx="302.5" cy="161.5" r="2.5"/>
	<circle cx="332.5" cy="161.5" r="2.5"/>
	<polygon class="st2" points="540.2,52.1 530.8,42 550.1,42 	"/>
	<polygon class="st49" points="540.4,53.4 532,45 533.6,45 540.3,51.8 547.1,45 548.8,45 	"/>
	<path class="st50" d="M391,15c0,0,5.5,0,5.5,5.7C396.5,20.7,391,20.4,391,15z"/>
	<line class="st51" x1="582.5" y1="41.7" x2="582.5" y2="50"/>
	<polyline class="st52" points="586,47 582.5,50.5 579.1,47.1 	"/>
	<polyline class="st52" points="588.5,50 588.5,53.5 576.5,53.5 576.5,50.5 	"/>
	<rect x="570.5" y="36.5" class="st51" width="24" height="23"/>
	<path class="st53" d="M397,20"/>
	<line class="st54" x1="396.5" y1="20.5" x2="396.5" y2="24.5"/>
	<path class="st54" d="M390.5,14.5c0,0,6,0,6,6.2C396.5,20.7,390.5,20.5,390.5,14.5z"/>
	<path class="st50" d="M402,15c0,0-5.5,0-5.5,5.7C396.5,20.7,402,20.4,402,15z"/>
	<path class="st54" d="M402.5,14.5c0,0-6,0-6,6.2C396.5,20.7,402.5,20.5,402.5,14.5z"/>
	<polyline class="st55" points="370.5,109.5 370.5,115.5 377.5,115.5 	"/>
	<g>
		<g>
			<path class="st56" d="M469.9,114h-18.5c-2.7,0-5-2.2-5-5c0.1-2.6,2.2-4.8,4.9-4.8h18.5c2.7,0,5,2.2,5,5
				C474.8,111.9,472.6,114,469.9,114"/>
			<g>
				<path class="st2" d="M458.7,106.6v3c0,0.1,0,0.2,0,0.4c0,0.1-0.1,0.2-0.1,0.3c-0.1,0.1-0.2,0.2-0.3,0.2
					c-0.1,0.1-0.2,0.1-0.4,0.1c-0.2,0-0.3,0-0.4-0.1s-0.2-0.1-0.3-0.2c-0.1-0.1-0.1-0.2-0.1-0.3c0-0.1,0-0.2,0-0.4v-3h-1.2v3.1
					c0,0.3,0,0.6,0.1,0.8s0.2,0.5,0.4,0.6c0.2,0.2,0.4,0.3,0.7,0.4c0.3,0.1,0.5,0.1,0.9,0.1c0.3,0,0.6,0,0.9-0.1s0.5-0.2,0.7-0.4
					c0.2-0.2,0.3-0.4,0.4-0.6s0.1-0.5,0.1-0.8v-3.1H458.7z"/>
				<path class="st2" d="M463.7,106.6v3c0,0.1,0,0.2,0,0.4c0,0.1-0.1,0.2-0.1,0.3c-0.1,0.1-0.2,0.2-0.3,0.2
					c-0.1,0.1-0.2,0.1-0.4,0.1c-0.2,0-0.3,0-0.4-0.1s-0.2-0.1-0.3-0.2c-0.1-0.1-0.1-0.2-0.1-0.3c0-0.1,0-0.2,0-0.4v-3h-1.2v3.1
					c0,0.3,0,0.6,0.1,0.8s0.2,0.5,0.4,0.6c0.2,0.2,0.4,0.3,0.7,0.4c0.3,0.1,0.5,0.1,0.9,0.1c0.3,0,0.6,0,0.9-0.1s0.5-0.2,0.7-0.4
					c0.2-0.2,0.3-0.4,0.4-0.6s0.1-0.5,0.1-0.8v-3.1H463.7z"/>
				<path class="st2" d="M453.7,106.6v3c0,0.1,0,0.2,0,0.4c0,0.1-0.1,0.2-0.1,0.3c-0.1,0.1-0.2,0.2-0.3,0.2
					c-0.1,0.1-0.2,0.1-0.4,0.1s-0.3,0-0.4-0.1s-0.2-0.1-0.3-0.2c-0.1-0.1-0.1-0.2-0.1-0.3c0-0.1,0-0.2,0-0.4v-3h-1.2v3.1
					c0,0.3,0,0.6,0.1,0.8c0.1,0.2,0.2,0.5,0.4,0.6c0.2,0.2,0.4,0.3,0.7,0.4c0.3,0.1,0.5,0.1,0.9,0.1c0.3,0,0.6,0,0.9-0.1
					s0.5-0.2,0.7-0.4c0.2-0.2,0.3-0.4,0.4-0.6s0.1-0.5,0.1-0.8v-3.1H453.7z"/>
			</g>
			<g>
				<path class="st2" d="M465.9,109.2v-0.6h2.1v-0.4h-1.3v-1.9h3.2v1.9h-1.3v0.4h2.1v0.6H465.9z M466.7,111.7v-1.4h2.5V110h-2.5
					v-0.6h3.2v1.4h-2.5v0.3h2.7v0.6H466.7z M469.2,106.9h-1.8v0.7h1.8V106.9z"/>
			</g>
		</g>
		<g>
			<path class="st2" d="M468.9,91L468.9,91c0-0.2-0.1-0.3-0.1-0.4s0-0.1-0.1-0.2c0-0.1,0-0.1-0.1-0.2c0-0.1-0.1-0.2-0.1-0.3v-0.1
				c0-0.1-0.1-0.2-0.1-0.3v-0.1l0,0l0,0c0-0.1-0.1-0.2-0.1-0.2v-0.1c0-0.1-0.1-0.2-0.1-0.3c0,0,0-0.1-0.1-0.1c0-0.1-0.1-0.1-0.1-0.2
				s-0.1-0.1-0.1-0.2s-0.1-0.1-0.1-0.2s-0.1-0.1-0.1-0.2c0,0,0-0.1-0.1-0.1c-0.3-0.4-0.6-0.8-1-1.2c-0.3-0.3-0.6-0.5-0.8-0.7
				l-0.1-0.1l-0.1-0.1c-0.1-0.1-0.2-0.1-0.2-0.2c0,0,0,0-0.1,0c-0.1-0.1-0.2-0.1-0.3-0.2l0,0c-0.4-0.2-0.7-0.4-1.1-0.6
				c-0.8-0.3-1.7-0.6-2.5-0.6h-0.1c-0.1,0-0.2,0-0.3,0c-0.1,0-0.3,0-0.4,0s-0.3,0-0.4,0s-0.2,0-0.3,0h-0.1c-0.9,0.1-1.7,0.3-2.5,0.6
				c-0.4,0.2-0.7,0.3-1.1,0.6l0,0c-0.1,0.1-0.2,0.1-0.3,0.2c0,0,0,0-0.1,0c-0.1,0.1-0.2,0.1-0.2,0.2l-0.1,0.1l-0.1,0.1
				c-0.3,0.2-0.6,0.5-0.9,0.7c-0.4,0.4-0.7,0.8-1,1.2c0,0,0,0.1-0.1,0.1c0,0.1-0.1,0.1-0.1,0.2s-0.1,0.1-0.1,0.2s-0.1,0.1-0.1,0.2
				s-0.1,0.1-0.1,0.2c0,0,0,0.1-0.1,0.1c0,0.1-0.1,0.2-0.1,0.3v0.1c0,0.1-0.1,0.2-0.1,0.2l0,0l0,0v0.1c0,0.1-0.1,0.2-0.1,0.3v0.1
				c0,0.1-0.1,0.2-0.1,0.3c0,0.1,0,0.1-0.1,0.2c0,0.1,0,0.1-0.1,0.2c0,0.1-0.1,0.2-0.1,0.4l0,0c-0.1,0.6-0.2,1.2-0.2,1.7
				c0,0,0,0.1,0,0.2c0,1.1,0.3,2.2,0.7,3.2c0.4,1,1.1,2,1.9,2.8c0.4,0.4,0.9,0.8,1.3,1.1c-0.3,0.2-0.6,0.6-0.7,1s0,0.8,0.2,1.2
				c-0.1,0.1-0.2,0.3-0.2,0.6c-0.1,0.6,0,1.2,0.4,1.9l0,0c0.3,0.5,0.7,0.8,1.1,0.9c0.3,0.1,0.6,0,0.9-0.2c0.4,0.3,0.7,0.6,1.1,0.7
				c0.3,0.1,0.6,0.2,0.9,0.2c0.1,0,0.2,0,0.3,0c0.7-0.1,1.3-0.5,1.8-1.1c0.4-0.6,0.7-1.2,0.8-1.6c0.2-0.8,0.2-1.5,0.3-2.3
				c0.5-0.1,1.1-0.3,1.6-0.5c1-0.4,2-1.1,2.8-1.9s1.4-1.7,1.9-2.8c0.4-1,0.6-2,0.7-3.1c0-0.1,0-0.2,0-0.3
				C469,92.2,469,91.6,468.9,91z"/>
			<g>
				<path class="st56" d="M463.4,91.1c-0.7,0-1.3,0.6-1.3,1.3c0,0.7,0.6,1.3,1.3,1.3c0.7,0,1.3-0.6,1.3-1.3S464.1,91.1,463.4,91.1z"
					/>
				<path class="st57" d="M457.3,98.1c0.5-0.1,0.9-0.1,1.2,0c0.2,0,0.3,0.1,0.5,0.1c0-0.2,0-0.3,0-0.5c-1.5-0.2-2.7-0.7-2.7-1.4
					c0-0.2,0.1-0.3,0.3-0.3c0.2,0,0.3,0.1,0.3,0.3c0,0.2,0.8,0.6,2.1,0.8c0-0.1,0-0.2,0-0.3c0-0.5,0-1,0.1-1.6c0-0.4,0.2-0.8,0.4-1
					c0.2-0.2,0.5-0.3,0.8-0.3s0.7,0.1,0.9,0.3c0.3,0.2,0.5,0.5,0.5,0.8l0,0c0.1,0.7,0.1,1.4,0.1,2.2c0.4-0.1,0.8-0.1,1.1-0.2
					c0.7-0.2,0.9-0.4,0.9-0.6s0.1-0.3,0.3-0.3c0.2,0,0.3,0.1,0.3,0.3c0,0.7-1.2,1.2-2.6,1.4c0,0.7,0,1.3,0,1.9
					c0.1,0.4,0.1,0.9,0.1,1.3c0.5-0.1,1-0.3,1.4-0.4c1-0.4,1.9-1,2.6-1.8c0.8-0.8,1.4-1.6,1.8-2.6c0.4-0.8,0.6-1.7,0.6-2.6
					c0,0,0,0-0.1-0.1c0-0.1-0.1-0.1-0.1-0.2c-0.1-0.2-0.1-0.4-0.2-0.7c-0.2-0.5-0.4-1.2-0.7-1.8c-0.4-0.8-0.7-0.9-0.8-1
					c0,0-0.2,0-0.4,0.2c-0.2,0.2-0.5,0.5-0.9,0.4c-0.3-0.1-0.4-0.3-0.5-0.5l0,0c-0.7,0.1-2.4,0.4-2.7,0.4c-0.1,0-0.3-0.1-0.3-0.2
					s0.1-0.3,0.2-0.3l2.6-0.4c0-0.1-0.1-0.2-0.1-0.3c-0.1-0.5-0.3-1-0.6-1.4c-0.3-0.4-0.6-0.6-1-0.6c-0.8,0-1.8,0.4-2.7,0.7
					c-0.9,0.3-1.8,0.7-2.7,0.7c-0.6,0-1.1-0.2-1.5-0.6c-0.1-0.1-0.2-0.1-0.3-0.1c-0.2,0-0.6,0.3-1.3,1.3c-0.5,0.8-1,1.7-1.4,2.5
					c-0.3,0.5-0.5,1-0.7,1.3c-0.1,0.3-0.3,0.5-0.4,0.6c0.1,0.9,0.3,1.8,0.6,2.6c0.4,1,1,1.9,1.8,2.6c0.4,0.4,0.9,0.8,1.4,1.1
					c0.1-0.5,0.3-0.9,0.6-1.1C456.7,98.3,457.1,98.1,457.3,98.1z"/>
				<g>
					<path class="st56" d="M458.4,91.5c-0.2-0.2-0.6-0.4-0.9-0.4c-0.7,0-1.3,0.6-1.3,1.3c0,0.7,0.6,1.3,1.3,1.3l0,0
						c0.3,0,0.6-0.1,0.9-0.4s0.4-0.6,0.4-0.9C458.8,92,458.6,91.7,458.4,91.5z"/>
					<path class="st56" d="M459,89.7c-0.4-0.1-2.6-0.5-2.9-0.5c-0.1,0-0.3,0.1-0.3,0.2s0.1,0.3,0.2,0.3l2.9,0.5l0,0
						c0.1,0,0.2-0.1,0.3-0.2C459.2,89.8,459.1,89.7,459,89.7z"/>
					<path class="st56" d="M468.9,91L468.9,91c0-0.2-0.1-0.3-0.1-0.4s0-0.1-0.1-0.2c0-0.1,0-0.1-0.1-0.2c0-0.1-0.1-0.2-0.1-0.3v-0.1
						c0-0.1-0.1-0.2-0.1-0.3v-0.1l0,0l0,0c0-0.1-0.1-0.2-0.1-0.2v-0.1c0-0.1-0.1-0.2-0.1-0.3c0,0,0-0.1-0.1-0.1
						c0-0.1-0.1-0.1-0.1-0.2s-0.1-0.1-0.1-0.2s-0.1-0.1-0.1-0.2s-0.1-0.1-0.1-0.2c0,0,0-0.1-0.1-0.1c-0.3-0.4-0.6-0.8-1-1.2
						c-0.3-0.3-0.6-0.5-0.8-0.7l-0.1-0.1l-0.1-0.1c-0.1-0.1-0.2-0.1-0.2-0.2c0,0,0,0-0.1,0c-0.1-0.1-0.2-0.1-0.3-0.2l0,0
						c-0.4-0.2-0.7-0.4-1.1-0.6c-0.8-0.3-1.7-0.6-2.5-0.6h-0.1c-0.1,0-0.2,0-0.3,0c-0.1,0-0.3,0-0.4,0s-0.3,0-0.4,0s-0.2,0-0.3,0
						h-0.1c-0.9,0.1-1.7,0.3-2.5,0.6c-0.4,0.2-0.7,0.3-1.1,0.6l0,0c-0.1,0.1-0.2,0.1-0.3,0.2c0,0,0,0-0.1,0
						c-0.1,0.1-0.2,0.1-0.2,0.2l-0.1,0.1l-0.1,0.1c-0.3,0.2-0.6,0.5-0.9,0.7c-0.4,0.4-0.7,0.8-1,1.2c0,0,0,0.1-0.1,0.1
						c0,0.1-0.1,0.1-0.1,0.2s-0.1,0.1-0.1,0.2s-0.1,0.1-0.1,0.2s-0.1,0.1-0.1,0.2c0,0,0,0.1-0.1,0.1c0,0.1-0.1,0.2-0.1,0.3v0.1
						c0,0.1-0.1,0.2-0.1,0.2l0,0l0,0v0.1c0,0.1-0.1,0.2-0.1,0.3v0.1c0,0.1-0.1,0.2-0.1,0.3c0,0.1,0,0.1-0.1,0.2c0,0.1,0,0.1-0.1,0.2
						c0,0.1-0.1,0.2-0.1,0.4l0,0c-0.1,0.6-0.2,1.2-0.2,1.7c0,0,0,0.1,0,0.2c0,1.1,0.3,2.2,0.7,3.2c0.4,1,1.1,2,1.9,2.8
						c0.4,0.4,0.9,0.8,1.3,1.1c-0.3,0.2-0.6,0.6-0.7,1s0,0.8,0.2,1.2c-0.1,0.1-0.2,0.3-0.2,0.6c-0.1,0.6,0,1.2,0.4,1.9l0,0
						c0.3,0.5,0.7,0.8,1.1,0.9c0.3,0.1,0.6,0,0.9-0.2c0.4,0.3,0.7,0.6,1.1,0.7c0.3,0.1,0.6,0.2,0.9,0.2c0.1,0,0.2,0,0.3,0
						c0.7-0.1,1.3-0.5,1.8-1.1c0.4-0.6,0.7-1.2,0.8-1.6c0.2-0.8,0.2-1.5,0.3-2.3c0.5-0.1,1.1-0.3,1.6-0.5c1-0.4,2-1.1,2.8-1.9
						s1.4-1.7,1.9-2.8c0.4-1,0.6-2,0.7-3.1c0-0.1,0-0.2,0-0.3C469,92.2,469,91.6,468.9,91z M461.3,103.5c-0.1,0.3-0.3,0.9-0.7,1.4
						c-0.5,0.7-1.1,0.9-1.5,0.9c-0.5,0-1.1,0-1.9-0.9c-0.4-0.4-0.5-0.8-0.6-1.4c0-0.1-0.2-0.2-0.3-0.2c-0.1,0-0.2,0.2-0.2,0.3
						c0.1,0.4,0.2,0.9,0.5,1.4c-0.2,0.1-0.3,0.1-0.5,0.1c-0.3-0.1-0.6-0.3-0.8-0.7c-0.7-1.4-0.2-2-0.1-2.1l0,0l0,0
						c0.2-0.3,0.4-0.4,0.6-0.5c0.6-0.1,1.2,0.4,1.6,0.7c0,0,0.1,0.1,0.2,0.1s0.1,0,0.2-0.1s0.1-0.3,0-0.4c-0.4-0.3-1.2-0.9-2-0.8
						c-0.3,0-0.5,0.2-0.7,0.4c-0.1-0.2-0.1-0.4,0-0.6c0.1-0.4,0.5-0.7,0.7-0.9c0.1-0.1,0.2-0.1,0.2-0.1c0.1,0,0.3-0.1,0.4-0.1
						c0.5,0,1.2,0.1,1.7,0.5c0,0,0.1,0.1,0.2,0.1s0.1,0,0.2-0.1s0.1-0.3,0-0.4c-0.4-0.4-1-0.5-1.4-0.6c-0.3,0-0.6,0-0.9,0
						c0.1-0.3,0.2-0.5,0.4-0.7c0.2-0.2,0.5-0.3,0.7-0.4c0.4-0.1,0.7,0,1,0c0.2,0.1,0.5,0.1,0.8,0.1c0.1,0,0.2-0.1,0.2-0.2
						c0-0.3,0-0.5,0-0.7s0-0.4,0-0.6c0-0.1,0-0.3,0-0.4c0-0.5,0-1,0.1-1.6c0-0.5,0.3-0.9,0.8-0.9c0.2,0,0.4,0.1,0.6,0.2
						s0.3,0.3,0.3,0.5c0.1,0.7,0.1,1.4,0.1,2.1c0,0.1,0,0.2,0,0.3c0,0.1,0,0.2,0,0.3c0,0.7,0,1.3,0.1,1.9c0.1,0.4,0.1,0.9,0.1,1.3
						c0,0.2,0,0.3,0,0.5C461.6,102.1,461.5,102.7,461.3,103.5z M467.9,96c-0.4,1-1,1.9-1.8,2.6c-0.8,0.8-1.6,1.4-2.6,1.8
						c-0.5,0.2-0.9,0.3-1.4,0.4c0-0.4-0.1-0.8-0.1-1.3c-0.1-0.6-0.1-1.2,0-1.9c1.4-0.2,2.6-0.7,2.6-1.4c0-0.2-0.1-0.3-0.3-0.3
						c-0.2,0-0.3,0.1-0.3,0.3c0,0.1-0.2,0.3-0.9,0.6c-0.3,0.1-0.7,0.2-1.1,0.2c0-0.7,0-1.5-0.1-2.2l0,0c0-0.3-0.2-0.6-0.5-0.8
						c-0.3-0.2-0.6-0.3-0.9-0.3s-0.6,0.1-0.8,0.3c-0.2,0.2-0.4,0.6-0.4,1c0,0.6-0.1,1.1-0.1,1.6c0,0.1,0,0.2,0,0.3
						c-1.3-0.2-2.1-0.6-2.1-0.8c0-0.2-0.1-0.3-0.3-0.3c-0.2,0-0.3,0.1-0.3,0.3c0,0.8,1.2,1.2,2.7,1.4c0,0.2,0,0.3,0,0.5
						c-0.2,0-0.3,0-0.5-0.1c-0.3-0.1-0.7-0.2-1.2,0c-0.3,0.1-0.6,0.2-0.9,0.5s-0.5,0.6-0.6,1.1c-0.5-0.3-0.9-0.7-1.4-1.1
						c-0.8-0.8-1.4-1.6-1.8-2.6c-0.4-0.8-0.6-1.7-0.6-2.6c0.2-0.1,0.3-0.3,0.4-0.6c0.2-0.3,0.4-0.8,0.7-1.3c0.4-0.8,0.9-1.8,1.4-2.5
						c0.7-1,1.1-1.3,1.3-1.3c0.1,0,0.2,0,0.3,0.1c0.4,0.4,1,0.6,1.5,0.6c0.8,0,1.8-0.3,2.7-0.7c0.9-0.3,1.8-0.7,2.7-0.7
						c0.4,0,0.7,0.2,1,0.6s0.4,0.9,0.6,1.4c0,0.1,0.1,0.2,0.1,0.3l-2.6,0.4c-0.1,0-0.2,0.1-0.2,0.3c0,0.1,0.1,0.2,0.3,0.2
						c0.3,0,2-0.3,2.7-0.4l0,0c0.1,0.2,0.2,0.4,0.5,0.5c0.4,0.1,0.7-0.2,0.9-0.4c0.2-0.2,0.3-0.2,0.4-0.2s0.4,0.2,0.8,1
						c0.3,0.6,0.5,1.2,0.7,1.8c0.1,0.3,0.2,0.5,0.2,0.7c0,0.1,0.1,0.2,0.1,0.2s0,0.1,0.1,0.1C468.4,94.3,468.2,95.1,467.9,96z"/>
				</g>
			</g>
		</g>
	</g>
	
		<linearGradient id="SVGID_4_" gradientUnits="userSpaceOnUse" x1="173" y1="69.89" x2="173" y2="45.89" gradientTransform="matrix(1 0 0 1 0 158.11)">
		<stop  offset="0" style="stop-color:#232323"/>
		<stop  offset="1" style="stop-color:#454545"/>
	</linearGradient>
	<circle class="st58" cx="173" cy="216" r="12"/>
	<text transform="matrix(1 0 0 1 168.5723 222.1163)" class="st2 st59 st60">1</text>
	
		<linearGradient id="SVGID_5_" gradientUnits="userSpaceOnUse" x1="213" y1="69.89" x2="213" y2="45.89" gradientTransform="matrix(1 0 0 1 0 158.11)">
		<stop  offset="0" style="stop-color:#232323"/>
		<stop  offset="1" style="stop-color:#454545"/>
	</linearGradient>
	<circle class="st61" cx="213" cy="216" r="12"/>
	<text transform="matrix(1 0 0 1 208.0186 222.1163)" class="st2 st59 st60">2</text>
	
		<linearGradient id="SVGID_6_" gradientUnits="userSpaceOnUse" x1="253" y1="69.89" x2="253" y2="45.89" gradientTransform="matrix(1 0 0 1 0 158.11)">
		<stop  offset="0" style="stop-color:#232323"/>
		<stop  offset="1" style="stop-color:#454545"/>
	</linearGradient>
	<circle class="st62" cx="253" cy="216" r="12"/>
	<text transform="matrix(1 0 0 1 248.0956 222.1161)" class="st2 st59 st60">3</text>
	
		<linearGradient id="SVGID_7_" gradientUnits="userSpaceOnUse" x1="292" y1="69.89" x2="292" y2="45.89" gradientTransform="matrix(1 0 0 1 0 158.11)">
		<stop  offset="0" style="stop-color:#232323"/>
		<stop  offset="1" style="stop-color:#454545"/>
	</linearGradient>
	<circle class="st63" cx="292" cy="216" r="12"/>
	<text transform="matrix(1 0 0 1 287.0956 222.1161)" class="st2 st59 st60">4</text>
	<path class="st5" d="M103.5,211.5"/>
	<g>
		
			<linearGradient id="XMLID_3_" gradientUnits="userSpaceOnUse" x1="29.1484" y1="1023.2884" x2="1.1815" y2="995.3215" gradientTransform="matrix(1 0 0 -1 0 1231.89)">
			<stop  offset="0" style="stop-color:#00A0FF"/>
			<stop  offset="6.574450e-03" style="stop-color:#00A1FF"/>
			<stop  offset="0.2601" style="stop-color:#00BEFF"/>
			<stop  offset="0.5122" style="stop-color:#00D2FF"/>
			<stop  offset="0.7604" style="stop-color:#00DFFF"/>
			<stop  offset="1" style="stop-color:#00E3FF"/>
		</linearGradient>
		<path id="XMLID_8_" class="st64" d="M10.2,206.7c-0.5,0.5-0.7,1.3-0.7,2.3v36.9c0,1,0.3,1.8,0.8,2.3l0.1,0.1L31,227.7v-0.2v-0.2
			l-20.7-20.8L10.2,206.7z"/>
		
			<linearGradient id="XMLID_4_" gradientUnits="userSpaceOnUse" x1="49.2169" y1="1004.39" x2="8.8942" y2="1004.39" gradientTransform="matrix(1 0 0 -1 0 1231.89)">
			<stop  offset="0" style="stop-color:#FFE000"/>
			<stop  offset="0.4087" style="stop-color:#FFBD00"/>
			<stop  offset="0.7754" style="stop-color:#FFA500"/>
			<stop  offset="1" style="stop-color:#FF9C00"/>
		</linearGradient>
		<path id="XMLID_7_" class="st65" d="M37.9,234.6l-6.9-6.9v-0.2v-0.2l6.9-6.9l0.2,0.1l8.2,4.6c2.3,1.3,2.3,3.5,0,4.8l-8.3,4.6
			L37.9,234.6z"/>
		
			<linearGradient id="XMLID_9_" gradientUnits="userSpaceOnUse" x1="34.2003" y1="1000.6403" x2="-3.7251" y2="962.715" gradientTransform="matrix(1 0 0 -1 0 1231.89)">
			<stop  offset="0" style="stop-color:#FF3A44"/>
			<stop  offset="1" style="stop-color:#C31162"/>
		</linearGradient>
		<path id="XMLID_6_" class="st66" d="M38,234.5l-7-7l-20.8,20.7c0.8,0.8,2,0.9,3.5,0.1L38,234.5"/>
		
			<linearGradient id="XMLID_10_" gradientUnits="userSpaceOnUse" x1="4.9695" y1="1037.4706" x2="21.9047" y2="1020.5353" gradientTransform="matrix(1 0 0 -1 0 1231.89)">
			<stop  offset="0" style="stop-color:#32A071"/>
			<stop  offset="6.850000e-02" style="stop-color:#2DA771"/>
			<stop  offset="0.4762" style="stop-color:#15CF74"/>
			<stop  offset="0.8009" style="stop-color:#06E775"/>
			<stop  offset="1" style="stop-color:#00F076"/>
		</linearGradient>
		<path id="XMLID_5_" class="st67" d="M38,220.4l-24.3-13.8c-1.4-0.8-2.7-0.7-3.5,0.1L31,227.4L38,220.4z"/>
		<path id="XMLID_1_" class="st68" d="M13.7,206.8l32.5,18.5c1.1,0.6,1.6,1.4,1.7,2.2l0,0c0-0.9-0.6-1.7-1.7-2.4l-32.5-18.5
			c-2.3-1.3-4.2-0.2-4.2,2.4v0.2C9.5,206.6,11.4,205.5,13.7,206.8z"/>
	</g>
	
		<linearGradient id="SVGID_8_" gradientUnits="userSpaceOnUse" x1="88.5" y1="108.1192" x2="88.5" y2="50.5547" gradientTransform="matrix(1 0 0 1 0 158.11)">
		<stop  offset="0" style="stop-color:#1D76F2"/>
		<stop  offset="1" style="stop-color:#1AC2FB"/>
	</linearGradient>
	<path class="st69" d="M100,249H77c-5.5,0-10-4.5-10-10v-23c0-5.5,4.5-10,10-10h23c5.5,0,10,4.5,10,10v23
		C110,244.5,105.5,249,100,249z"/>
	<path class="st2" d="M81.2,237L81.2,237l-1.5,2.5c-0.5,0.9-1.7,1.2-2.7,0.7c-0.9-0.5-1.2-1.7-0.7-2.7l1.1-1.9l0.1-0.2
		c0.2-0.3,0.6-0.7,1.6-0.6c0,0,2.2,0.2,2.3,1.4C81.5,236.2,81.5,236.6,81.2,237L81.2,237z M102.1,230.5h-4.6c-0.3,0-0.4-0.1-0.5-0.2
		l0,0l-4.9-8.5l0,0l-0.3-0.4c-0.5-0.7-1.2,1.1-1.2,1.1c-0.9,2.1,0.1,4.5,0.5,5.2l6.8,11.8c0.5,0.9,1.7,1.2,2.7,0.7
		c0.9-0.5,1.2-1.7,0.7-2.7l-1.7-2.9c0-0.1-0.1-0.3,0.3-0.3h2.3c1.1,0,1.9-0.9,1.9-1.9S103.1,230.5,102.1,230.5L102.1,230.5z
		 M93.2,233.1c0,0,0.2,1.2-0.7,1.2h-0.9l0,0h-16c-1.1,0-1.9-0.9-1.9-1.9s0.9-1.9,1.9-1.9H80c0.7,0,0.9-0.4,0.9-0.4l0,0l5.7-9.8l0,0
		c0.1-0.2,0-0.4,0-0.4l-1.9-3.2c-0.5-0.9-0.2-2.1,0.7-2.7c0.9-0.5,2.1-0.2,2.7,0.7l0.9,1.5l0.9-1.5c0.5-0.9,1.7-1.2,2.7-0.7
		c0.9,0.5,1.2,1.7,0.7,2.7l-7.9,13.7c0,0.1,0,0.2,0.2,0.2h4.7l0,0C90.1,230.5,92.8,230.6,93.2,233.1L93.2,233.1z"/>
	
		<linearGradient id="SVGID_9_" gradientUnits="userSpaceOnUse" x1="310" y1="115.78" x2="354" y2="115.78" gradientTransform="matrix(1 0 0 1 0 156.22)">
		<stop  offset="0" style="stop-color:#FFFFFF;stop-opacity:0"/>
		<stop  offset="0.3" style="stop-color:#FFFFFF"/>
	</linearGradient>
	<rect x="310" y="250" class="st70" width="44" height="44"/>
	
		<linearGradient id="SVGID_10_" gradientUnits="userSpaceOnUse" x1="360" y1="115.78" x2="404" y2="115.78" gradientTransform="matrix(1 0 0 1 0 156.22)">
		<stop  offset="0" style="stop-color:#FFFFFF;stop-opacity:0"/>
		<stop  offset="0.3" style="stop-color:#FFFFFF"/>
	</linearGradient>
	<rect x="360" y="250" class="st71" width="44" height="44"/>
	<path class="st72" d="M391.5,282.5h-13c-2.2,0-4-1.8-4-4v-12c0-2.2,1.8-4,4-4h13c2.2,0,4,1.8,4,4v12
		C395.5,280.7,393.7,282.5,391.5,282.5z"/>
	<path class="st72" d="M391.5,332.5h-13c-2.2,0-4-1.8-4-4v-12c0-2.2,1.8-4,4-4h13c2.2,0,4,1.8,4,4v12
		C395.5,330.7,393.7,332.5,391.5,332.5z"/>
	<path class="st15" d="M341.5,332.5h-13c-2.2,0-4-1.8-4-4v-12c0-2.2,1.8-4,4-4h13c2.2,0,4,1.8,4,4v12
		C345.5,330.7,343.7,332.5,341.5,332.5z"/>
	<path class="st15" d="M341.5,282.5h-13c-2.2,0-4-1.8-4-4v-12c0-2.2,1.8-4,4-4h13c2.2,0,4,1.8,4,4v12
		C345.5,280.7,343.7,282.5,341.5,282.5z"/>
	<polyline class="st20" points="330,270 335,275 340,270 	"/>
	<polyline class="st30" points="380,270 385,275 390,270 	"/>
	<polyline class="st20" points="340,325 335,320 330,325 	"/>
	<polyline class="st30" points="390,325 385,320 380,325 	"/>
	<text transform="matrix(1 0 0 1 689.6816 326.5889)" class="st73 st74">세일즈파트너</text>
	<polygon class="st75" points="667.9,260.7 670.1,265.1 674.9,265.8 671.4,269.2 672.3,274 667.9,271.7 663.6,274 664.4,269.2 
		660.9,265.8 665.8,265.1 	"/>
	<polygon points="726,301 720,311 733,311 	"/>
	<g>
		<path d="M516.4,157.7L516.4,157.7L516.4,157.7h16.1c0.4,0,0.7-0.3,0.9-0.6l3.5-12.4c0.1-0.3,0-0.6-0.1-0.8
			c-0.2-0.2-0.4-0.4-0.7-0.4h-21.7l-0.6-2.9c-0.1-0.4-0.4-0.7-0.9-0.7h-5.3c-0.5,0-0.9,0.4-0.9,0.9s0.4,0.9,0.9,0.9h4.6
			c0.1,0.5,3,13.6,3.2,14.4c-0.9,0.4-1.6,1.3-1.6,2.4c0,1.5,1.2,2.7,2.7,2.7h16.1c0.5,0,0.9-0.4,0.9-0.9s-0.4-0.9-0.9-0.9h-16.1
			c-0.5,0-0.9-0.4-0.9-0.9C515.5,158.1,515.9,157.7,516.4,157.7z M534.8,145.3l-3,10.6h-14.7l-2.4-10.6H534.8z"/>
		<path d="M515.5,163.9c0,1.5,1.2,2.7,2.7,2.7s2.7-1.2,2.7-2.7s-1.2-2.7-2.7-2.7C516.7,161.3,515.5,162.5,515.5,163.9z M518.1,163
			c0.5,0,0.9,0.4,0.9,0.9s-0.4,0.9-0.9,0.9s-0.9-0.4-0.9-0.9C517.2,163.4,517.6,163,518.1,163z"/>
		<path d="M528,163.9c0,1.5,1.2,2.7,2.7,2.7s2.7-1.2,2.7-2.7s-1.2-2.7-2.7-2.7C529.2,161.3,528,162.5,528,163.9z M530.7,163
			c0.5,0,0.9,0.4,0.9,0.9s-0.4,0.9-0.9,0.9s-0.9-0.4-0.9-0.9S530.2,163,530.7,163z"/>
	</g>
	<g>
		<path class="st76" d="M516.8,96.4L516.8,96.4L516.8,96.4h14.9c0.4,0,0.7-0.2,0.8-0.6l3.3-11.5c0.1-0.2,0-0.5-0.1-0.7
			c-0.2-0.2-0.4-0.3-0.7-0.3h-20l-0.6-2.6c-0.1-0.4-0.4-0.6-0.8-0.6h-4.9c-0.5,0-0.8,0.4-0.8,0.8c0,0.5,0.4,0.8,0.8,0.8h4.3
			c0.1,0.5,2.8,12.6,3,13.3c-0.9,0.4-1.5,1.2-1.5,2.3c0,1.4,1.1,2.5,2.5,2.5h14.9c0.5,0,0.8-0.4,0.8-0.8c0-0.5-0.4-0.8-0.8-0.8H517
			c-0.5,0-0.8-0.4-0.8-0.8C515.9,96.8,516.3,96.4,516.8,96.4z M533.8,84.9l-2.8,9.8h-13.6l-2.2-9.8H533.8z"/>
		<path class="st76" d="M515.9,102.1c0,1.4,1.1,2.5,2.5,2.5s2.5-1.1,2.5-2.5s-1.1-2.5-2.5-2.5C517.1,99.7,515.9,100.8,515.9,102.1z
			 M518.4,101.3c0.5,0,0.8,0.4,0.8,0.8c0,0.5-0.4,0.8-0.8,0.8c-0.5,0-0.8-0.4-0.8-0.8C517.6,101.7,518,101.3,518.4,101.3z"/>
		<path class="st76" d="M527.5,102.1c0,1.4,1.1,2.5,2.5,2.5s2.5-1.1,2.5-2.5s-1.1-2.5-2.5-2.5C528.6,99.7,527.5,100.8,527.5,102.1z
			 M530,101.3c0.5,0,0.8,0.4,0.8,0.8c0,0.5-0.4,0.8-0.8,0.8c-0.5,0-0.8-0.4-0.8-0.8C529.2,101.7,529.5,101.3,530,101.3z"/>
	</g>
	<circle class="st77" cx="482" cy="148" r="7"/>
	<g>
		<path class="st78" d="M479.1,151.1c-0.7-0.8-1.1-1.8-1.1-3.2s0.4-2.4,1.1-3.2s1.7-1.2,3-1.2c1.1,0,2,0.3,2.7,0.8
			c0.7,0.6,1.1,1.3,1.2,2.3h-2c-0.2-0.9-0.9-1.5-2-1.5c-1.2,0-2,0.8-2,2v1.4c0,1.2,0.8,2,2,2c1,0,1.8-0.6,2-1.5h1.9
			c-0.1,1-0.5,1.7-1.2,2.3s-1.6,0.8-2.7,0.8C480.8,152.3,479.8,151.9,479.1,151.1z"/>
	</g>
	<circle class="st79" cx="528.5" cy="203.5" r="3"/>
	<circle class="st79" cx="528.5" cy="180.5" r="3"/>
	<circle class="st79" cx="514.5" cy="192.5" r="3"/>
	<line class="st79" x1="516.7" y1="194.1" x2="526.5" y2="201.5"/>
	<line class="st79" x1="526.4" y1="182.3" x2="516.5" y2="190.7"/>
	<path class="st79" d="M517.1,190.9"/>
	<circle class="st77" cx="532" cy="192" r="7"/>
	<g>
		<path class="st78" d="M529.1,195.1c-0.7-0.8-1.1-1.8-1.1-3.2s0.4-2.4,1.1-3.2c0.7-0.8,1.7-1.2,3-1.2c1.1,0,2,0.3,2.7,0.8
			c0.3,0.2,0.6,0.5,0.7,0.9c0.4,0.6-0.1,1.4-0.9,1.4l0,0c-0.4,0-0.7-0.2-0.9-0.5c-0.3-0.6-0.9-0.9-1.8-0.9c-1.2,0-2,0.8-2,2v1.4
			c0,1.2,0.8,2,2,2c0.8,0,1.5-0.4,1.8-1c0.2-0.3,0.5-0.5,0.8-0.5h1.3c-0.1,1-0.5,1.7-1.2,2.3s-1.6,0.8-2.7,0.8
			C530.8,196.3,529.8,195.9,529.1,195.1z"/>
	</g>
	<path class="st80" d="M30.5,288.5h-20c-1.6,0-3-1.4-3-3v-12c0-1.6,1.4-3,3-3h20c1.7,0,3,1.4,3,3v12
		C33.5,287.1,32.2,288.5,30.5,288.5z"/>
	<line class="st81" x1="7.5" y1="274.5" x2="33.5" y2="274.5"/>
	<line class="st81" x1="7.5" y1="278.5" x2="33.5" y2="278.5"/>
	<line class="st81" x1="11.5" y1="283.5" x2="16.5" y2="283.5"/>
	<path class="st80" d="M67.5,288.5h-20c-1.7,0-3-1.4-3-3v-12c0-1.6,1.3-3,3-3h20c1.7,0,3,1.4,3,3v12
		C70.5,287.1,69.2,288.5,67.5,288.5z"/>
	<line class="st81" x1="44.5" y1="274.5" x2="70.5" y2="274.5"/>
	<line class="st81" x1="44.5" y1="278.5" x2="70.5" y2="278.5"/>
	<line class="st81" x1="48.5" y1="283.5" x2="53.5" y2="283.5"/>
	<circle class="st82" cx="69.5" cy="283.5" r="6"/>
	<polyline class="st83" points="66.5,283.5 69.5,286.5 72.5,281.5 	"/>
	<rect x="86.5" y="270.5" class="st81" width="19" height="16"/>
	<circle class="st82" cx="92.5" cy="286.5" r="3"/>
	<polygon class="st81" points="105.5,273.5 111.5,273.5 112.5,277.5 116.5,279.5 116.5,286.5 105.5,286.5 	"/>
	<circle class="st82" cx="111.5" cy="286.5" r="3"/>
	<polyline class="st80" points="107.5,278.5 109.5,278.5 109.5,276.5 	"/>
	<line class="st81" x1="90.5" y1="275.5" x2="85.5" y2="275.5"/>
	<line class="st81" x1="90.5" y1="279.5" x2="83.5" y2="279.5"/>
	<circle class="st84" cx="725" cy="264" r="3.5"/>
	<polygon class="st81" points="125.5,274.5 140.5,283.5 154.5,274.5 139.5,267.5 	"/>
	<line class="st81" x1="134.5" y1="279.5" x2="147.5" y2="271.5"/>
	<polyline class="st81" points="125.5,274.5 125.5,282.5 140.5,291.5 154.5,282.5 154.5,274.5 	"/>
	<line class="st81" x1="140.4" y1="291.3" x2="140.5" y2="283.5"/>
	<line class="st81" x1="137.5" y1="285.5" x2="132.5" y2="282.5"/>
	<path class="st80" d="M30.5,328.5h-20c-1.6,0-3-1.4-3-3v-12c0-1.6,1.4-3,3-3h20c1.7,0,3,1.4,3,3v12
		C33.5,327.1,32.2,328.5,30.5,328.5z"/>
	<line class="st81" x1="7.5" y1="314.5" x2="33.5" y2="314.5"/>
	<line class="st81" x1="7.5" y1="318.5" x2="33.5" y2="318.5"/>
	<line class="st81" x1="11.5" y1="323.5" x2="16.5" y2="323.5"/>
	<line class="st81" x1="254.5" y1="313.5" x2="265.5" y2="313.5"/>
	<line class="st81" x1="254.5" y1="316.5" x2="265.5" y2="316.5"/>
	<line class="st81" x1="254.5" y1="319.5" x2="265.5" y2="319.5"/>
	<line class="st81" x1="254.5" y1="322.5" x2="261.5" y2="322.5"/>
	<path class="st80" d="M67.5,328.5h-20c-1.7,0-3-1.4-3-3v-12c0-1.6,1.3-3,3-3h20c1.7,0,3,1.4,3,3v12
		C70.5,327.1,69.2,328.5,67.5,328.5z"/>
	<line class="st81" x1="44.5" y1="314.5" x2="70.5" y2="314.5"/>
	<line class="st81" x1="44.5" y1="318.5" x2="70.5" y2="318.5"/>
	<line class="st81" x1="48.5" y1="323.5" x2="53.5" y2="323.5"/>
	<circle class="st82" cx="69.5" cy="323.5" r="6"/>
	<line class="st81" x1="71.5" y1="321.5" x2="67.5" y2="325.5"/>
	<rect x="86.5" y="310.5" class="st81" width="19" height="16"/>
	<circle class="st82" cx="92.5" cy="326.5" r="3"/>
	<polygon class="st81" points="105.5,313.5 111.5,313.5 112.5,317.5 116.5,319.5 116.5,326.5 105.5,326.5 	"/>
	<circle class="st82" cx="111.5" cy="326.5" r="3"/>
	<polyline class="st80" points="107.5,318.5 109.5,318.5 109.5,316.5 	"/>
	<line class="st81" x1="90.5" y1="315.5" x2="85.5" y2="315.5"/>
	<line class="st81" x1="90.5" y1="319.5" x2="83.5" y2="319.5"/>
	<polygon class="st81" points="125.5,314.5 140.5,323.5 154.5,314.5 139.5,307.5 	"/>
	<line class="st81" x1="134.5" y1="319.5" x2="147.5" y2="311.5"/>
	<polyline class="st81" points="125.5,314.5 125.5,322.5 140.5,331.5 154.5,322.5 154.5,314.5 	"/>
	<line class="st81" x1="140.4" y1="331.3" x2="140.5" y2="323.5"/>
	<line class="st81" x1="137.5" y1="325.5" x2="132.5" y2="322.5"/>
	<line class="st81" x1="71.5" y1="325.5" x2="67.5" y2="321.5"/>
	<circle class="st82" cx="149.5" cy="326.5" r="6"/>
	<path class="st82" d="M147.5,324.5h4c0,0,1,0,1,1s0,2,0,2s0,1-1,1s-5,0-5,0"/>
	<polyline class="st81" points="148.5,326.5 146.5,328.5 148.5,330.5 	"/>
	<polygon class="st81" points="125.5,354.5 140.5,363.5 154.5,354.5 139.5,347.5 	"/>
	<line class="st81" x1="134.5" y1="359.5" x2="147.5" y2="351.5"/>
	<polyline class="st81" points="125.5,354.5 125.5,362.5 140.5,371.5 154.5,362.5 154.5,354.5 	"/>
	<line class="st81" x1="140.4" y1="371.3" x2="140.5" y2="363.5"/>
	<line class="st81" x1="137.5" y1="365.5" x2="132.5" y2="362.5"/>
	<circle class="st82" cx="149.5" cy="366.5" r="6"/>
	<polyline class="st83" points="146.5,366.5 149.5,369.5 152.5,364.5 	"/>
	<rect x="250.5" y="308.5" class="st80" width="19" height="22"/>
	<path class="st84" d="M722.5,266.5"/>
	<path class="st84" d="M725.7,267.5"/>
	<circle class="st84" cx="725" cy="264" r="5.5"/>
	<polyline class="st84" points="725.5,269.5 727.5,275.5 728.5,272.5 731.5,274.5 728.9,267.9 	"/>
	<polyline class="st84" points="724.5,269.5 722.5,275.5 721.5,272.5 718.5,274.5 721.1,267.9 	"/>
	<circle class="st85" cx="580.5" cy="203.5" r="3"/>
	<circle class="st85" cx="580.5" cy="180.5" r="3"/>
	<circle class="st85" cx="566.5" cy="192.5" r="3"/>
	<line class="st85" x1="568.7" y1="194.1" x2="578.5" y2="201.5"/>
	<line class="st85" x1="578.4" y1="182.3" x2="568.5" y2="190.7"/>
	<path class="st86" d="M569.1,190.9"/>
	<circle class="st77" cx="584" cy="192" r="7"/>
	<g>
		<path class="st78" d="M581.1,195.1c-0.7-0.8-1.1-1.8-1.1-3.2s0.4-2.4,1.1-3.2c0.7-0.8,1.7-1.2,3-1.2c1.1,0,2,0.3,2.7,0.8
			c0.3,0.2,0.6,0.5,0.7,0.9c0.4,0.6-0.1,1.4-0.9,1.4l0,0c-0.4,0-0.7-0.2-0.9-0.5c-0.3-0.6-0.9-0.9-1.8-0.9c-1.2,0-2,0.8-2,2v1.4
			c0,1.2,0.8,2,2,2c0.8,0,1.5-0.4,1.8-1c0.2-0.3,0.5-0.5,0.8-0.5h1.3c-0.1,1-0.5,1.7-1.2,2.3s-1.6,0.8-2.7,0.8
			C582.8,196.3,581.8,195.9,581.1,195.1z"/>
	</g>
	<circle class="st2" cx="482" cy="168" r="9"/>
	<circle class="st77" cx="482" cy="168" r="7"/>
	<g>
		<path class="st78" d="M479.1,171.1c-0.7-0.8-1.1-1.8-1.1-3.2s0.4-2.4,1.1-3.2s1.7-1.2,3-1.2c1.1,0,2,0.3,2.7,0.8
			c0.7,0.6,1.1,1.3,1.2,2.3h-2c-0.2-0.9-0.9-1.5-2-1.5c-1.2,0-2,0.8-2,2v1.4c0,1.2,0.8,2,2,2c1,0,1.8-0.6,2-1.5h1.9
			c-0.1,1-0.5,1.7-1.2,2.3s-1.6,0.8-2.7,0.8C480.8,172.3,479.8,171.9,479.1,171.1z"/>
	</g>
	<circle class="st2" cx="482" cy="188" r="9"/>
	<circle class="st77" cx="482" cy="188" r="7"/>
	<g>
		<path class="st78" d="M479.3,190.8c-0.6-0.7-1-1.7-1-2.9s0.3-2.2,1-2.9s1.6-1.1,2.7-1.1c1,0,1.8,0.3,2.4,0.8s1,1.2,1.1,2.1h-1.8
			c-0.2-0.8-0.8-1.3-1.8-1.3c-1.1,0-1.9,0.7-1.9,1.8v1.3c0,1.1,0.7,1.8,1.9,1.8c0.9,0,1.6-0.5,1.8-1.4h1.8c-0.1,0.9-0.5,1.6-1.1,2.1
			s-1.5,0.8-2.5,0.8C480.9,191.9,480,191.5,479.3,190.8z"/>
	</g>
	<circle class="st2" cx="470" cy="246" r="19"/>
	<circle class="st77" cx="470" cy="246" r="14.8"/>
	<g>
		<path class="st78" d="M464.4,252c-1.4-1.5-2-3.5-2-6.1s0.7-4.6,2.1-6.1s3.3-2.2,5.8-2.2c2.1,0,3.8,0.5,5.1,1.6
			c1.4,1.1,2.1,2.5,2.3,4.3H474c-0.3-1.7-1.7-2.8-3.8-2.8c-2.4,0-3.9,1.5-3.9,3.9v2.7c0,2.3,1.5,3.8,3.9,3.8c2,0,3.4-1.1,3.8-2.9
			h3.7c-0.2,1.8-1,3.3-2.4,4.4c-1.4,1.1-3.1,1.6-5.2,1.6C467.7,254.2,465.8,253.5,464.4,252z"/>
	</g>
	<circle class="st81" cx="180" cy="280" r="12"/>
	<circle class="st81" cx="219.5" cy="280.5" r="12"/>
	<g>
		<path class="st87" d="M175.5,284.9c-1.1-1.2-1.7-2.9-1.7-4.9c0-2.1,0.6-3.8,1.7-5c1.1-1.2,2.7-1.8,4.7-1.8c1.7,0,3.1,0.4,4.2,1.3
			c1.1,0.9,1.7,2.1,1.8,3.5h-3c-0.3-1.4-1.4-2.3-3.1-2.3c-1.9,0-3.2,1.2-3.2,3.2v2.2c0,1.8,1.2,3.1,3.2,3.1c1.6,0,2.8-0.9,3.1-2.3h3
			c-0.2,1.5-0.8,2.7-1.9,3.6c-1.1,0.9-2.5,1.3-4.2,1.3C178.1,286.7,176.6,286.1,175.5,284.9z"/>
	</g>
	<circle class="st2" cx="452" cy="188" r="9"/>
	<circle class="st88" cx="452" cy="188" r="7"/>
	<g>
		<path class="st89" d="M448.1,191.5v-7.2h2l1.8,4h0.1l1.7-4h2v7.2H454v-3l0.1-2H454l-2.2,4.9l-2.2-4.9h-0.1l0.1,2v3H448.1z"/>
	</g>
	<text transform="matrix(1 0 0 1 447.3174 210.502)" class="st90 st91 st92">M</text>
	<g>
		<path class="st87" d="M212.1,285.1v-9.7h2.4l0.3,1.8h0.2c0.5-1.3,1.5-2,2.8-2c1.4,0,2.3,0.7,2.8,2h0.2c0.6-1.3,1.6-2,3-2
			c2.1,0,3.2,1.6,3.2,4v5.9h-2.8v-5.6c0-1.4-0.5-2.1-1.5-2.1c-1.2,0-1.8,0.9-1.8,2.2v5.4h-2.8v-5.6c0-1.4-0.5-2.1-1.5-2.1
			c-1.1,0-1.8,0.9-1.8,2.2v5.5h-2.7V285.1z"/>
	</g>
	<text transform="matrix(1 0 0 1 210.9995 412.0664)" class="st87 st91 st93">m</text>
	<path class="st81" d="M257.5,279.5h-4l-5,4l1-4c-1.6,0-3-1.4-3-3v-5c0-1.6,1.4-3,3-3h8c1.6,0,3,1.4,3,3v5
		C260.5,278.1,259.1,279.5,257.5,279.5z"/>
	<path class="st83" d="M259.7,286.3h4.7l5.8,4.7l-1.2-4.7c1.9,0,3.5-1.6,3.5-3.5V277c0-1.9-1.6-3.5-3.5-3.5h-9.3
		c-1.9,0-3.5,1.6-3.5,3.5v5.8C256.2,284.8,257.7,286.3,259.7,286.3z"/>
	<circle class="st87" cx="260" cy="280" r="1"/>
	<circle class="st87" cx="264" cy="280" r="1"/>
	<circle class="st87" cx="268" cy="280" r="1"/>
	<circle class="st87" cx="256" cy="357" r="1"/>
	<circle class="st87" cx="260" cy="357" r="1"/>
	<circle class="st87" cx="264" cy="357" r="1"/>
	<circle class="st81" cx="180" cy="320" r="12"/>
	<circle class="st81" cx="219.5" cy="320.5" r="12"/>
	<g>
		<path class="st87" d="M175.5,324.9c-1.1-1.2-1.7-2.9-1.7-4.9c0-2.1,0.6-3.8,1.7-5c1.1-1.2,2.7-1.8,4.7-1.8c1.7,0,3.1,0.4,4.2,1.3
			c1.1,0.9,1.7,2.1,1.8,3.5h-3c-0.3-1.4-1.4-2.3-3.1-2.3c-1.9,0-3.2,1.2-3.2,3.2v2.2c0,1.8,1.2,3.1,3.2,3.1c1.6,0,2.8-0.9,3.1-2.3h3
			c-0.2,1.5-0.8,2.7-1.9,3.6c-1.1,0.9-2.5,1.3-4.2,1.3C178.1,326.7,176.6,326.1,175.5,324.9z"/>
	</g>
	<g>
		<path class="st87" d="M212.1,325.1v-9.7h2.4l0.3,1.8h0.2c0.5-1.3,1.5-2,2.8-2c1.4,0,2.3,0.7,2.8,2h0.2c0.6-1.3,1.6-2,3-2
			c2.1,0,3.2,1.6,3.2,4v5.9h-2.8v-5.6c0-1.4-0.5-2.1-1.5-2.1c-1.2,0-1.8,0.9-1.8,2.2v5.4h-2.8v-5.6c0-1.4-0.5-2.1-1.5-2.1
			c-1.1,0-1.8,0.9-1.8,2.2v5.5h-2.7V325.1z"/>
	</g>
	<path class="st81" d="M267.5,366.5h-1l1,5l-8-5h-7c-2.2,0-4-1.8-4-4v-10c0-2.2,1.8-4,4-4h15c2.2,0,4,1.8,4,4v10
		C271.5,364.7,269.7,366.5,267.5,366.5z"/>
	<circle class="st77" cx="482.5" cy="208.5" r="6.6"/>
	<g>
		<path class="st78" d="M479.7,211.4c-0.6-0.7-1-1.7-1-3s0.4-2.3,1-3c0.7-0.7,1.6-1.1,2.8-1.1c1,0,1.8,0.2,2.6,0.8
			c0.6,0.5,1,1.2,1.1,2.2h-1.8c-0.1-0.9-0.9-1.3-1.8-1.3c-1.2,0-1.9,0.7-1.9,1.9v1.3c0,1.1,0.7,1.8,1.9,1.8c1,0,1.7-0.5,1.8-1.5h1.8
			c-0.1,0.9-0.5,1.6-1.2,2.2c-0.6,0.5-1.5,0.9-2.5,0.9C481.4,212.5,480.4,212.1,479.7,211.4z"/>
	</g>
</g>
<g id="빠른배송_x5F_원본" class="st0">
	<g class="st94">
		<path d="M585.3,271.4V264h1.1v2.8h1V264h1.1v7.4H585.3z M587.4,267.8h-1v2.6h1V267.8z M589.2,271.4V264h1.1v2.8h1V264h1.1v7.4
			H589.2z M591.3,267.8h-1v2.6h1V267.8z M594.5,268.2v6h-1.2V263h1.2v4.1h1.5v1h-1.5V268.2z"/>
		<path d="M596.6,270.7v-1h10.5v1H596.6z M598.1,268.7v-3.1h6.2v-1.1h-6.2v-1h7.4v3h-6.2v1.2h6.5v1H598.1z M599.3,271.4v2.1h6.4v1
			H598v-3.1H599.3z"/>
		<path d="M608.4,271.2V264h1.2v2.7h2.2V264h1.2v7.2H608.4z M611.8,267.7h-2.2v2.5h2.2V267.7z M616.8,274.3v-6h-1.3v5.5h-1.2v-10.5
			h1.2v4h1.3v-4.2h1.2v11.2H616.8z"/>
		<path d="M619.5,269.7v-1h4.6V267h1.2v1.7h4.6v1H619.5z M625.4,263.2v0.4c0,1.6,2.1,2.9,3.9,3.1l-0.5,1c-1.8-0.3-3.5-1.4-4.1-2.5
			c-0.5,1.2-2.2,2.2-4.1,2.5l-0.5-1c1.9-0.2,3.9-1.5,3.9-3.1v-0.4H625.4z M624.8,274.9c-2.3,0-3.7-0.8-3.7-2.2
			c0-1.4,1.4-2.2,3.7-2.2s3.7,0.9,3.7,2.2C628.5,274.1,627,274.9,624.8,274.9z M624.8,271.5c-1.5,0-2.5,0.5-2.5,1.2s1,1.2,2.5,1.2
			s2.5-0.5,2.5-1.2C627.2,272,626.3,271.5,624.8,271.5z"/>
	</g>
	<line class="st95" x1="573.5" y1="272.5" x2="564.5" y2="272.5"/>
	<polyline class="st95" points="564.5,264.5 573.5,264.5 573.5,268.5 577.5,268.5 	"/>
	<circle class="st96" cx="567.5" cy="273" r="1.5"/>
	<polyline class="st95" points="573.5,266.5 577,266.5 577.5,268.5 579.5,269.5 579.5,272.5 573.5,272.5 	"/>
	<circle class="st96" cx="576" cy="273" r="1.5"/>
	<line class="st95" x1="565.5" y1="268.5" x2="563.5" y2="268.5"/>
	<line class="st95" x1="565.5" y1="266.5" x2="563.5" y2="266.5"/>
	<line class="st95" x1="565.5" y1="270.5" x2="562.5" y2="270.5"/>
</g>
<g id="레이어_5_사본" class="st0">
	<path class="st97" d="M629.5,278h-61c-4.7,0-8.5-3.8-8.5-8.5v-1c0-4.7,3.8-8.5,8.5-8.5h61c4.7,0,8.5,3.8,8.5,8.5v1
		C638,274.2,634.2,278,629.5,278z"/>
	<polygon class="st98" points="573.7,266.6 577,266.6 577.5,268.6 573.7,268.7 	"/>
	<polygon class="st99" points="564.5,272.5 579.5,272.5 579.5,269.5 577.5,268.5 573.5,268.5 573.5,264.5 564.6,264.5 562.7,270.4 	
		"/>
	<g class="st94">
		<path d="M585.3,271.4V264h1.1v2.8h1V264h1.1v7.4H585.3z M587.4,267.8h-1v2.6h1V267.8z M589.2,271.4V264h1.1v2.8h1V264h1.1v7.4
			H589.2z M591.3,267.8h-1v2.6h1V267.8z M594.5,268.2v6h-1.2V263h1.2v4.1h1.5v1h-1.5V268.2z"/>
		<path d="M596.6,270.7v-1h10.5v1H596.6z M598.1,268.7v-3.1h6.2v-1.1h-6.2v-1h7.4v3h-6.2v1.2h6.5v1H598.1z M599.3,271.4v2.1h6.4v1
			H598v-3.1H599.3z"/>
		<path d="M608.4,271.2V264h1.2v2.7h2.2V264h1.2v7.2H608.4z M611.8,267.7h-2.2v2.5h2.2V267.7z M616.8,274.3v-6h-1.3v5.5h-1.2v-10.5
			h1.2v4h1.3v-4.2h1.2v11.2H616.8z"/>
		<path d="M619.5,269.7v-1h4.6V267h1.2v1.7h4.6v1H619.5z M625.4,263.2v0.4c0,1.6,2.1,2.9,3.9,3.1l-0.5,1c-1.8-0.3-3.5-1.4-4.1-2.5
			c-0.5,1.2-2.2,2.2-4.1,2.5l-0.5-1c1.9-0.2,3.9-1.5,3.9-3.1v-0.4H625.4z M624.8,274.9c-2.3,0-3.7-0.8-3.7-2.2
			c0-1.4,1.4-2.2,3.7-2.2s3.7,0.9,3.7,2.2C628.5,274.1,627,274.9,624.8,274.9z M624.8,271.5c-1.5,0-2.5,0.5-2.5,1.2s1,1.2,2.5,1.2
			s2.5-0.5,2.5-1.2C627.2,272,626.3,271.5,624.8,271.5z"/>
	</g>
	<line class="st95" x1="573.5" y1="272.5" x2="564.5" y2="272.5"/>
	<circle class="st98" cx="567.5" cy="273" r="1.5"/>
	<polyline class="st95" points="564.5,264.5 573.5,264.5 573.5,268.5 577.5,268.5 	"/>
	<circle class="st100" cx="567.5" cy="273" r="1.5"/>
	<polyline class="st95" points="573.5,266.5 577,266.5 577.5,268.5 579.5,269.5 579.5,272.5 573.5,272.5 	"/>
	<circle class="st98" cx="576" cy="273" r="1.5"/>
	<line class="st101" x1="565.5" y1="268.5" x2="563.5" y2="268.5"/>
	<line class="st101" x1="565.5" y1="266.5" x2="563.5" y2="266.5"/>
	<line class="st101" x1="565.5" y1="270.5" x2="562.5" y2="270.5"/>
	<text transform="matrix(1 0 0 1 583.5963 331.8216)" class="st102 st103 st43">빠른배송</text>
	<text transform="matrix(1 0 0 1 584.5963 297.8216)" class="st102 st103 st43">빠른배송</text>
	<text transform="matrix(1 0 0 1 584.5963 313.964)" class="st102 st103 st43">빠른배송</text>
	<circle class="st100" cx="576" cy="273" r="1.5"/>
	
		<image style="display:inline;overflow:visible;enable-background:new    ;" width="91" height="29" xlink:href="DDED359F.jpg"  transform="matrix(0.9868 0 0 0.9868 550.2981 346.512)">
	</image>
</g>
<g id="레이어_5_사본_2">
	<path class="st75" d="M629,278h-60c-5,0-9-4-9-9l0,0c0-5,4-9,9-9h60c5,0,9,4,9,9l0,0C638,274,634,278,629,278z"/>
	<g>
		<path d="M585.1,271.4V264h1.2v2.7h0.9V264h1.2v7.5h-3.3V271.4z M587.2,267.8h-0.9v2.5h0.9V267.8z M589.1,271.4V264h1.2v2.7h0.9
			V264h1.2v7.5h-3.3V271.4z M591.2,267.8h-0.9v2.5h0.9V267.8z M594.5,268.3v6h-1.3v-11.2h1.3v4.1h1.5v1.2h-1.5V268.3z"/>
		<path d="M596.6,270.7v-1.1h10.6v1.1H596.6z M599.4,271.4v2h6.3v1.1H598v-3.1H599.4z M598.1,268.7v-3.2h6.1v-1h-6.1v-1.1h7.5v3.1
			h-6.1v1h6.4v1.1h-7.8V268.7z"/>
		<path d="M608.4,271.2V264h1.4v2.6h1.9V264h1.4v7.2H608.4z M611.6,267.7h-1.9v2.4h1.9V267.7z M616.7,274.3v-5.9h-1.1v5.4h-1.3
			v-10.5h1.3v3.9h1.1v-4.1h1.3v11.2H616.7z"/>
		<path d="M619.6,269.8v-1.1h4.6v-1.6h1.4v1.6h4.6v1.1H619.6z M625.6,263.2v0.4c0,1.6,2.1,2.8,3.9,3l-0.6,1.1
			c-1.7-0.3-3.5-1.3-4-2.5c-0.6,1.2-2.3,2.2-4.1,2.5l-0.6-1.1c1.9-0.2,3.9-1.4,3.9-3v-0.4H625.6z M624.9,275c-2.3,0-3.7-0.8-3.7-2.3
			c0-1.4,1.5-2.3,3.7-2.3c2.3,0,3.7,0.9,3.7,2.3C628.6,274.1,627.1,275,624.9,275z M624.8,271.6c-1.4,0-2.3,0.5-2.3,1.1
			c0,0.7,0.9,1.1,2.3,1.1c1.4,0,2.3-0.5,2.3-1.1C627.2,272,626.2,271.6,624.8,271.6z"/>
	</g>
	
		<image style="overflow:visible;enable-background:new    ;" width="90" height="28" xlink:href="DDED359E.jpg"  transform="matrix(0.9999 0 0 0.9999 558 366)">
	</image>
	<g>
		<g>
			<defs>
				<path id="SVGID_11_" d="M629,278h-60c-5,0-9-4-9-9l0,0c0-5,4-9,9-9h60c5,0,9,4,9,9l0,0C638,274,634,278,629,278z"/>
			</defs>
			<clipPath id="SVGID_12_">
				<use xlink:href="#SVGID_11_"  style="overflow:visible;"/>
			</clipPath>
			<g class="st104">
				<circle class="st105" cx="570.3" cy="274.3" r="1.8"/>
				<path class="st106" d="M575.5,264.5c1.3,1.3,2.7,2.7,4,4v5h-9c0-3,0-6,0-9C572.2,264.5,573.8,264.5,575.5,264.5z"/>
				<circle class="st107" cx="575.8" cy="274.3" r="1.8"/>
				<path class="st108" d="M570.5,262.5c-5,0-10,0-15,0v11c5,0,10,0,15,0C570.5,269.8,570.5,266.2,570.5,262.5z"/>
				<line class="st109" x1="564.5" y1="267.5" x2="562.5" y2="267.5"/>
				<line class="st109" x1="564.5" y1="265.5" x2="562.5" y2="265.5"/>
				<line class="st109" x1="564.5" y1="269.5" x2="561.5" y2="269.5"/>
				<path class="st110" d="M575.5,269h-2c-0.3,0-0.5-0.2-0.5-0.5v-1c0-0.3,0.2-0.5,0.5-0.5h2c0.3,0,0.5,0.2,0.5,0.5v1
					C576,268.8,575.8,269,575.5,269z"/>
				<path class="st111" d="M577.5,271h-1c-0.3,0-0.5-0.2-0.5-0.5l0,0c0-0.3,0.2-0.5,0.5-0.5h1c0.3,0,0.5,0.2,0.5,0.5l0,0
					C578,270.8,577.8,271,577.5,271z"/>
			</g>
		</g>
	</g>
	<text transform="matrix(1 0 0 1 584.5963 360.8216)" class="st112 st103 st43">빠른배송</text>
	<text transform="matrix(1 0 0 1 584.5963 338.8216)" class="st113 st43">신선배송</text>
</g>
<g id="레이어_11" class="st0">
	<path class="st97" d="M629,311h-60c-5,0-9-4-9-9l0,0c0-5,4-9,9-9h60c5,0,9,4,9,9l0,0C638,307,634,311,629,311z"/>
	<g class="st94">
		<g>
			<defs>
				<path id="SVGID_13_" d="M629,311h-60c-5,0-9-4-9-9l0,0c0-5,4-9,9-9h60c5,0,9,4,9,9l0,0C638,307,634,311,629,311z"/>
			</defs>
			<clipPath id="SVGID_14_">
				<use xlink:href="#SVGID_13_"  style="overflow:visible;"/>
			</clipPath>
			<g class="st114">
				<circle class="st105" cx="570.3" cy="307.3" r="1.8"/>
				<path class="st115" d="M575.5,297.5c1.3,1.3,2.7,2.7,4,4v5h-9c0-3,0-6,0-9C572.2,297.5,573.8,297.5,575.5,297.5z"/>
				<circle class="st107" cx="575.8" cy="307.3" r="1.8"/>
				<path class="st116" d="M570.5,295.5c-5,0-10,0-15,0v11c5,0,10,0,15,0C570.5,302.8,570.5,299.2,570.5,295.5z"/>
				<line class="st109" x1="564.5" y1="300.5" x2="562.5" y2="300.5"/>
				<line class="st109" x1="564.5" y1="298.5" x2="562.5" y2="298.5"/>
				<line class="st109" x1="564.5" y1="302.5" x2="561.5" y2="302.5"/>
				<path class="st110" d="M575.5,302h-2c-0.3,0-0.5-0.2-0.5-0.5v-1c0-0.3,0.2-0.5,0.5-0.5h2c0.3,0,0.5,0.2,0.5,0.5v1
					C576,301.8,575.8,302,575.5,302z"/>
				<path class="st111" d="M577.5,304h-1c-0.3,0-0.5-0.2-0.5-0.5l0,0c0-0.3,0.2-0.5,0.5-0.5h1c0.3,0,0.5,0.2,0.5,0.5l0,0
					C578,303.8,577.8,304,577.5,304z"/>
			</g>
		</g>
	</g>
	<g class="st94">
		<path d="M591.4,302.7c-1-0.4-2.3-1.5-2.8-2.6c-0.4,1.2-1.6,2.4-2.8,2.9l-0.8-1c1.6-0.7,2.9-2.3,2.9-4.1v-1.2h1.4v1.2
			c0,1.9,1.4,3.3,2.8,3.8L591.4,302.7z M587.4,307.5v-3.8h1.4v2.7h6.3v1.1L587.4,307.5L587.4,307.5z M593.4,304.5v-8.4h1.4v8.4
			H593.4z"/>
		<path d="M602.7,302.9c-1-0.4-2.2-1.5-2.7-2.6c-0.4,1.2-1.5,2.4-2.7,2.9l-0.8-1.1c1.6-0.7,2.8-2.2,2.8-4v-1.4h1.4v1.4
			c0,1.8,1.4,3.3,2.8,3.8L602.7,302.9z M599,307.5v-3.8h1.4v2.7h6.2v1.1L599,307.5L599,307.5z M604.9,304.5v-4.6h-2.2v-1.1h2.2v-2.6
			h1.4v8.4L604.9,304.5L604.9,304.5z"/>
		<path d="M608.4,304.2V297h1.4v2.6h1.9V297h1.4v7.2H608.4z M611.6,300.7h-1.9v2.4h1.9V300.7z M616.7,307.3v-5.9h-1.1v5.4h-1.3
			v-10.5h1.3v3.9h1.1v-4.1h1.3v11.2H616.7z"/>
		<path d="M619.6,302.8v-1.1h4.6v-1.6h1.4v1.6h4.6v1.1H619.6z M625.6,296.2v0.4c0,1.6,2.1,2.8,3.9,3l-0.6,1.1
			c-1.7-0.3-3.5-1.3-4-2.5c-0.6,1.2-2.3,2.2-4.1,2.5l-0.6-1.1c1.9-0.2,3.9-1.4,3.9-3v-0.4H625.6z M624.9,308c-2.3,0-3.7-0.8-3.7-2.3
			c0-1.4,1.5-2.3,3.7-2.3c2.3,0,3.7,0.9,3.7,2.3C628.6,307.1,627.1,308,624.9,308z M624.8,304.6c-1.4,0-2.3,0.5-2.3,1.1
			c0,0.7,0.9,1.1,2.3,1.1c1.4,0,2.3-0.5,2.3-1.1C627.2,305,626.2,304.6,624.8,304.6z"/>
	</g>
</g>
<g id="레이어_13">
	<path class="st117" d="M629,311h-60c-5,0-9-4-9-9l0,0c0-5,4-9,9-9h60c5,0,9,4,9,9l0,0C638,307,634,311,629,311z"/>
	<g>
		<g>
			<defs>
				<path id="SVGID_15_" d="M629,311h-60c-5,0-9-4-9-9l0,0c0-5,4-9,9-9h60c5,0,9,4,9,9l0,0C638,307,634,311,629,311z"/>
			</defs>
			<clipPath id="SVGID_16_">
				<use xlink:href="#SVGID_15_"  style="overflow:visible;"/>
			</clipPath>
			<g class="st118">
				<circle class="st105" cx="570.3" cy="307.3" r="1.8"/>
				<path class="st115" d="M575.5,297.5c1.3,1.3,2.7,2.7,4,4v5h-9c0-3,0-6,0-9C572.2,297.5,573.8,297.5,575.5,297.5z"/>
				<circle class="st107" cx="575.8" cy="307.3" r="1.8"/>
				<path class="st116" d="M570.5,295.5c-5,0-10,0-15,0v11c5,0,10,0,15,0C570.5,302.8,570.5,299.2,570.5,295.5z"/>
				<line class="st109" x1="564.5" y1="300.5" x2="562.5" y2="300.5"/>
				<line class="st109" x1="564.5" y1="298.5" x2="562.5" y2="298.5"/>
				<line class="st109" x1="564.5" y1="302.5" x2="561.5" y2="302.5"/>
				<path class="st110" d="M575.5,302h-2c-0.3,0-0.5-0.2-0.5-0.5v-1c0-0.3,0.2-0.5,0.5-0.5h2c0.3,0,0.5,0.2,0.5,0.5v1
					C576,301.8,575.8,302,575.5,302z"/>
				<path class="st111" d="M577.5,304h-1c-0.3,0-0.5-0.2-0.5-0.5l0,0c0-0.3,0.2-0.5,0.5-0.5h1c0.3,0,0.5,0.2,0.5,0.5l0,0
					C578,303.8,577.8,304,577.5,304z"/>
			</g>
		</g>
	</g>
	<g>
		<path d="M591.4,302.7c-1-0.4-2.3-1.5-2.8-2.6c-0.4,1.2-1.6,2.4-2.8,2.9l-0.8-1c1.6-0.7,2.9-2.3,2.9-4.1v-1.2h1.4v1.2
			c0,1.9,1.4,3.3,2.8,3.8L591.4,302.7z M587.4,307.5v-3.8h1.4v2.7h6.3v1.1L587.4,307.5L587.4,307.5z M593.4,304.5v-8.4h1.4v8.4
			H593.4z"/>
		<path d="M602.7,302.9c-1-0.4-2.2-1.5-2.7-2.6c-0.4,1.2-1.5,2.4-2.7,2.9l-0.8-1.1c1.6-0.7,2.8-2.2,2.8-4v-1.4h1.4v1.4
			c0,1.8,1.4,3.3,2.8,3.8L602.7,302.9z M599,307.5v-3.8h1.4v2.7h6.2v1.1L599,307.5L599,307.5z M604.9,304.5v-4.6h-2.2v-1.1h2.2v-2.6
			h1.4v8.4L604.9,304.5L604.9,304.5z"/>
		<path d="M608.4,304.2V297h1.4v2.6h1.9V297h1.4v7.2H608.4z M611.6,300.7h-1.9v2.4h1.9V300.7z M616.7,307.3v-5.9h-1.1v5.4h-1.3
			v-10.5h1.3v3.9h1.1v-4.1h1.3v11.2H616.7z"/>
		<path d="M619.6,302.8v-1.1h4.6v-1.6h1.4v1.6h4.6v1.1H619.6z M625.6,296.2v0.4c0,1.6,2.1,2.8,3.9,3l-0.6,1.1
			c-1.7-0.3-3.5-1.3-4-2.5c-0.6,1.2-2.3,2.2-4.1,2.5l-0.6-1.1c1.9-0.2,3.9-1.4,3.9-3v-0.4H625.6z M624.9,308c-2.3,0-3.7-0.8-3.7-2.3
			c0-1.4,1.5-2.3,3.7-2.3c2.3,0,3.7,0.9,3.7,2.3C628.6,307.1,627.1,308,624.9,308z M624.8,304.6c-1.4,0-2.3,0.5-2.3,1.1
			c0,0.7,0.9,1.1,2.3,1.1c1.4,0,2.3-0.5,2.3-1.1C627.2,305,626.2,304.6,624.8,304.6z"/>
	</g>
</g>
<g id="레이어_12" class="st0">
	<path class="st119" d="M629,311h-60c-5,0-9-4-9-9l0,0c0-5,4-9,9-9h60c5,0,9,4,9,9l0,0C638,307,634,311,629,311z"/>
	<g class="st94">
		<g>
			<defs>
				<path id="SVGID_17_" d="M629,311h-60c-5,0-9-4-9-9l0,0c0-5,4-9,9-9h60c5,0,9,4,9,9l0,0C638,307,634,311,629,311z"/>
			</defs>
			<clipPath id="SVGID_18_">
				<use xlink:href="#SVGID_17_"  style="overflow:visible;"/>
			</clipPath>
			<g class="st120">
				<circle class="st105" cx="570.3" cy="307.3" r="1.8"/>
				<path class="st106" d="M575.5,297.5c1.3,1.3,2.7,2.7,4,4v5h-9c0-3,0-6,0-9C572.2,297.5,573.8,297.5,575.5,297.5z"/>
				<circle class="st107" cx="575.8" cy="307.3" r="1.8"/>
				<path class="st108" d="M570.5,295.5c-5,0-10,0-15,0v11c5,0,10,0,15,0C570.5,302.8,570.5,299.2,570.5,295.5z"/>
				<line class="st109" x1="564.5" y1="300.5" x2="562.5" y2="300.5"/>
				<line class="st109" x1="564.5" y1="298.5" x2="562.5" y2="298.5"/>
				<line class="st109" x1="564.5" y1="302.5" x2="561.5" y2="302.5"/>
				<path class="st110" d="M575.5,302h-2c-0.3,0-0.5-0.2-0.5-0.5v-1c0-0.3,0.2-0.5,0.5-0.5h2c0.3,0,0.5,0.2,0.5,0.5v1
					C576,301.8,575.8,302,575.5,302z"/>
				<path class="st111" d="M577.5,304h-1c-0.3,0-0.5-0.2-0.5-0.5l0,0c0-0.3,0.2-0.5,0.5-0.5h1c0.3,0,0.5,0.2,0.5,0.5l0,0
					C578,303.8,577.8,304,577.5,304z"/>
			</g>
		</g>
	</g>
	<g class="st94">
		<path d="M591.4,302.7c-1-0.4-2.3-1.5-2.8-2.6c-0.4,1.2-1.6,2.4-2.8,2.9l-0.8-1c1.6-0.7,2.9-2.3,2.9-4.1v-1.2h1.4v1.2
			c0,1.9,1.4,3.3,2.8,3.8L591.4,302.7z M587.4,307.5v-3.8h1.4v2.7h6.3v1.1L587.4,307.5L587.4,307.5z M593.4,304.5v-8.4h1.4v8.4
			H593.4z"/>
		<path d="M602.7,302.9c-1-0.4-2.2-1.5-2.7-2.6c-0.4,1.2-1.5,2.4-2.7,2.9l-0.8-1.1c1.6-0.7,2.8-2.2,2.8-4v-1.4h1.4v1.4
			c0,1.8,1.4,3.3,2.8,3.8L602.7,302.9z M599,307.5v-3.8h1.4v2.7h6.2v1.1L599,307.5L599,307.5z M604.9,304.5v-4.6h-2.2v-1.1h2.2v-2.6
			h1.4v8.4L604.9,304.5L604.9,304.5z"/>
		<path d="M608.4,304.2V297h1.4v2.6h1.9V297h1.4v7.2H608.4z M611.6,300.7h-1.9v2.4h1.9V300.7z M616.7,307.3v-5.9h-1.1v5.4h-1.3
			v-10.5h1.3v3.9h1.1v-4.1h1.3v11.2H616.7z"/>
		<path d="M619.6,302.8v-1.1h4.6v-1.6h1.4v1.6h4.6v1.1H619.6z M625.6,296.2v0.4c0,1.6,2.1,2.8,3.9,3l-0.6,1.1
			c-1.7-0.3-3.5-1.3-4-2.5c-0.6,1.2-2.3,2.2-4.1,2.5l-0.6-1.1c1.9-0.2,3.9-1.4,3.9-3v-0.4H625.6z M624.9,308c-2.3,0-3.7-0.8-3.7-2.3
			c0-1.4,1.5-2.3,3.7-2.3c2.3,0,3.7,0.9,3.7,2.3C628.6,307.1,627.1,308,624.9,308z M624.8,304.6c-1.4,0-2.3,0.5-2.3,1.1
			c0,0.7,0.9,1.1,2.3,1.1c1.4,0,2.3-0.5,2.3-1.1C627.2,305,626.2,304.6,624.8,304.6z"/>
	</g>
</g>
<g id="레이어_10" class="st0">
	<path class="st97" d="M629.5,278h-61c-4.7,0-8.5-3.8-8.5-8.5v-1c0-4.7,3.8-8.5,8.5-8.5h61c4.7,0,8.5,3.8,8.5,8.5v1
		C638,274.2,634.2,278,629.5,278z"/>
</g>
<g id="레이어_8">
</g>
<g id="레이어_7">
</g>
<g id="레이어_26" class="st0">
	<polyline class="st121" points="509,80 513,80 517,96 532.3,96 535.5,83.5 514.1,83.5 	"/>
	<path class="st122" d="M532,99.9h-15.2c-1.1,0-1.9-0.9-1.9-1.9l0,0c0-1.1,0.9-1.9,1.9-1.9H531"/>
	<circle class="st122" cx="517.7" cy="102.8" r="1.8"/>
	<circle class="st122" cx="528.9" cy="102.8" r="1.8"/>
</g>
</svg>
