<?xml version="1.0" encoding="utf-8"?>
<!-- Generator: Adobe Illustrator 24.0.2, SVG Export Plug-In . SVG Version: 6.00 Build 0)  -->
<svg version="1.1" id="레이어_1" xmlns="http://www.w3.org/2000/svg" xmlns:xlink="http://www.w3.org/1999/xlink" x="0px"
	 y="0px" viewBox="0 0 95 35" style="enable-background:new 0 0 95 35;" xml:space="preserve">
<style type="text/css">
	.st0{fill:#040000;}
	.st1{fill:#FFFFFF;}
</style>
<g>
	<path class="st0" d="M78.3,35H16.7C7.6,35-0.1,27.4,0.1,18.1C0.3,9.2,7.5,2,16.4,2L78,2c9.2,0,16.8,7.6,16.7,16.9
		C94.4,27.8,87.2,35,78.3,35"/>
	<g>
		<path class="st1" d="M40.9,10.1v10.1c0,0.4,0,0.8-0.1,1.2c-0.1,0.4-0.3,0.7-0.5,1c-0.2,0.3-0.5,0.5-0.9,0.7
			c-0.4,0.2-0.8,0.3-1.3,0.3c-0.5,0-0.9-0.1-1.3-0.3c-0.4-0.2-0.7-0.4-0.9-0.7c-0.2-0.3-0.4-0.6-0.5-1c-0.1-0.4-0.2-0.8-0.2-1.2
			V10.1h-4.2v10.3c0,1,0.2,1.9,0.5,2.7c0.3,0.8,0.8,1.5,1.4,2.1c0.6,0.6,1.3,1,2.2,1.4c0.9,0.3,1.8,0.5,2.9,0.5c1.1,0,2-0.2,2.9-0.5
			c0.9-0.3,1.6-0.8,2.2-1.4c0.6-0.6,1.1-1.3,1.4-2.1c0.3-0.8,0.5-1.7,0.5-2.7V10.1H40.9z"/>
		<path class="st1" d="M57.7,10.1v10.1c0,0.4,0,0.8-0.1,1.2c-0.1,0.4-0.3,0.7-0.5,1c-0.2,0.3-0.5,0.5-0.9,0.7
			c-0.4,0.2-0.8,0.3-1.3,0.3c-0.5,0-0.9-0.1-1.3-0.3c-0.4-0.2-0.7-0.4-0.9-0.7c-0.2-0.3-0.4-0.6-0.5-1C52.1,21,52,20.6,52,20.2V10.1
			h-4.2v10.3c0,1,0.2,1.9,0.5,2.7c0.3,0.8,0.8,1.5,1.4,2.1c0.6,0.6,1.3,1,2.2,1.4c0.9,0.3,1.8,0.5,2.9,0.5c1.1,0,2-0.2,2.9-0.5
			c0.9-0.3,1.6-0.8,2.2-1.4c0.6-0.6,1.1-1.3,1.4-2.1c0.3-0.8,0.5-1.7,0.5-2.7V10.1H57.7z"/>
		<path class="st1" d="M24.1,10.1v10.1c0,0.4,0,0.8-0.1,1.2c-0.1,0.4-0.3,0.7-0.5,1c-0.2,0.3-0.5,0.5-0.9,0.7
			c-0.4,0.2-0.8,0.3-1.3,0.3c-0.5,0-0.9-0.1-1.3-0.3c-0.4-0.2-0.7-0.4-0.9-0.7c-0.2-0.3-0.4-0.6-0.5-1c-0.1-0.4-0.2-0.8-0.2-1.2
			V10.1h-4.2v10.3c0,1,0.2,1.9,0.5,2.7c0.3,0.8,0.8,1.5,1.4,2.1c0.6,0.6,1.3,1,2.2,1.4c0.9,0.3,1.8,0.5,2.9,0.5c1.1,0,2-0.2,2.9-0.5
			c0.9-0.3,1.6-0.8,2.2-1.4c0.6-0.6,1.1-1.3,1.4-2.1c0.3-0.8,0.5-1.7,0.5-2.7V10.1H24.1z"/>
	</g>
	<g>
		<path class="st1" d="M64.8,18.7v-2h6.9v-1.4h-4.2V8.9h10.8v6.4H74v1.4h6.8v2H64.8z M67.4,27.3v-4.8h8.5v-0.9h-8.5v-1.9h10.8v4.8
			h-8.5v0.9h9v1.9H67.4z M75.8,10.8h-6v2.4h6V10.8z"/>
	</g>
</g>
</svg>
