<?xml version="1.0" encoding="utf-8"?>
<!-- Generator: Adobe Illustrator 22.1.0, SVG Export Plug-In . SVG Version: 6.00 Build 0)  -->
<svg version="1.1" id="Layer_1" xmlns="http://www.w3.org/2000/svg" xmlns:xlink="http://www.w3.org/1999/xlink" x="0px" y="0px"
	 viewBox="0 0 316 47" style="enable-background:new 0 0 316 47;" xml:space="preserve">
<style type="text/css">
	.st0{fill:#26356F;}
</style>
<path class="st0" d="M27.9,1v7h-10v29.3h-8V8H0V1H27.9z"/>
<path class="st0" d="M28.9,13.8c2.4-2.4,5.6-3.7,9.6-3.7c3.8,0,6.8,1.1,9.1,3.3s3.5,5.2,3.5,9c0,0.9,0,2-0.2,3.2H33.2V27
	c0,2.9,2.2,4.9,5.4,4.9c2.6,0,4.6-1.2,5.2-3.1h7.5c-0.5,2.7-1.9,4.8-4.2,6.5c-2.3,1.6-5.1,2.4-8.5,2.4c-4.1,0-7.4-1.2-9.7-3.7
	s-3.5-5.9-3.5-10.1C25.4,19.6,26.6,16.2,28.9,13.8z M33.2,20.7h10.3v-0.5c0-2.6-2.1-4.3-5.1-4.3c-3.1,0-5.2,1.8-5.2,4.4
	C33.2,20.3,33.2,20.7,33.2,20.7z"/>
<path class="st0" d="M55.8,37.2V10.5h6.7l0.9,4.9h0.4c1.7-3.6,4.6-5.4,8.8-5.4c6,0,9.2,4.3,9.2,11.2v16h-7.6V22
	c0-3.8-1.6-5.7-4.9-5.7c-3.6,0-5.9,2.7-5.9,6.8v14.1L55.8,37.2L55.8,37.2z"/>
<path class="st0" d="M87.3,45.5v-35h6.6l0.9,4.8h0.4c1.6-3.4,5-5.3,8.9-5.3c6.7,0,10.8,5.2,10.8,13.7c0,8.8-4.2,13.8-10.8,13.8
	c-4.4,0-7.5-2-8.9-5.2h-0.4v13.2H87.3z M107.3,25.9v-4.2c0-3.4-2-5.5-5.9-5.5c-4,0-6.5,2.5-6.5,6.5v2.2c0,4,2.5,6.5,6.5,6.5
	C105,31.5,107.3,29.5,107.3,25.9z"/>
<path class="st0" d="M119.5,3.9L119.5,3.9c0-2.1,1.7-3.9,3.8-3.9h0.2c2.1,0,3.8,1.7,3.8,3.9l0,0c0,2.1-1.7,3.9-3.8,3.9h-0.2
	C121.2,7.8,119.5,6.1,119.5,3.9z M119.6,37.2V10.5h7.6v26.7H119.6z"/>
<path class="st0" d="M132.9,37.2V10.5h6.7l0.9,4.9h0.4c1.7-3.6,4.6-5.4,8.8-5.4c6,0,9.2,4.3,9.2,11.2v16h-7.6V22
	c0-3.8-1.6-5.7-4.9-5.7c-3.6,0-5.9,2.7-5.9,6.8v14.1L132.9,37.2L132.9,37.2z"/>
<path class="st0" d="M179.7,30.8c5.8,0,9.1,2.9,9.1,7.6c0,5.6-4.7,8.4-14.2,8.4c-8,0-12-2.1-12-6.2c0-2.6,1.3-4.3,4-5.2V35
	c-1.7-0.6-2.8-2.2-2.8-4c0-2.4,1.3-4,3.9-4.9v-0.4c-2.7-1.5-4.1-3.8-4.1-6.9c0-2.6,1-4.7,2.9-6.3c2-1.6,4.6-2.4,7.8-2.4
	c1.6,0,3.1,0.2,4.4,0.5V9.7c0-3,1.5-4.5,5.3-4.5h4v6h-5v1.6c1.8,1.5,2.8,3.6,2.8,6.2c0,5.2-4.3,8.6-10.7,8.6c-1.1,0-2.2-0.1-3.2-0.3
	c-0.8,0.4-1.3,1-1.3,1.7c0,1.1,1.1,1.7,3.2,1.7L179.7,30.8L179.7,30.8z M181.2,38.6c0-1.3-0.9-1.9-2.7-1.9h-5.9c-2,0-3,0.7-3,2.2
	c0,1.8,1.7,2.5,5.5,2.5C179.2,41.4,181.2,40.5,181.2,38.6z M171,19.5c0,1.8,1.5,3,3.7,3c2.3,0,3.8-1.1,3.8-3v-1.3
	c0-1.8-1.4-2.9-3.8-2.9c-2.2,0-3.7,1.1-3.7,2.9V19.5z"/>
<circle class="st0" cx="196.1" cy="33.9" r="3.9"/>
<g>
	<path class="st0" d="M210,37.3V1h25.7v6.9h-17.6v10h15.6v6.6h-15.6v12.8H210z"/>
	<path class="st0" d="M240.8,37.3V1h10l8.9,20.3h0.3L268.8,1h10v36.3H271V22l0.5-10h-0.3l-11.3,24.7l-11.3-24.7h-0.4l0.5,10.1v15.2
		H240.8z"/>
	<path class="st0" d="M286.4,37.3V1h17.1c8,0,12.2,4.5,12.2,12.3c0,7.5-4.5,12.2-12.2,12.2h-9v11.8H286.4z M294.5,18.9h7.9
		c3.1,0,4.8-1.7,4.8-4.1v-2.7c0-2.6-1.8-3.9-4.7-3.9h-8V18.9z"/>
</g>
</svg>
