<?xml version="1.0" encoding="utf-8"?>
<!-- Generator: Adobe Illustrator 22.1.0, SVG Export Plug-In . SVG Version: 6.00 Build 0)  -->
<svg version="1.1" id="Layer_1" xmlns="http://www.w3.org/2000/svg" xmlns:xlink="http://www.w3.org/1999/xlink" x="0px" y="0px"
	 viewBox="0 0 405 47" style="enable-background:new 0 0 405 47;" xml:space="preserve">
<g>
	<path d="M27.9,1v7h-10v29.3h-8V8H0V1H27.9z"/>
	<path d="M28.9,13.8c2.4-2.4,5.6-3.7,9.6-3.7c3.8,0,6.8,1.1,9.1,3.3s3.5,5.2,3.5,9c0,0.9,0,2-0.2,3.2H33.2V27c0,2.9,2.2,4.9,5.4,4.9
		c2.6,0,4.6-1.2,5.2-3.1h7.5c-0.5,2.7-1.9,4.8-4.2,6.5c-2.3,1.6-5.1,2.4-8.5,2.4c-4.1,0-7.4-1.2-9.7-3.7s-3.5-5.9-3.5-10.1
		C25.4,19.6,26.6,16.2,28.9,13.8z M33.2,20.7h10.3v-0.5c0-2.6-2.1-4.3-5.1-4.3c-3.1,0-5.2,1.8-5.2,4.4
		C33.2,20.3,33.2,20.7,33.2,20.7z"/>
	<path d="M55.8,37.2V10.5h6.7l0.9,4.9h0.4c1.7-3.6,4.6-5.4,8.8-5.4c6,0,9.2,4.3,9.2,11.2v16h-7.6V22c0-3.8-1.6-5.7-4.9-5.7
		c-3.6,0-5.9,2.7-5.9,6.8v14.1L55.8,37.2L55.8,37.2z"/>
	<path d="M87.3,45.5v-35h6.6l0.9,4.8h0.4c1.6-3.4,5-5.3,8.9-5.3c6.7,0,10.8,5.2,10.8,13.7c0,8.8-4.2,13.8-10.8,13.8
		c-4.4,0-7.5-2-8.9-5.2h-0.4v13.2H87.3z M107.3,25.9v-4.2c0-3.4-2-5.5-5.9-5.5c-4,0-6.5,2.5-6.5,6.5v2.2c0,4,2.5,6.5,6.5,6.5
		C105,31.5,107.3,29.5,107.3,25.9z"/>
	<path d="M119.5,3.9L119.5,3.9c0-2.1,1.7-3.9,3.8-3.9h0.2c2.1,0,3.8,1.7,3.8,3.9l0,0c0,2.1-1.7,3.9-3.8,3.9h-0.2
		C121.2,7.8,119.5,6.1,119.5,3.9z M119.6,37.2V10.5h7.6v26.7H119.6z"/>
	<path d="M132.9,37.2V10.5h6.7l0.9,4.9h0.4c1.7-3.6,4.6-5.4,8.8-5.4c6,0,9.2,4.3,9.2,11.2v16h-7.6V22c0-3.8-1.6-5.7-4.9-5.7
		c-3.6,0-5.9,2.7-5.9,6.8v14.1L132.9,37.2L132.9,37.2z"/>
	<path d="M179.7,30.8c5.8,0,9.1,2.9,9.1,7.6c0,5.6-4.7,8.4-14.2,8.4c-8,0-12-2.1-12-6.2c0-2.6,1.3-4.3,4-5.2V35
		c-1.7-0.6-2.8-2.2-2.8-4c0-2.4,1.3-4,3.9-4.9v-0.4c-2.7-1.5-4.1-3.8-4.1-6.9c0-2.6,1-4.7,2.9-6.3c2-1.6,4.6-2.4,7.8-2.4
		c1.6,0,3.1,0.2,4.4,0.5V9.7c0-3,1.5-4.5,5.3-4.5h4v6h-5v1.6c1.8,1.5,2.8,3.6,2.8,6.2c0,5.2-4.3,8.6-10.7,8.6
		c-1.1,0-2.2-0.1-3.2-0.3c-0.8,0.4-1.3,1-1.3,1.7c0,1.1,1.1,1.7,3.2,1.7L179.7,30.8L179.7,30.8z M181.2,38.6c0-1.3-0.9-1.9-2.7-1.9
		h-5.9c-2,0-3,0.7-3,2.2c0,1.8,1.7,2.5,5.5,2.5C179.2,41.4,181.2,40.5,181.2,38.6z M171,19.5c0,1.8,1.5,3,3.7,3c2.3,0,3.8-1.1,3.8-3
		v-1.3c0-1.8-1.4-2.9-3.8-2.9c-2.2,0-3.7,1.1-3.7,2.9V19.5z"/>
	<circle cx="196.1" cy="33.9" r="3.9"/>
</g>
<g>
	<path d="M211.7,37.2V3.1h16.1c6,0,9.2,3.3,9.2,8.7c0,3.6-1.7,6.5-4.9,7.7v0.4c3.8,1,5.8,3.8,5.8,8.4c0,5.5-3.9,9-10.5,9L211.7,37.2
		L211.7,37.2z M215.9,18.1h11.7c3.2,0,5.1-1.7,5.1-4.5v-2.4c0-2.8-1.9-4.4-5.2-4.4h-11.6V18.1z M215.9,33.6h11.3
		c3.8,0,6.3-1.8,6.3-4.7v-2.5c0-3-2.2-4.8-5.6-4.8h-12V33.6z"/>
	<path d="M264.4,12.8v24.4H261l-0.6-4.5H260c-1.3,3-4.5,5-8.3,5c-5.1,0-8.1-3.4-8.1-9.3V12.8h4v15c0,4.3,1.8,6.5,5.4,6.5
		c4.4,0,7.3-3.5,7.3-8.7V12.8H264.4z"/>
	<path d="M274.5,29.8c0,2.9,2.3,4.7,5.9,4.7c3.4,0,5.5-1.5,5.5-4.1c0-1.8-1.1-2.9-3.2-3.4l-5.2-1c-4.4-0.8-6.5-2.9-6.5-6.5
		c0-4.5,3.6-7.3,9.2-7.3c5.8,0,9.3,2.9,9.4,7.4h-4c-0.1-2.9-1.9-4.3-5.3-4.3c-3.3,0-5.2,1.5-5.2,3.7c0,1.3,0.6,2.2,1.5,2.8
		c1,0.4,1.4,0.6,2.4,0.7l4.8,0.9c4.3,0.7,6.4,2.9,6.4,6.6c0,4.7-3.8,7.5-9.7,7.5c-6.2,0-10-3.1-10-7.9h4V29.8z"/>
	<path d="M296.1,8.2V2.9h4v5.3C300.1,8.2,296.1,8.2,296.1,8.2z M296.1,37.2V12.8h4v24.4H296.1z"/>
	<path d="M308.3,37.2V12.8h3.6l0.5,4.5h0.3c1.5-3.1,4.5-5,8.2-5c5.3,0,8.5,3.8,8.5,9.9v15h-4.1V22.6c0-4.4-1.9-6.7-5.8-6.7
		c-4.3,0-7.2,3.4-7.2,8.5v12.8H308.3z"/>
	<path d="M357.6,23.3c0,0.9,0,1.8-0.1,2.5h-18v1.4c0,4.3,2.9,7.2,7.4,7.2c3.4,0,6-1.8,6.8-4.5h4c-0.5,2.4-1.7,4.3-3.7,5.7
		s-4.4,2.1-7.2,2.1c-7.1,0-11.5-4.9-11.5-12.8s4.4-12.6,11.5-12.6C353.4,12.3,357.6,16.5,357.6,23.3z M339.4,22.8h14.1v-0.9
		c0-3.8-2.8-6.3-6.8-6.3c-4.3,0-7.3,2.7-7.3,6.6L339.4,22.8L339.4,22.8z"/>
	<path d="M365.7,29.8c0,2.9,2.3,4.7,5.9,4.7c3.4,0,5.5-1.5,5.5-4.1c0-1.8-1.1-2.9-3.2-3.4l-5.2-1c-4.4-0.8-6.5-2.9-6.5-6.5
		c0-4.5,3.6-7.3,9.2-7.3c5.8,0,9.3,2.9,9.4,7.4h-4c-0.1-2.9-1.9-4.3-5.3-4.3c-3.3,0-5.2,1.5-5.2,3.7c0,1.3,0.6,2.2,1.5,2.8
		c1,0.4,1.4,0.6,2.4,0.7l4.8,0.9c4.3,0.7,6.4,2.9,6.4,6.6c0,4.7-3.8,7.5-9.7,7.5c-6.2,0-10-3.1-10-7.9h4V29.8z"/>
	<path d="M389.3,29.8c0,2.9,2.3,4.7,5.9,4.7c3.4,0,5.5-1.5,5.5-4.1c0-1.8-1.1-2.9-3.2-3.4l-5.2-1c-4.4-0.8-6.5-2.9-6.5-6.5
		c0-4.5,3.6-7.3,9.2-7.3c5.8,0,9.3,2.9,9.4,7.4h-4c-0.1-2.9-1.9-4.3-5.3-4.3c-3.3,0-5.2,1.5-5.2,3.7c0,1.3,0.6,2.2,1.5,2.8
		c1,0.4,1.4,0.6,2.4,0.7l4.8,0.9c4.3,0.7,6.4,2.9,6.4,6.6c0,4.7-3.8,7.5-9.7,7.5c-6.2,0-10-3.1-10-7.9h4V29.8z"/>
</g>
</svg>
