<?xml version="1.0" encoding="utf-8"?>
<!-- Generator: Adobe Illustrator 25.1.0, SVG Export Plug-In . SVG Version: 6.00 Build 0)  -->
<svg version="1.1" id="레이어_1" xmlns="http://www.w3.org/2000/svg" xmlns:xlink="http://www.w3.org/1999/xlink" x="0px"
	 y="0px" viewBox="0 0 200 30" style="enable-background:new 0 0 200 30;" xml:space="preserve">
<style type="text/css">
	.st0{fill:#192C60;}
	.st1{fill:#040000;}
	.st2{fill:#FFFFFF;}
	.st3{fill:none;stroke:#000000;stroke-miterlimit:10;}
</style>
<g>
	<polygon class="st0" points="117.4,5.1 117.4,8.4 112.7,8.4 112.7,22.2 108.9,22.2 108.9,8.4 104.1,8.4 104.1,5.1 	"/>
	<g>
		<path class="st0" d="M119.9,14.4h4.9v-0.2c0-1.2-1-2-2.4-2c-1.5,0-2.5,0.8-2.5,2.1V14.4z M117.9,11.1c1.1-1.2,2.7-1.7,4.5-1.7
			c1.8,0,3.2,0.5,4.3,1.6c1.1,1,1.7,2.4,1.7,4.3c0,0.4,0,0.9-0.1,1.5h-8.4v0.7c0,1.4,1,2.3,2.6,2.3c1.3,0,2.2-0.6,2.5-1.5h3.6
			c-0.3,1.3-0.9,2.3-2,3.1c-1.1,0.8-2.4,1.1-4,1.1c-2,0-3.5-0.6-4.6-1.8c-1.1-1.2-1.7-2.8-1.7-4.8C116.2,13.9,116.8,12.3,117.9,11.1
			"/>
		<path class="st0" d="M130.7,22.2V9.6h3.2l0.4,2.3h0.2c0.8-1.7,2.2-2.6,4.2-2.6c2.9,0,4.4,2,4.4,5.3v7.6h-3.6V15
			c0-1.8-0.8-2.7-2.3-2.7c-1.7,0-2.8,1.3-2.8,3.2v6.7H130.7z"/>
		<path class="st0" d="M155.2,16.9v-2c0-1.6-1-2.6-2.8-2.6c-1.9,0-3.1,1.2-3.1,3.1v1.1c0,1.9,1.2,3.1,3.1,3.1
			C154.1,19.5,155.2,18.6,155.2,16.9 M145.7,26.1V9.6h3.2l0.5,2.3h0.2c0.8-1.6,2.4-2.5,4.2-2.5c3.2,0,5.1,2.4,5.1,6.5
			c0,4.1-2,6.5-5.1,6.5c-2.1,0-3.6-0.9-4.2-2.5h-0.2v6.2H145.7z"/>
		<path class="st0" d="M161.1,9.6h3.6v12.6h-3.6V9.6z M161,6.5L161,6.5c0-1,0.8-1.8,1.8-1.8h0.1c1,0,1.8,0.8,1.8,1.8
			c0,1-0.8,1.8-1.8,1.8h-0.1C161.9,8.3,161,7.5,161,6.5"/>
		<path class="st0" d="M167.4,22.2V9.6h3.2l0.4,2.3h0.2c0.8-1.7,2.2-2.6,4.2-2.6c2.9,0,4.4,2,4.4,5.3v7.6h-3.6V15
			c0-1.8-0.8-2.7-2.3-2.7c-1.7,0-2.8,1.3-2.8,3.2v6.7H167.4z"/>
		<path class="st0" d="M185.6,13.8c0,0.8,0.7,1.4,1.8,1.4c1.1,0,1.8-0.5,1.8-1.4v-0.6c0-0.8-0.7-1.4-1.8-1.4c-1.1,0-1.8,0.5-1.8,1.4
			V13.8z M190.4,22.9c0-0.6-0.4-0.9-1.3-0.9h-2.8c-0.9,0-1.4,0.4-1.4,1c0,0.9,0.8,1.2,2.6,1.2C189.5,24.2,190.4,23.7,190.4,22.9
			 M189.7,19.2c2.8,0,4.3,1.4,4.3,3.6c0,2.7-2.3,4-6.8,4c-3.8,0-5.7-1-5.7-2.9c0-1.2,0.6-2,1.9-2.4v-0.2c-0.8-0.3-1.4-1-1.4-1.9
			c0-1.1,0.6-1.9,1.8-2.3v-0.2c-1.3-0.7-1.9-1.8-1.9-3.3c0-1.2,0.5-2.2,1.4-3c0.9-0.8,2.2-1.2,3.7-1.2c0.8,0,1.5,0.1,2.1,0.3V9.2
			c0-1.4,0.7-2.1,2.5-2.1h1.9v2.8h-2.3v0.8c0.9,0.7,1.3,1.7,1.3,2.9c0,2.5-2,4.1-5.1,4.1c-0.5,0-1,0-1.5-0.2
			c-0.4,0.2-0.6,0.5-0.6,0.8c0,0.5,0.5,0.8,1.5,0.8H189.7z"/>
		<path class="st0" d="M199.4,20.6c0,1-0.8,1.8-1.8,1.8c-1,0-1.8-0.8-1.8-1.8c0-1,0.8-1.8,1.8-1.8C198.6,18.8,199.4,19.6,199.4,20.6
			"/>
	</g>
</g>
<g>
	<path class="st1" d="M60,27.6H13.2c-7,0-12.8-5.8-12.7-12.8C0.6,7.9,6.1,2.4,12.9,2.4l46.8,0c7,0,12.8,5.8,12.7,12.8
		C72.3,22.1,66.8,27.6,60,27.6"/>
	<g>
		<path class="st2" d="M31.6,8.6v7.7c0,0.3,0,0.6-0.1,0.9c-0.1,0.3-0.2,0.5-0.4,0.8c-0.2,0.2-0.4,0.4-0.7,0.5
			c-0.3,0.1-0.6,0.2-1,0.2c-0.4,0-0.7-0.1-1-0.2c-0.3-0.1-0.5-0.3-0.7-0.5c-0.2-0.2-0.3-0.5-0.4-0.8c-0.1-0.3-0.1-0.6-0.1-0.9V8.6
			h-3.2v7.9c0,0.8,0.1,1.5,0.4,2.1c0.2,0.6,0.6,1.2,1.1,1.6c0.5,0.4,1,0.8,1.7,1c0.7,0.3,1.4,0.4,2.2,0.4c0.8,0,1.5-0.1,2.2-0.4
			c0.7-0.2,1.2-0.6,1.7-1c0.5-0.4,0.8-1,1.1-1.6c0.3-0.6,0.4-1.3,0.4-2.1V8.6H31.6z"/>
		<path class="st2" d="M44.3,8.6v7.7c0,0.3,0,0.6-0.1,0.9c-0.1,0.3-0.2,0.5-0.4,0.8c-0.2,0.2-0.4,0.4-0.7,0.5
			c-0.3,0.1-0.6,0.2-1,0.2c-0.4,0-0.7-0.1-1-0.2c-0.3-0.1-0.5-0.3-0.7-0.5c-0.2-0.2-0.3-0.5-0.4-0.8c-0.1-0.3-0.1-0.6-0.1-0.9V8.6
			h-3.2v7.9c0,0.8,0.1,1.5,0.4,2.1c0.2,0.6,0.6,1.2,1.1,1.6c0.5,0.4,1,0.8,1.7,1c0.7,0.3,1.4,0.4,2.2,0.4c0.8,0,1.5-0.1,2.2-0.4
			c0.7-0.2,1.2-0.6,1.7-1c0.5-0.4,0.8-1,1.1-1.6c0.3-0.6,0.4-1.3,0.4-2.1V8.6H44.3z"/>
		<path class="st2" d="M18.8,8.6v7.7c0,0.3,0,0.6-0.1,0.9c-0.1,0.3-0.2,0.5-0.4,0.8c-0.2,0.2-0.4,0.4-0.7,0.5
			c-0.3,0.1-0.6,0.2-1,0.2c-0.4,0-0.7-0.1-1-0.2c-0.3-0.1-0.5-0.3-0.7-0.5c-0.2-0.2-0.3-0.5-0.4-0.8c-0.1-0.3-0.1-0.6-0.1-0.9V8.6
			h-3.2v7.9c0,0.8,0.1,1.5,0.4,2.1c0.2,0.6,0.6,1.2,1.1,1.6c0.5,0.4,1,0.8,1.7,1c0.7,0.3,1.4,0.4,2.2,0.4c0.8,0,1.5-0.1,2.2-0.4
			c0.7-0.2,1.2-0.6,1.7-1c0.5-0.4,0.8-1,1.1-1.6c0.3-0.6,0.4-1.3,0.4-2.1V8.6H18.8z"/>
	</g>
	<g>
		<path class="st2" d="M49.7,15.1v-1.5H55v-1h-3.2V7.7H60v4.9h-3.2v1H62v1.5H49.7z M51.7,21.7v-3.6h6.5v-0.7h-6.5v-1.5h8.2v3.6h-6.5
			v0.7h6.8v1.5H51.7z M58.2,9.2h-4.6V11h4.6V9.2z"/>
	</g>
</g>
<g>
	<line class="st3" x1="85.4" y1="9.4" x2="95.1" y2="19"/>
	<line class="st3" x1="85.4" y1="9.4" x2="95.1" y2="19"/>
	<line class="st3" x1="85.4" y1="19" x2="95.1" y2="9.4"/>
</g>
</svg>
