<?xml version="1.0" encoding="utf-8"?>
<!-- Generator: Adobe Illustrator 22.1.0, SVG Export Plug-In . SVG Version: 6.00 Build 0)  -->
<svg version="1.1" id="Layer_1" xmlns="http://www.w3.org/2000/svg" xmlns:xlink="http://www.w3.org/1999/xlink" x="0px" y="0px"
	 viewBox="0 0 300 300" style="enable-background:new 0 0 300 300;" xml:space="preserve">
<style type="text/css">
	.st0{fill:#FFFFFF;}
</style>
<path class="st0" d="M112.5,134.6c-0.7-2.7-2.9-4.9-5.6-5.6c-5-1.3-24.9-1.3-24.9-1.3s-19.9,0-24.9,1.3c-2.7,0.7-4.9,2.9-5.6,5.6
	C50,139.6,50,150,50,150s0,10.4,1.3,15.4c0.7,2.7,2.9,4.9,5.6,5.6c5,1.3,24.9,1.3,24.9,1.3s19.9,0,24.9-1.3c2.7-0.7,4.9-2.9,5.6-5.6
	c1.3-5,1.3-15.4,1.3-15.4S113.8,139.6,112.5,134.6z M75.5,159.6v-19.1l16.6,9.6L75.5,159.6z"/>
<g>
	<g>
		<path class="st0" d="M142.6,168.3c-1.3-0.9-2.2-2.2-2.7-4c-0.5-1.8-0.8-4.2-0.8-7.2v-4.1c0-3,0.3-5.4,0.9-7.3
			c0.6-1.8,1.6-3.2,2.9-4c1.3-0.8,3-1.3,5.1-1.3c2.1,0,3.7,0.4,5,1.3c1.2,0.9,2.2,2.2,2.7,4c0.6,1.8,0.9,4.2,0.9,7.2v4.1
			c0,3-0.3,5.4-0.8,7.2c-0.6,1.8-1.5,3.1-2.7,4c-1.3,0.8-3,1.3-5.1,1.3C145.6,169.6,143.8,169.1,142.6,168.3z M149.7,163.9
			c0.3-0.9,0.5-2.4,0.5-4.5v-8.7c0-2-0.2-3.5-0.5-4.4c-0.3-0.9-1-1.4-1.8-1.4c-0.9,0-1.5,0.5-1.8,1.4c-0.3,0.9-0.5,2.4-0.5,4.4v8.7
			c0,2.1,0.2,3.6,0.5,4.5c0.3,0.9,0.9,1.4,1.8,1.4C148.7,165.3,149.3,164.8,149.7,163.9z"/>
		<path class="st0" d="M239.5,157.2v1.4c0,1.8,0.1,3.1,0.2,4c0.1,0.9,0.3,1.6,0.7,2c0.3,0.4,0.9,0.6,1.6,0.6c0.9,0,1.6-0.4,1.9-1.1
			c0.3-0.7,0.5-1.9,0.6-3.6l5.4,0.3c0,0.2,0,0.6,0,1c0,2.6-0.7,4.5-2.1,5.8c-1.4,1.3-3.4,1.9-6,1.9c-3.1,0-5.3-1-6.5-2.9
			c-1.2-1.9-1.9-5-1.9-9v-4.9c0-4.2,0.6-7.3,1.9-9.2c1.3-1.9,3.5-2.9,6.6-2.9c2.2,0,3.8,0.4,5,1.2c1.2,0.8,2,2,2.4,3.7
			c0.5,1.7,0.7,4,0.7,6.9v4.8H239.5z M240.3,145.5c-0.3,0.4-0.5,1-0.6,1.9c-0.1,0.9-0.2,2.3-0.2,4.1v2h4.6v-2c0-1.8-0.1-3.2-0.2-4.1
			c-0.1-0.9-0.3-1.6-0.7-2c-0.3-0.4-0.8-0.6-1.5-0.6C241.1,144.9,240.6,145.1,240.3,145.5z"/>
		<path class="st0" d="M127.3,156.7l-7.2-25.9h6.2l2.5,11.7c0.6,2.9,1.1,5.4,1.4,7.4h0.2c0.2-1.5,0.7-3.9,1.4-7.3l2.6-11.8h6.2
			l-7.3,25.9v12.4h-6.2V156.7z"/>
		<path class="st0" d="M176.8,141.2v28h-4.9l-0.5-3.4h-0.1c-1.3,2.6-3.3,3.9-6,3.9c-1.9,0-3.2-0.6-4.1-1.8c-0.9-1.2-1.3-3.1-1.3-5.7
			v-20.9h6.3v20.5c0,1.2,0.1,2.1,0.4,2.7c0.3,0.5,0.7,0.8,1.4,0.8c0.5,0,1.1-0.2,1.6-0.5c0.5-0.3,0.9-0.8,1.1-1.3v-22.2H176.8z"/>
		<path class="st0" d="M209.1,141.2v28h-4.9l-0.5-3.4h-0.1c-1.3,2.6-3.3,3.9-6,3.9c-1.9,0-3.2-0.6-4.1-1.8c-0.9-1.2-1.3-3.1-1.3-5.7
			v-20.9h6.3v20.5c0,1.2,0.1,2.1,0.4,2.7c0.3,0.5,0.7,0.8,1.4,0.8c0.5,0,1.1-0.2,1.6-0.5c0.5-0.3,0.9-0.8,1.1-1.3v-22.2H209.1z"/>
		<path class="st0" d="M193.9,135.9h-6.2v33.2h-6.2v-33.2h-6.2v-5.1h18.7V135.9z"/>
		<path class="st0" d="M230,145.6c-0.4-1.8-1-3-1.8-3.8c-0.9-0.8-2-1.2-3.5-1.2c-1.2,0-2.2,0.3-3.2,1c-1,0.7-1.8,1.5-2.3,2.6h0
			l0-14.7h-6.1v39.7h5.2l0.6-2.6h0.1c0.5,0.9,1.2,1.7,2.2,2.2c1,0.5,2.1,0.8,3.2,0.8c2.1,0,3.7-1,4.7-2.9c1-2,1.5-5,1.5-9.2V153
			C230.5,149.8,230.3,147.4,230,145.6z M224.2,157c0,2-0.1,3.6-0.3,4.8c-0.2,1.2-0.4,2-0.8,2.5c-0.4,0.5-0.9,0.7-1.6,0.7
			c-0.5,0-1-0.1-1.4-0.4c-0.4-0.2-0.8-0.6-1.1-1.1v-15.9c0.2-0.8,0.6-1.4,1.1-1.9c0.5-0.5,1.1-0.7,1.7-0.7c0.6,0,1.1,0.3,1.5,0.8
			c0.3,0.5,0.6,1.3,0.7,2.5c0.1,1.2,0.2,2.9,0.2,5.1V157z"/>
	</g>
</g>
</svg>
