<?xml version="1.0" encoding="utf-8"?>
<!-- Generator: Adobe Illustrator 22.1.0, SVG Export Plug-In . SVG Version: 6.00 Build 0)  -->
<svg version="1.1" id="Layer_1" xmlns="http://www.w3.org/2000/svg" xmlns:xlink="http://www.w3.org/1999/xlink" x="0px" y="0px"
	 viewBox="0 0 300 300" style="enable-background:new 0 0 300 300;" xml:space="preserve">
<style type="text/css">
	.st0{fill:#00C73C;}
	.st1{fill:#FFFFFF;}
	.st2{fill:#FE7627;}
</style>
<rect class="st0" width="300" height="300"/>
<g>
	<path class="st1" d="M202.7,99.4H97.3c-10.6,0-19.3,8.6-19.3,19.3v62.6c0,10.6,8.6,19.3,19.3,19.3h37.3l12.7,29.9
		c0,0,0.9,2.6,3,2.6c0,0,0,0,0,0c2.1,0,3-2.6,3-2.6l12.7-29.9h36.9c10.6,0,19.3-8.6,19.3-19.3v-62.6
		C222,108.1,213.4,99.4,202.7,99.4z"/>
	<g>
		<path class="st2" d="M158.3,140.5c-7.8,0-14.1,5.8-14.1,13s6.3,13,14.1,13c7.8,0,14.1-5.8,14.1-13S166.1,140.5,158.3,140.5z
			 M158.3,158.8c-2.9,0-5.3-2.4-5.3-5.3s2.4-5.3,5.3-5.3c2.9,0,5.3,2.4,5.3,5.3S161.3,158.8,158.3,158.8z"/>
		<path class="st2" d="M112.1,140.2c0,0-5.9-0.1-7.9,3.4V130c0,0-8.1,0.1-8.6,0v35.5h8.6v-2.1c0,0,2.6,3,7.1,3
			c0,0,11.8-0.3,11.9-11.8C123.2,154.7,124.8,141.4,112.1,140.2z M109.4,158.6c-2.7,0-4.9-2.2-4.9-5c0-2.7,2.2-5,4.9-5
			c2.7,0,5,2.2,5,5C114.4,156.4,112.1,158.6,109.4,158.6z"/>
		<path class="st2" d="M125.9,128.8v8.5c0,0,4.1,0.9,4.1,4.2v24h8.4v-24.3C138.4,141.3,139.3,129.4,125.9,128.8z"/>
		<path class="st2" d="M95.6,130L95.6,130C95.5,130,95.6,130,95.6,130z"/>
		<path class="st2" d="M195.9,143.4c-2.8-3.8-7.3-3.3-7.3-3.3c-11.5,0.8-11.8,11.4-11.8,11.4v3.9c0,10.2,10.5,11,10.5,11
			c7.4,0,8.4-3.3,8.4-3.3c0.1,8.1-5.2,7.6-5.2,7.6h-2.3v8h3.8c12.5,0,12.4-12.3,12.4-12.3v-25.6h-8.5V143.4z M191,158.7
			c-2.9,0-5.2-2.3-5.2-5.2c0-2.9,2.3-5.2,5.2-5.2c2.9,0,5.2,2.3,5.2,5.2C196.3,156.4,193.9,158.7,191,158.7z"/>
	</g>
</g>
</svg>
