<?xml version="1.0" encoding="utf-8"?>
<!-- Generator: Adobe Illustrator 22.1.0, SVG Export Plug-In . SVG Version: 6.00 Build 0)  -->
<svg version="1.1" id="Layer_1" xmlns="http://www.w3.org/2000/svg" xmlns:xlink="http://www.w3.org/1999/xlink" x="0px" y="0px"
	 viewBox="0 0 300 300" style="enable-background:new 0 0 300 300;" xml:space="preserve">
<g>
	<path d="M141.9,82.5C151.4,70,164.5,70,164.5,70s2,11.7-7.4,23c-10,12.1-21.4,10.1-21.4,10.1S133.5,93.6,141.9,82.5z"/>
	<path d="M151,111.3c5,0,14.3-6.7,26.4-6.7c20.8,0,29,14.4,29,14.4s-16,8-16,27.3c0,21.8,20,29.3,20,29.3s-13.9,38.2-32.8,38.2
		c-8.7,0-15.4-5.7-24.5-5.7c-9.3,0-18.5,5.9-24.5,5.9c-17.2,0-38.9-36.2-38.9-65.3c0-28.6,18.4-43.7,35.6-43.7
		C136.5,105,145.2,111.3,151,111.3z"/>
</g>
</svg>
