<?xml version="1.0" encoding="utf-8"?>
<!-- Generator: Adobe Illustrator 22.1.0, SVG Export Plug-In . SVG Version: 6.00 Build 0)  -->
<svg version="1.1" id="Layer_1" xmlns="http://www.w3.org/2000/svg" xmlns:xlink="http://www.w3.org/1999/xlink" x="0px" y="0px"
	 viewBox="0 0 300 300" style="enable-background:new 0 0 300 300;" xml:space="preserve">
<style type="text/css">
	.st0{fill:#FFFFFF;}
</style>
<path class="st0" d="M94.5,118.5c-5.2,0-9.5,4.2-9.5,9.4l0,39.5c0,5.2,4.2,9.4,9.5,9.4c5.2,0,9.5-4.2,9.5-9.4l0-39.5
	C104,122.7,99.7,118.5,94.5,118.5 M170.9,83l6.6-12c0.4-0.6,0.1-1.4-0.5-1.8c-0.6-0.3-1.4-0.1-1.8,0.5l-6.7,12.2
	c-5.6-2.5-11.9-3.9-18.6-3.9c-6.6,0-12.9,1.4-18.5,3.9l-6.7-12.1c-0.3-0.6-1.1-0.9-1.8-0.5c-0.6,0.3-0.9,1.1-0.5,1.8l6.6,12
	c-13,6.7-21.8,19.4-21.8,34l85.4,0C192.7,102.4,183.9,89.7,170.9,83 M130.6,101.6c-2,0-3.6-1.6-3.6-3.6c0-2,1.6-3.6,3.6-3.6
	c2,0,3.6,1.6,3.6,3.6C134.1,100,132.5,101.6,130.6,101.6 M169.4,101.6c-2,0-3.6-1.6-3.6-3.6c0-2,1.6-3.6,3.6-3.6
	c2,0,3.6,1.6,3.6,3.6C173,100,171.4,101.6,169.4,101.6 M107.6,120.3l0,61.3c0,5.6,4.5,10.1,10.1,10.1l6.9,0l0,20.9
	c0,5.2,4.2,9.4,9.5,9.4c5.2,0,9.5-4.2,9.5-9.4l0-20.9l12.8,0l0,20.9c0,5.2,4.3,9.4,9.5,9.4c5.2,0,9.5-4.2,9.5-9.4l0-20.9l6.9,0
	c5.6,0,10.1-4.5,10.1-10.1l0-61.3L107.6,120.3z M215,127.9c0-5.2-4.2-9.4-9.5-9.4c-5.2,0-9.5,4.2-9.5,9.4l0,39.5
	c0,5.2,4.2,9.4,9.5,9.4c5.2,0,9.5-4.2,9.5-9.4L215,127.9z"/>
</svg>
