<?xml version="1.0" encoding="utf-8"?>
<!-- Generator: Adobe Illustrator 22.1.0, SVG Export Plug-In . SVG Version: 6.00 Build 0)  -->
<svg version="1.1" id="Layer_1" xmlns="http://www.w3.org/2000/svg" xmlns:xlink="http://www.w3.org/1999/xlink" x="0px" y="0px"
	 viewBox="0 0 300 300" style="enable-background:new 0 0 300 300;" xml:space="preserve">
<g>
	<path d="M109.4,148.7c-2.7,0-5,2.2-5,5c0,2.7,2.2,5,5,5c2.7,0,5-2.2,5-5C114.4,150.9,112.2,148.7,109.4,148.7z"/>
	<circle cx="158.4" cy="153.5" r="5.3"/>
	<path d="M202.7,99.4H97.3c-10.6,0-19.3,8.6-19.3,19.3v62.6c0,10.6,8.6,19.3,19.3,19.3h37.3l12.7,29.9c0,0,0.9,2.6,3,2.6
		c0,0,0,0,0,0c2.1,0,3-2.6,3-2.6l12.7-29.9h36.9c10.6,0,19.3-8.6,19.3-19.3v-62.6C222,108.1,213.4,99.4,202.7,99.4z M123.2,154.8
		c-0.1,11.4-11.9,11.8-11.9,11.8c-4.6,0-7.2-3-7.2-3v2.1h-8.6V130c0.5,0.1,8.6,0,8.6,0v13.6c2-3.5,7.9-3.4,7.9-3.4
		C124.8,141.4,123.2,154.8,123.2,154.8z M138.4,141.3v24.3H130v-24.1c0-3.3-4.1-4.2-4.1-4.2v-8.5
		C139.4,129.4,138.4,141.3,138.4,141.3z M158.4,166.5c-7.8,0-14.1-5.8-14.1-13c0-7.2,6.3-13,14.1-13c7.8,0,14.1,5.8,14.1,13
		C172.5,160.7,166.2,166.5,158.4,166.5z M204.6,166.5c0,0,0.1,12.4-12.4,12.4h-3.8v-8h2.3c0,0,5.3,0.5,5.2-7.6c0,0-1,3.3-8.4,3.3
		c0,0-10.5-0.8-10.5-11v-3.9c0,0,0.2-10.6,11.8-11.5c0,0,4.6-0.5,7.3,3.3v-2.6h8.6V166.5z"/>
	<circle cx="191.2" cy="153.5" r="5.2"/>
</g>
</svg>
