<?xml version="1.0" encoding="utf-8"?>
<!-- Generator: Adobe Illustrator 22.1.0, SVG Export Plug-In . SVG Version: 6.00 Build 0)  -->
<svg version="1.1" id="Layer_1" xmlns="http://www.w3.org/2000/svg" xmlns:xlink="http://www.w3.org/1999/xlink" x="0px" y="0px"
	 viewBox="0 0 300 300" style="enable-background:new 0 0 300 300;" xml:space="preserve">
<style type="text/css">
	.st0{fill:#FFFFFF;}
</style>
<path class="st0" d="M180.8,78h-61.6c-4.1,0-7.5,3.3-7.5,7.5v61.1c0,4.1,3.3,7.5,7.5,7.5h28.4c-0.2,7.3-3.3,15.2-7.6,22.2
	c-4.9,7.9-15.5,16.6-15.6,16.7c-0.8,0.8-1.5,1.7-1.5,3c0,0.9,0.5,1.7,1.1,2.5l19.8,22.2c0,0,0.9,1,1.7,1.2c0.9,0.2,1.9,0.2,2.6-0.3
	c34.2-26.3,39.2-59.4,40.1-77.3c0-0.1,0-58.7,0-58.7C188.3,81.3,184.9,78,180.8,78"/>
</svg>
