<?xml version="1.0" encoding="utf-8"?>
<!-- Generator: Adobe Illustrator 22.1.0, SVG Export Plug-In . SVG Version: 6.00 Build 0)  -->
<svg version="1.1" id="Layer_1" xmlns="http://www.w3.org/2000/svg" xmlns:xlink="http://www.w3.org/1999/xlink" x="0px" y="0px"
	 viewBox="0 0 300 300" style="enable-background:new 0 0 300 300;" xml:space="preserve">
<path d="M150,78c-39.8,0-72,32.2-72,72c0,39.8,32.2,72,72,72s72-32.2,72-72C222,110.2,189.8,78,150,78z M130,164h-15.5
	c-4.7,0-8.5-3.8-8.5-8.5c0-4.7,3.8-8.5,8.5-8.5H130V164z M188,138c0,14.3-11.7,26-26,26h-9v-17.5h9.3c4.7,0,8.5-3.8,8.5-8.5
	s-3.8-8.5-8.5-8.5H150v5.9v11.1V164v17.5c0,4.7-3.8,8.5-8.5,8.5s-8.5-3.8-8.5-8.5V164v-17v-15.7v-10.8c0-4.7,3.8-8.5,8.5-8.5h8.5h12
	C176.3,112,188,123.7,188,138L188,138z"/>
</svg>
