<?xml version="1.0" encoding="utf-8"?>
<!-- Generator: Adobe Illustrator 22.1.0, SVG Export Plug-In . SVG Version: 6.00 Build 0)  -->
<svg version="1.1" id="Layer_1" xmlns="http://www.w3.org/2000/svg" xmlns:xlink="http://www.w3.org/1999/xlink" x="0px" y="0px"
	 viewBox="0 0 300 300" style="enable-background:new 0 0 300 300;" xml:space="preserve">
<style type="text/css">
	.st0{fill:#3C1E1E;}
	.st1{fill:#FAE100;}
</style>
<circle class="st0" cx="150" cy="150" r="72"/>
<g>
	<path class="st1" d="M114.5,147c-4.7,0-8.5,3.8-8.5,8.5c0,4.7,3.8,8.5,8.5,8.5H130v-17H114.5z"/>
	<path class="st1" d="M162,112h-12h-8.5c-4.7,0-8.5,3.8-8.5,8.5v10.8V147v17v17.5c0,4.7,3.8,8.5,8.5,8.5s8.5-3.8,8.5-8.5V164v-17.5
		v-11.1v-5.9h12.3c4.7,0,8.5,3.8,8.5,8.5s-3.8,8.5-8.5,8.5H153V164h9c14.3,0,26-11.7,26-26v0C188,123.7,176.3,112,162,112z"/>
</g>
</svg>
