<?xml version="1.0" encoding="utf-8"?>
<!-- Generator: Adobe Illustrator 22.1.0, SVG Export Plug-In . SVG Version: 6.00 Build 0)  -->
<svg version="1.1" id="Layer_1" xmlns="http://www.w3.org/2000/svg" xmlns:xlink="http://www.w3.org/1999/xlink" x="0px" y="0px"
	 viewBox="0 0 144 66" style="enable-background:new 0 0 144 66;" xml:space="preserve">
<style type="text/css">
	.st0{fill:#43505F;}
	.st1{fill:#FFFFFF;}
</style>
<g id="logoSM">
	<circle class="st0" cx="33" cy="33" r="33"/>
	<path class="st1" d="M37,16v19.5c0,2.5-2,4.5-4.5,4.5C30,40,28,38,28,35.5L28,16H17l0,18.5C17,43,20.7,50,32.5,50
		C44.3,50,48,43.1,48,34.5L48,16H37z"/>
</g>
<g id="logoLG">
	<path class="st0" d="M111,66H33C14.8,66,0,51.2,0,33v0C0,14.8,14.8,0,33,0h78c18.1,0,33,14.8,33,33v0C144,51.2,129.2,66,111,66z"/>
	<path class="st1" d="M110,16v19.5c0,2.5-2,4.5-4.5,4.5c-2.5,0-4.5-2-4.5-4.5l0-19.5H90l0,18.5C90,43,93.7,50,105.5,50
		c11.8,0,15.5-6.9,15.5-15.5l0-18.5H110z"/>
	<path class="st1" d="M75,16v20c0,3.3-2.7,6-6,6s-6-2.7-6-6V16h-8l0,20c0,8.5,5.4,14,14,14s14-5.5,14-14l0-20H75z"/>
	<path class="st1" d="M44,16v21c0,4.4-3.6,8-8,8c-4.4,0-8-3.6-8-8V16h-5l0,21c0,8.5,6.5,13,13,13s13-4.5,13-13l0-21H44z"/>
</g>
</svg>
