<?xml version="1.0" encoding="utf-8"?>
<!-- Generator: Adobe Illustrator 22.1.0, SVG Export Plug-In . SVG Version: 6.00 Build 0)  -->
<svg version="1.1" id="Layer_1" xmlns="http://www.w3.org/2000/svg" xmlns:xlink="http://www.w3.org/1999/xlink" x="0px" y="0px"
	 viewBox="0 0 154 108" style="enable-background:new 0 0 154 108;" xml:space="preserve">
<style type="text/css">
	.st0{fill:#43505F;}
	.st1{fill:#FFFFFF;}
</style>
<g id="logoLG_1_">
	<path class="st0" d="M116,66H38C19.8,66,5,51.2,5,33l0,0C5,14.8,19.8,0,38,0h78c18.1,0,33,14.8,33,33l0,0C149,51.2,134.2,66,116,66
		z"/>
	<path class="st1" d="M115,16v19.5c0,2.5-2,4.5-4.5,4.5s-4.5-2-4.5-4.5V16H95v18.5C95,43,98.7,50,110.5,50S126,43.1,126,34.5V16H115
		z"/>
	<path class="st1" d="M80,16v20c0,3.3-2.7,6-6,6s-6-2.7-6-6V16h-8v20c0,8.5,5.4,14,14,14s14-5.5,14-14V16H80z"/>
	<path class="st1" d="M49,16v21c0,4.4-3.6,8-8,8s-8-3.6-8-8V16h-5v21c0,8.5,6.5,13,13,13s13-4.5,13-13V16H49z"/>
</g>
<g>
	<path class="st0" d="M5.8,97.9c-3,0-5.2-1.9-5.2-4.5c0-2.6,2.2-4.5,5.2-4.5c3,0,5.2,1.9,5.2,4.5C11,96.1,8.8,97.9,5.8,97.9z
		 M5.8,95.7c1.4,0,2.5-0.8,2.5-2.2c0-1.4-1-2.2-2.5-2.2c-1.4,0-2.5,0.8-2.5,2.2C3.3,94.8,4.4,95.7,5.8,95.7z M17,105.6v2.2H3.5v-5.4
		h10.2v-1.2H3.5V99h13v5.3H6.3v1.2H17z M16.6,98.2h-2.8v-9.8h2.8V98.2z"/>
	<path class="st0" d="M29.4,99.2c-2.1-0.7-3.5-2-4.3-3.6c-0.8,1.9-2.4,3.4-4.6,4.2L19,97.6c3.3-1.1,4.6-3.7,4.6-6.3v-1.8h2.8v2
		c0,2.4,1.3,4.6,4.4,5.6L29.4,99.2z M34.9,104.2c0,2.4-2.5,3.8-6.6,3.8c-4.1,0-6.6-1.4-6.6-3.8c0-2.4,2.5-3.8,6.6-3.8
		C32.4,100.4,34.9,101.8,34.9,104.2z M32.1,104.2c0-1.1-1.3-1.6-3.8-1.6c-2.5,0-3.8,0.5-3.8,1.6c0,1.1,1.3,1.6,3.8,1.6
		C30.8,105.8,32.1,105.3,32.1,104.2z M37.3,93v2.3h-2.6v4.7h-2.8V88.4h2.8V93H37.3z"/>
	<path class="st0" d="M38.4,101.8c3.4,0,8.2,0,12.3-0.6l0.2,2c-4.2,0.8-8.8,0.9-12.2,0.9L38.4,101.8z M50,94.5
		c0,2.8-2.3,4.8-5.4,4.8c-3.1,0-5.4-2-5.4-4.8c0-2.8,2.3-4.8,5.4-4.8C47.6,89.7,50,91.7,50,94.5z M41.9,94.5c0,1.5,1.1,2.4,2.7,2.4
		c1.5,0,2.7-0.9,2.7-2.4s-1.1-2.4-2.7-2.4C43.1,92.1,41.9,93,41.9,94.5z M54.6,88.4V108h-2.8V88.4H54.6z"/>
	<path class="st0" d="M70.7,89.5c0,5.2-3.3,8.7-9.1,10.2l-1.1-2.2c4.3-1.1,6.7-3.2,7.1-5.8h-6.2v-2.2H70.7z M63.4,100.1h12.7v7.6
		H63.4V100.1z M66.2,105.5h7.2v-3.2h-7.2V105.5z M78.7,95h-2.6v4.3h-2.8V88.4h2.8v4.2h2.6V95z"/>
	<path class="st0" d="M97.4,97.6v2.2H79.7v-2.2h7.4V96h-5.3v-6.7h13.4v2.2H84.6v2.3h10.7V96h-5.4v1.6H97.4z M95.3,104.4
		c0,2.3-2.6,3.6-6.8,3.6s-6.8-1.3-6.8-3.6c0-2.3,2.5-3.6,6.8-3.6S95.3,102.1,95.3,104.4z M92.4,104.4c0-1-1.3-1.5-3.9-1.5
		c-2.6,0-3.9,0.5-3.9,1.5c0,1,1.3,1.5,3.9,1.5C91.1,105.9,92.4,105.4,92.4,104.4z"/>
	<path class="st0" d="M102.6,99.2V88.8h3.8v10.7c0,3.9,1.3,5.2,3.6,5.2c2.2,0,3.7-1.3,3.7-5.2V88.8h3.6v10.4c0,6.3-2.7,8.8-7.3,8.8
		C105.3,108,102.6,105.4,102.6,99.2z"/>
	<path class="st0" d="M121,99.2V88.8h3.8v10.7c0,3.9,1.3,5.2,3.6,5.2c2.2,0,3.7-1.3,3.7-5.2V88.8h3.6v10.4c0,6.3-2.7,8.8-7.3,8.8
		C123.7,108,121,105.4,121,99.2z"/>
	<path class="st0" d="M139.4,99.2V88.8h3.8v10.7c0,3.9,1.3,5.2,3.6,5.2c2.2,0,3.7-1.3,3.7-5.2V88.8h3.6v10.4c0,6.3-2.7,8.8-7.3,8.8
		C142.1,108,139.4,105.4,139.4,99.2z"/>
</g>
</svg>
