<?xml version="1.0" encoding="utf-8"?>
<!-- Generator: Adobe Illustrator 24.0.2, SVG Export Plug-In . SVG Version: 6.00 Build 0)  -->
<svg version="1.1" id="Layer_1" xmlns="http://www.w3.org/2000/svg" xmlns:xlink="http://www.w3.org/1999/xlink" x="0px" y="0px"
	 viewBox="0 0 144 144" style="enable-background:new 0 0 144 144;" xml:space="preserve">
<style type="text/css">
	.st0{fill:#26356F;}
	.st1{fill:#FFFFFF;}
</style>
<g>
	<circle class="st0" cx="72" cy="54.4" r="43.9"/>
	<g>
		<polygon class="st1" points="53.3,45.4 60,45.4 60,65.5 65.5,65.5 65.5,45.4 72.4,45.4 72.4,40.7 53.3,40.7 		"/>
		<path class="st1" d="M84.6,54.9v2.9c0,2.4-1.6,3.8-4.1,3.8c-2.7,0-4.5-1.8-4.5-4.5v-1.5c0-2.7,1.7-4.5,4.5-4.5
			C83.2,51.1,84.6,52.6,84.6,54.9 M76.4,50.6h-0.3l-0.7-3.3h-4.5v24h5.2v-9h0.3c1,2.2,3.1,3.6,6.1,3.6c4.5,0,7.4-3.5,7.4-9.5
			c0-5.9-2.8-9.4-7.4-9.4C79.8,46.9,77.5,48.3,76.4,50.6"/>
		<path class="st1" d="M91.4,62.9c0,1.5,1.2,2.7,2.7,2.7s2.7-1.2,2.7-2.7s-1.2-2.7-2.7-2.7C92.6,60.2,91.4,61.4,91.4,62.9"/>
	</g>
</g>
<g>
	<path class="st0" d="M29.8,108.3v4.2h-6v17.6H19v-17.6h-5.9v-4.2H29.8z"/>
	<path class="st0" d="M30.4,116c1.4-1.4,3.4-2.2,5.8-2.2c2.3,0,4.1,0.7,5.5,2c1.4,1.3,2.1,3.1,2.1,5.4c0,0.5,0,1.2-0.1,1.9H33v0.8
		c0,1.7,1.3,2.9,3.2,2.9c1.6,0,2.8-0.7,3.1-1.9h4.5c-0.3,1.6-1.1,2.9-2.5,3.9c-1.4,1-3.1,1.4-5.1,1.4c-2.5,0-4.4-0.7-5.8-2.2
		s-2.1-3.5-2.1-6.1C28.3,119.4,29,117.4,30.4,116z M33,120.1h6.2v-0.3c0-1.6-1.3-2.6-3.1-2.6c-1.9,0-3.1,1.1-3.1,2.6
		C33,119.9,33,120.1,33,120.1z"/>
	<path class="st0" d="M46.6,130v-16h4l0.5,2.9h0.2c1-2.2,2.8-3.2,5.3-3.2c3.6,0,5.5,2.6,5.5,6.7v9.6h-4.6v-9.1c0-2.3-1-3.4-2.9-3.4
		c-2.2,0-3.5,1.6-3.5,4.1v8.5H46.6L46.6,130z"/>
	<path class="st0" d="M65.5,135v-21h4l0.5,2.9h0.2c1-2,3-3.2,5.3-3.2c4,0,6.5,3.1,6.5,8.2c0,5.3-2.5,8.3-6.5,8.3
		c-2.6,0-4.5-1.2-5.3-3.1H70v7.9H65.5z M77.5,123.2v-2.5c0-2-1.2-3.3-3.5-3.3c-2.4,0-3.9,1.5-3.9,3.9v1.3c0,2.4,1.5,3.9,3.9,3.9
		C76.1,126.6,77.5,125.4,77.5,123.2z"/>
	<path class="st0" d="M84.8,110L84.8,110c0-1.3,1-2.3,2.3-2.3h0.1c1.3,0,2.3,1,2.3,2.3l0,0c0,1.3-1,2.3-2.3,2.3h-0.1
		C85.9,112.3,84.8,111.3,84.8,110z M84.9,130v-16h4.6v16H84.9z"/>
	<path class="st0" d="M92.9,130v-16h4l0.5,2.9h0.2c1-2.2,2.8-3.2,5.3-3.2c3.6,0,5.5,2.6,5.5,6.7v9.6h-4.6v-9.1c0-2.3-1-3.4-2.9-3.4
		c-2.2,0-3.5,1.6-3.5,4.1v8.5H92.9L92.9,130z"/>
	<path class="st0" d="M121,126.2c3.5,0,5.5,1.7,5.5,4.6c0,3.4-2.8,5-8.5,5c-4.8,0-7.2-1.3-7.2-3.7c0-1.6,0.8-2.6,2.4-3.1v-0.2
		c-1-0.4-1.7-1.3-1.7-2.4c0-1.4,0.8-2.4,2.3-2.9v-0.2c-1.6-0.9-2.5-2.3-2.5-4.1c0-1.6,0.6-2.8,1.7-3.8c1.2-1,2.8-1.4,4.7-1.4
		c1,0,1.9,0.1,2.6,0.3v-0.5c0-1.8,0.9-2.7,3.2-2.7h2.4v3.6h-3v1c1.1,0.9,1.7,2.2,1.7,3.7c0,3.1-2.6,5.2-6.4,5.2
		c-0.7,0-1.3-0.1-1.9-0.2c-0.5,0.2-0.8,0.6-0.8,1c0,0.7,0.7,1,1.9,1L121,126.2L121,126.2z M121.9,130.8c0-0.8-0.5-1.1-1.6-1.1h-3.5
		c-1.2,0-1.8,0.4-1.8,1.3c0,1.1,1,1.5,3.3,1.5C120.7,132.5,121.9,132,121.9,130.8z M115.8,119.4c0,1.1,0.9,1.8,2.2,1.8
		c1.4,0,2.3-0.7,2.3-1.8v-0.8c0-1.1-0.8-1.7-2.3-1.7c-1.3,0-2.2,0.7-2.2,1.7V119.4z"/>
	<circle class="st0" cx="130.9" cy="128" r="2.3"/>
</g>
</svg>
