<?xml version="1.0" encoding="utf-8"?>
<!-- Generator: Adobe Illustrator 22.1.0, SVG Export Plug-In . SVG Version: 6.00 Build 0)  -->
<svg version="1.1" id="Layer_1" xmlns="http://www.w3.org/2000/svg" xmlns:xlink="http://www.w3.org/1999/xlink" x="0px" y="0px"
	 viewBox="0 0 144 144" style="enable-background:new 0 0 144 144;" xml:space="preserve">
<style type="text/css">
	.st0{fill:#26356F;}
	.st1{fill:#FFFFFF;}
</style>
<circle class="st0" cx="72" cy="72" r="72"/>
<g>
	<polygon class="st1" points="41.3,57.3 52.4,57.3 52.4,90.2 61.4,90.2 61.4,57.3 72.6,57.3 72.6,49.5 41.3,49.5 	"/>
	<path class="st1" d="M92.6,72.8v4.8c0,4-2.6,6.2-6.7,6.2c-4.5,0-7.3-2.9-7.3-7.3V74c0-4.5,2.8-7.3,7.3-7.3
		C90.4,66.6,92.6,69,92.6,72.8 M79.2,65.7h-0.5l-1.1-5.4h-7.4v39.3h8.5V84.8h0.5c1.6,3.6,5.1,5.9,10,5.9c7.4,0,12.1-5.7,12.1-15.5
		c0-9.6-4.6-15.4-12.1-15.4C84.8,59.7,81,61.9,79.2,65.7"/>
	<path class="st1" d="M103.8,85.9c0,2.4,2,4.4,4.4,4.4s4.4-2,4.4-4.4s-2-4.4-4.4-4.4C105.7,81.5,103.8,83.4,103.8,85.9"/>
</g>
</svg>
