<?xml version="1.0" encoding="utf-8"?>
<!-- Generator: Adobe Illustrator 24.0.2, SVG Export Plug-In . SVG Version: 6.00 Build 0)  -->
<svg version="1.1" xmlns="http://www.w3.org/2000/svg" xmlns:xlink="http://www.w3.org/1999/xlink" x="0px" y="0px"
	 viewBox="0 0 80 46" style="enable-background:new 0 0 80 46;" xml:space="preserve">
<style type="text/css">
	.st0{fill:#040000;}
	.st1{fill:#FFFFFF;}
	.st2{font-family:'NotoSans';}
	.st3{font-size:12px;}
	.st4{display:none;}
	.st5{display:inline;fill:#040000;}
	.st6{font-family:'NotoSans-Medium';}
</style>
<g id="레이어_1">
	<g>
		<path class="st0" d="M64.5,44H16C8.8,44,2.8,38,2.9,30.7C3.1,23.7,8.8,18,15.8,18h48.5c7.2,0,13.2,6,13.2,13.3
			C77.2,38.3,71.5,44,64.5,44"/>
		<g>
			<path class="st1" d="M35.1,24.4v8c0,0.3,0,0.6-0.1,0.9c-0.1,0.3-0.2,0.6-0.4,0.8c-0.2,0.2-0.4,0.4-0.7,0.6
				c-0.3,0.2-0.6,0.2-1,0.2s-0.7-0.1-1-0.2c-0.3-0.2-0.6-0.3-0.7-0.6c-0.2-0.2-0.3-0.5-0.4-0.8s-0.2-0.6-0.2-0.9v-8h-3.3v8.1
				c0,0.8,0.2,1.5,0.4,2.1c0.2,0.6,0.6,1.2,1.1,1.7c0.5,0.5,1,0.8,1.7,1.1c0.7,0.2,1.4,0.4,2.3,0.4s1.6-0.2,2.3-0.4
				c0.7-0.2,1.3-0.6,1.7-1.1s0.9-1,1.1-1.7s0.4-1.3,0.4-2.1v-8.1H35.1z"/>
			<path class="st1" d="M48.3,24.4v8c0,0.3,0,0.6-0.1,0.9c-0.1,0.3-0.2,0.6-0.4,0.8c-0.2,0.2-0.4,0.4-0.7,0.6
				c-0.3,0.2-0.6,0.2-1,0.2s-0.7-0.1-1-0.2c-0.3-0.2-0.6-0.3-0.7-0.6c-0.2-0.2-0.3-0.5-0.4-0.8c-0.1-0.3-0.2-0.6-0.2-0.9v-8h-3.3
				v8.1c0,0.8,0.2,1.5,0.4,2.1c0.2,0.6,0.6,1.2,1.1,1.7s1,0.8,1.7,1.1c0.7,0.2,1.4,0.4,2.3,0.4s1.6-0.2,2.3-0.4
				c0.7-0.2,1.3-0.6,1.7-1.1s0.9-1,1.1-1.7s0.4-1.3,0.4-2.1v-8.1H48.3z"/>
			<path class="st1" d="M21.8,24.4v8c0,0.3,0,0.6-0.1,0.9c-0.1,0.3-0.2,0.6-0.4,0.8c-0.2,0.2-0.4,0.4-0.7,0.6
				c-0.3,0.2-0.6,0.2-1,0.2c-0.4,0-0.7-0.1-1-0.2c-0.3-0.2-0.6-0.3-0.7-0.6s-0.3-0.5-0.4-0.8c-0.1-0.3-0.2-0.6-0.2-0.9v-8H14v8.1
				c0,0.8,0.2,1.5,0.4,2.1c0.2,0.6,0.6,1.2,1.1,1.7s1,0.8,1.7,1.1c0.7,0.2,1.4,0.4,2.3,0.4c0.9,0,1.6-0.2,2.3-0.4
				c0.7-0.2,1.3-0.6,1.7-1.1c0.5-0.5,0.9-1,1.1-1.7c0.2-0.6,0.4-1.3,0.4-2.1v-8.1H21.8z"/>
		</g>
		<g>
			<path class="st1" d="M53.9,31.2v-1.6h5.4v-1.1H56v-5h8.5v5h-3.4v1.1h5.4v1.6L53.9,31.2z M55.9,37.9v-3.8h6.7v-0.7h-6.7v-1.5h8.5
				v3.8h-6.7v0.7h7.1v1.5H55.9z M62.5,24.9h-4.7v1.9h4.7V24.9z"/>
		</g>
	</g>
	<text transform="matrix(1 0 0 1 6.7896 14.8218)" class="st0 st2 st3">with</text>
</g>
<g id="레이어_2" class="st4">
	<text transform="matrix(1 0 0 1 7.7256 14.8218)" class="st5 st6 st3">with</text>
</g>
</svg>
